<?xml version="1.0" encoding="utf-8"?>
<!-- Generator: Adobe Illustrator 19.0.0, SVG Export Plug-In . SVG Version: 6.00 Build 0)  -->
<svg version="1.1" id="Layer_1" xmlns="http://www.w3.org/2000/svg" xmlns:xlink="http://www.w3.org/1999/xlink" x="0px" y="0px"
	 viewBox="0 0 619.9 278.1" style="enable-background:new 0 0 619.9 278.1;" xml:space="preserve">
<g id="XMLID_1_">
	<path id="XMLID_79_" d="M8.5,82.5C8.6,74.9,8.8,69.3,9,65.8c0-10.9,0.2-22,0.5-33.3c-0.1-2.2-0.2-3.8-0.2-4.8v-1.2
		c-0.1-1.1-0.2-2.1-0.2-2.8c0-0.5,0.2-0.9,0.7-1.3c4.3,0.3,10.8,0.5,19.5,0.5c2.1,0,3.5-0.1,4.3-0.2v59.8H8.5z"/>
	<path id="XMLID_81_" d="M93.5,27.7c0.3,0.1,0.6,0.6,0.7,1.3c0.2,0.8,0.3,1.8,0.3,3c0,1.2,0,2.3,0,3.4c0,1.1-0.1,2.2-0.1,3.4
		c0,1.1-0.1,1.9-0.1,2.1c-0.1,1-0.1,2.5-0.1,4.4v4.1c0,1.8,0,4.3,0.1,7.5c0.1,3.2,0.1,5.5,0.1,7v14.2c-0.1,0.9-0.8,1.3-2.2,1.3H70.4
		c-0.5-0.1-1.1-1.2-1.8-3.3c-0.5-1.4-1.3-3.6-2.5-6.8c-1.2-3.2-2.2-5.9-3-8.3c-0.8-2.4-1.6-4.7-2.3-6.9V54v0.2
		c-0.1,1.7-0.2,4.3-0.2,7.7c-0.1,3.4-0.2,5.9-0.2,7.6v8c0,0.8-0.1,1.3-0.3,1.6c-0.2,0.3-0.7,0.5-1.4,0.7H42.6l-1.7-1.7
		c0.1-4.3,0.2-11.1,0.3-20.3s0.2-16,0.3-20.5V29c0.3-0.9,0.6-1.4,0.9-1.4v0.2c1.8,0,4.6-0.1,8.3-0.2c3.8-0.1,6.6-0.2,8.5-0.2h6.6
		c0,0,0.1,0,0.1,0c0.5,0.2,0.7,0.4,0.8,0.6l0,0.3c0.9,2.5,1.9,5.1,2.9,7.9c1,2.7,2.1,6,3.4,9.8c1.3,3.8,2.3,6.5,2.8,7.9v-5.8
		c0.5-9.2,0.8-15.7,0.8-19.5c0-0.4,0.3-0.7,0.9-0.8c0.6-0.1,1.5-0.2,2.7-0.2H93.5z"/>
	<path id="XMLID_83_" d="M127.1,81.1c-4.3,0-8.3-0.7-11.7-2.2c-3.5-1.5-6.3-3.5-8.5-6.1c-2.2-2.6-3.9-5.6-5.1-9.1
		c-1.2-3.5-1.7-7.3-1.7-11.4v-0.5c0-0.2,0.1-0.6,0.1-1.3c0.1-0.7,0.1-1.2,0.1-1.4c0-0.2,0.1-0.6,0.1-1.3s0.1-1.1,0.2-1.4
		c0.1-0.3,0.1-0.7,0.2-1.3c0.1-0.5,0.2-1,0.3-1.3s0.3-0.8,0.4-1.3c0.2-0.5,0.3-1,0.5-1.4c0.2-0.4,0.4-0.9,0.6-1.4v0.1
		c1.2-2.5,2.7-4.7,4.5-6.5c1.8-1.8,3.8-3.2,6-4.2c2.2-1,4.4-1.7,6.7-2.2c2.3-0.5,4.7-0.7,7.3-0.7c3.2,0,6.1,0.3,8.8,1
		c2.6,0.6,4.8,1.5,6.5,2.6c1.7,1.1,3.2,2.4,4.4,3.9c1.2,1.5,2.1,3.1,2.8,4.7c0.6,1.6,1.1,3.4,1.3,5.2v3.4c-0.1,0.4-0.3,0.6-0.6,0.8
		s-0.7,0.3-1,0.4c-0.4,0-0.9,0.1-1.5,0.1h-16.7v-3.4c-0.1-0.9-0.5-1.7-1.1-2.4c-0.6-0.7-1.4-1.1-2.3-1.1c-0.8,0-1.5,0.2-2.1,0.5
		c-0.6,0.3-1.1,0.8-1.4,1.3c-0.4,0.6-0.6,1.2-0.9,2c-0.2,0.7-0.4,1.5-0.4,2.3c-0.1,0.8-0.1,1.7-0.2,2.5c0,0.8,0,1.6,0,2.4
		c0,0.5,0,0.9,0,1.1v4.4c0,0.7,0,1.3,0.1,1.9c0.1,0.6,0.2,1.4,0.5,2.4c0.2,1,0.7,1.7,1.3,2.3c0.6,0.6,1.4,0.9,2.3,0.9
		c1,0,1.7-0.4,2.2-1.3c0.5-0.8,0.9-1.8,1.2-3c0.3-1.2,0.7-2,1.1-2.4c1,0,2.6,0,4.7,0c2.1,0,3.6,0,4.7,0c0.7,0,1.8,0,3.2,0
		c1.4,0,2.5,0,3.2,0h2.9c0.9,0,1.3,0.5,1.4,1.6v1.5c-0.6,5.2-2.5,9.4-5.7,12.5c-3.3,3.2-7.3,5.2-12.2,6.1v0.2
		C131.9,81,129.7,81.1,127.1,81.1z"/>
	<path id="XMLID_85_" d="M156.2,31c0-1.6,0.1-2.5,0.2-2.7c0.2-0.4,0.6-0.5,1.1-0.5h0.9c0.4,0,0.7,0,0.9,0.1h2
		c2.6,0,6.6-0.1,11.9-0.2c5.3-0.1,9.3-0.2,12-0.2h10.4c0.7,0.1,1,0.4,1,1v13c0,0.2-0.1,0.3-0.1,0.4c-0.1,0.1-0.1,0.2-0.2,0.2
		s-0.2,0.1-0.4,0.3c-0.2,0.1-0.4,0.3-0.4,0.3h-18.1v4.8h1.7c1.5,0,3.8-0.1,6.9-0.2c3.1-0.1,5.5-0.2,7.1-0.2c0.7,0,1.2,0.1,1.5,0.4
		c0.3,0.3,0.4,0.7,0.4,1.2c0,0.1,0,0.4-0.1,0.7c-0.1,0.3-0.1,0.5-0.1,0.7v1.5c0,0.1,0,0.3,0,0.6c0,0.3,0,0.6,0,0.8v1.1
		c0,0.6,0,1.1,0.1,1.7c0.1,0.6,0.1,1.1,0.1,1.5v1c-0.1,0.3-0.2,0.5-0.3,0.6c-0.1,0.1-0.2,0.2-0.4,0.2v-0.1c-1,0-2.6,0.1-5,0.2
		c-2.4,0.1-4.2,0.2-5.6,0.2h-6.3v5c0.2,0,0.5,0,0.9,0c0.4,0,0.7,0,0.9,0c1.2,0,2.9,0,5.2-0.1c2.3-0.1,3.9-0.1,5-0.1h5
		c1.4,0,2.2,0.2,2.6,0.5c0.1,0.2,0.2,0.3,0.3,0.5v12.5c0,0.5-0.1,1-0.3,1.3c-0.2,0.3-0.6,0.4-1.2,0.5h-38.7l-1.2-1V31z"/>
	<path id="XMLID_87_" d="M202.6,79.9l-0.8-26c0-1.8,0-3.8,0.1-6.1c0.1-2.3,0.1-4.3,0.2-6.1c0.1-1.8,0.1-3.9,0.2-6.2
		c0.1-2.3,0.1-4.4,0.1-6.3c0-0.5,0.2-0.9,0.5-1c0.4-0.1,0.8-0.2,1.3-0.1c0.5,0.1,1.1,0,1.8-0.1h28c1.6,0,3.2,0.2,4.8,0.6
		c1.6,0.4,3.1,1.1,4.7,2s2.9,2,4,3.3c1.2,1.3,2.1,2.9,2.8,4.8c0.7,1.9,1.1,4,1.1,6.4c0,3.1-0.7,5.8-2,8.2c-1.3,2.4-3.3,4.6-5.9,6.7
		c-3.2,1.7-7.1,2.6-11.6,2.9h-1.3c-1,0.2-2.1,0.3-3.1,0.3h-3.1c-0.2,0-0.3,0-0.4,0.1c0,6.8,0.1,12,0.3,15.5
		c-0.1,0.5-0.4,0.9-0.8,1.1c-0.4,0.2-1.2,0.3-2.2,0.3H202.6z M222.1,50.1v0.7c0,0,0.2,0.1,0.5,0.3c0.3,0.1,0.5,0.2,0.5,0.3v0.1
		c-0.1,0-0.1-0.1-0.1-0.2c0.1,0.1,0.2,0.1,0.5,0.1c2.3,0,4.3-0.5,5.9-1.6c1.6-1,2.4-2.7,2.4-4.8c0-1-0.2-1.8-0.5-2.5
		c-0.3-0.7-0.7-1.2-1.2-1.6c-0.5-0.4-1.1-0.7-2-0.9s-1.6-0.3-2.2-0.4c-0.7-0.1-1.5-0.1-2.6-0.1c0,0-0.1,0.1-0.3,0.3
		c-0.2,0.2-0.3,0.3-0.4,0.4v4.1C222.3,46.6,222.1,48.6,222.1,50.1z"/>
	<path id="XMLID_90_" d="M251.4,41.9V27.9h45.5c0.4,0.1,0.7,0.2,0.8,0.5c0.1,0.2,0.2,0.6,0.2,1.1v12.5c-0.1,0.6-0.4,0.9-1.1,0.9
		h-11.1v35.9c0,0,0,0.1,0,0.2c0,0.1,0,0.2,0,0.2c0,0,0,0.1,0,0.2c0,0.1-0.1,0.1-0.1,0.2c0,0-0.1,0.1-0.1,0.1c0,0.1-0.1,0.1-0.1,0.1
		c0,0-0.1,0-0.2,0.1c-0.1,0-0.1,0.1-0.2,0.1c-0.1,0-0.1,0-0.2,0.1c-0.1,0-0.2,0-0.3,0.1h-2.5c-3.3,0-5-0.1-5-0.3c-0.2,0-0.5,0-0.9,0
		c-0.4,0-0.7,0-0.9,0h-3.1c-0.6,0-1.5,0-2.6,0c-1.1,0-2,0-2.6,0h-2.2l-1.6-1.1v-8.4c0-1.5,0.1-4.7,0.3-9.7c0.2-4.9,0.3-8.9,0.3-11.7
		v-1c0-0.2,0-0.5,0-1c0-0.4,0-0.8,0-1c0-0.2,0-0.7,0-1.4c0-0.7,0-1.2,0-1.4h-9.8c-0.6,0-1.1-0.1-1.6-0.3S251.4,42.4,251.4,41.9z"/>
	<path id="XMLID_92_" d="M300.3,80V28.6c0-0.2,0.2-0.4,0.6-0.6c0.4-0.2,0.6-0.3,0.7-0.4h21v50.9c-0.1,0.5-0.3,0.9-0.4,1.1
		S322,80,321.7,80H300.3z"/>
	<path id="XMLID_94_" d="M327.3,53.2l-0.1-0.9c0.5-4.2,1-7.2,1.4-8.9c1-3.9,2.8-7.2,5.5-9.8l0.9-0.9c1.3-1.5,3.2-2.7,5.7-3.8h1.5
		c2.6-1.1,6.7-2.1,12.6-3c1.5,0,3,0.1,4.6,0.3c1.6,0.2,3.4,0.6,5.3,1.1s3.8,1.3,5.6,2.4c1.8,1.1,3.3,2.4,4.5,4v1.1
		c4.3,5.3,6.4,11.3,6.4,18c0,7.5-1.7,13.6-5.2,18.3l-1.6,2c-1.2,1.5-2.7,2.8-4.5,3.8c-1.8,1.1-3.7,1.9-5.7,2.4c-2,0.6-3.9,1-5.8,1.2
		s-3.7,0.4-5.5,0.4c-2.7,0-5.2-0.3-7.7-1c-2.4-0.6-4.7-1.6-6.8-3c-2.1-1.4-4-3-5.6-5c-1.6-2-2.9-4.4-3.9-7.2c-1-2.8-1.6-5.9-1.8-9.3
		V53.2z M348.8,53.5c0,9.2,1.7,13.8,5.2,13.8c1,0,1.8-0.2,2.5-0.5c0.7-0.4,1.3-0.9,1.7-1.7c0.4-0.8,0.8-1.5,1.1-2.3
		c0.3-0.8,0.5-1.8,0.6-2.9s0.2-2.2,0.2-3.1c0-0.9,0.1-2,0.1-3.2v-1.4c0-1.4-0.1-2.7-0.2-3.9s-0.4-2.5-0.8-3.8c-0.4-1.3-1-2.3-1.7-3
		c-0.8-0.8-1.7-1.2-2.9-1.2c-3.9,0-5.9,3.9-5.9,11.6V53.5z"/>
	<path id="XMLID_97_" d="M438.7,27.7c0.3,0.1,0.6,0.6,0.7,1.3c0.2,0.8,0.3,1.8,0.3,3c0,1.2,0,2.3,0,3.4c0,1.1-0.1,2.2-0.1,3.4
		c0,1.1-0.1,1.9-0.1,2.1c-0.1,1-0.1,2.5-0.1,4.4v4.1c0,1.8,0,4.3,0.1,7.5c0.1,3.2,0.1,5.5,0.1,7v14.2c-0.1,0.9-0.8,1.3-2.2,1.3
		h-21.9c-0.5-0.1-1.1-1.2-1.8-3.3c-0.5-1.4-1.3-3.6-2.5-6.8c-1.2-3.2-2.2-5.9-3-8.3c-0.8-2.4-1.6-4.7-2.3-6.9V54v0.2
		c-0.1,1.7-0.2,4.3-0.2,7.7c-0.1,3.4-0.2,5.9-0.2,7.6v8c0,0.8-0.1,1.3-0.3,1.6c-0.2,0.3-0.7,0.5-1.4,0.7h-16.1l-1.7-1.7
		c0.1-4.3,0.2-11.1,0.3-20.3s0.2-16,0.3-20.5V29c0.3-0.9,0.6-1.4,0.9-1.4v0.2c1.8,0,4.6-0.1,8.3-0.2c3.8-0.1,6.6-0.2,8.5-0.2h6.6
		c0,0,0.1,0,0.1,0c0.5,0.2,0.7,0.4,0.8,0.6l0,0.3c0.9,2.5,1.9,5.1,2.9,7.9c1,2.7,2.1,6,3.4,9.8c1.3,3.8,2.3,6.5,2.8,7.9v-5.8
		c0.5-9.2,0.8-15.7,0.8-19.5c0-0.4,0.3-0.7,0.9-0.8c0.6-0.1,1.5-0.2,2.7-0.2H438.7z"/>
	<path id="XMLID_99_" d="M9.4,172.1v-52c0-0.2,0.1-0.3,0.3-0.5c0.2-0.1,0.4-0.2,0.8-0.3c0.4-0.1,0.7-0.1,1-0.1c0.3,0,0.7,0,1.2-0.1
		c0.5,0,0.9,0,1,0h31.7c2.6,0,5.1,0.4,7.4,1.2c2.3,0.8,4.4,2,6.2,3.6s3.2,3.6,4.3,6.1c1,2.5,1.6,5.3,1.6,8.4c0,2.3-0.3,4.4-0.8,6.3
		c-0.5,1.9-1.2,3.5-2.1,4.9c-0.9,1.3-1.9,2.5-3.2,3.6c-1.3,1.1-2.6,1.9-3.9,2.6c-1.3,0.7-2.8,1.2-4.4,1.7c-1.6,0.5-3.1,0.8-4.4,1
		c-1.3,0.2-2.8,0.4-4.2,0.5h-7.5c-0.2,4.1-0.3,8.7-0.3,13.8v4.4c-0.1,0.9-0.5,1.4-1.3,1.4H10.4C9.7,176.6,9.4,174.5,9.4,172.1z
		 M31.4,144.8l1.3,1.7c1.1,0,2.1-0.1,3.1-0.2s1.9-0.4,2.9-0.8s1.7-0.9,2.4-1.5c0.7-0.6,1.2-1.4,1.6-2.3c0.4-1,0.6-2,0.6-3.2
		c0-0.9-0.1-1.7-0.4-2.4c-0.2-0.7-0.5-1.3-0.9-1.8c-0.4-0.5-0.8-0.9-1.4-1.2c-0.6-0.3-1.2-0.6-1.7-0.8c-0.5-0.2-1.2-0.3-2-0.4
		c-0.8-0.1-1.5-0.1-2-0.2c-0.5,0-1.2,0-2.1,0C31.8,132.1,31.4,136.5,31.4,144.8z"/>
	<path id="XMLID_102_" d="M68.5,123.7h7.3c2.2,0,5.8-0.1,10.7-0.2c4.9-0.1,8.6-0.2,11.1-0.2c2.1,0,4.1,0.1,5.9,0.4s3.6,0.7,5.4,1.3
		c1.8,0.6,3.3,1.4,4.6,2.4c1.3,1,2.3,2.2,3.1,3.8c0.8,1.6,1.2,3.4,1.2,5.4c0,2.8-0.7,5.3-2,7.3c-1.3,2-3.4,3.7-6.1,5.1
		c1.1,0.5,2,1.1,2.9,1.8c0.8,0.8,1.4,1.4,1.9,2s0.8,1.5,1.3,2.8c0.4,1.3,0.6,2.1,0.7,2.5c0.1,0.4,0.2,1.4,0.5,3
		c0.1,0.4,0.1,0.6,0.2,0.8c0.1,1,0.5,2.9,1.3,5.7s1.2,4.9,1.2,6.4c0,0.9-0.3,1.4-0.9,1.4c-1.6,0-3.9,0-7.1,0c-3.2,0-5.5,0-7.1,0
		c-0.6-0.1-1.6-0.1-2.8-0.1H99c-0.5-0.2-1-1-1.5-2.4c-0.5-1.5-0.8-3.1-1.1-4.9l-0.9-7c-0.2-0.6-0.3-1-0.4-1.2
		c-0.1-0.2-0.3-0.5-0.5-0.9s-0.6-0.6-1-0.7c-0.4-0.1-0.9-0.2-1.5-0.2h-1.8v15.6c0,0.1,0,0.2,0,0.4c0,0.2,0,0.3,0,0.4
		c0,0.1,0,0.2,0,0.3c0,0.1,0,0.2,0,0.3c0,0.1-0.1,0.2-0.1,0.3c0,0.1-0.1,0.2-0.1,0.2s-0.1,0.1-0.2,0.2c-0.1,0.1-0.1,0.1-0.2,0.1
		c-0.1,0-0.2,0.1-0.3,0.1c-0.1,0-0.3,0-0.4,0H68.5V123.7z M90.6,144.3c0.1,0.1,0.1,0.2,0.2,0.3c0.1,0.2,0.2,0.3,0.3,0.4
		c0.1,0.1,0.2,0.2,0.3,0.2c0.8,0,1.6-0.1,2.3-0.3c0.8-0.2,1.6-0.4,2.4-0.8s1.5-1,2-1.8c0.5-0.8,0.8-1.8,0.8-2.9
		c0-2.7-2.6-4.1-7.8-4.1c-0.5,0.1-0.8,0.3-0.8,0.6v1.5c0,0.8,0,1.9,0.1,3.4C90.6,142.4,90.6,143.6,90.6,144.3z"/>
	<path id="XMLID_105_" d="M123,127c0-1.6,0.1-2.5,0.2-2.7c0.2-0.4,0.6-0.5,1.1-0.5h0.9c0.4,0,0.7,0,0.9,0.1h2
		c2.6,0,6.6-0.1,11.9-0.2c5.3-0.1,9.3-0.2,12-0.2h10.4c0.7,0.1,1,0.4,1,1v13c0,0.2-0.1,0.3-0.1,0.4c-0.1,0.1-0.1,0.2-0.2,0.2
		s-0.2,0.1-0.4,0.3c-0.2,0.1-0.4,0.3-0.4,0.3h-18.1v4.8h1.7c1.5,0,3.8-0.1,6.9-0.2c3.1-0.1,5.5-0.2,7.1-0.2c0.7,0,1.2,0.1,1.5,0.4
		c0.3,0.3,0.4,0.7,0.4,1.2c0,0.1,0,0.4-0.1,0.7c-0.1,0.3-0.1,0.5-0.1,0.7v1.5c0,0.1,0,0.3,0,0.6c0,0.3,0,0.6,0,0.8v1.1
		c0,0.6,0,1.1,0.1,1.7c0.1,0.6,0.1,1.1,0.1,1.5v1c-0.1,0.3-0.2,0.5-0.3,0.6c-0.1,0.1-0.2,0.2-0.4,0.2v-0.1c-1,0-2.6,0.1-5,0.2
		c-2.4,0.1-4.2,0.2-5.6,0.2h-6.3v5c0.2,0,0.5,0,0.9,0c0.4,0,0.7,0,0.9,0c1.2,0,2.9,0,5.2-0.1c2.3-0.1,3.9-0.1,5-0.1h5
		c1.4,0,2.2,0.2,2.6,0.5c0.1,0.2,0.2,0.3,0.3,0.5v12.5c0,0.5-0.1,1-0.3,1.3c-0.2,0.3-0.6,0.4-1.2,0.5h-38.7l-1.2-1V127z"/>
	<path id="XMLID_107_" d="M197.3,123.9c0.2-0.1,0.5-0.1,0.9-0.1c0.4,0,0.7-0.1,0.8-0.1l4.6,23.8l6.1-23.9h27.5
		c0.7,0,1.1,1.5,1.1,4.6v46c-0.1,0.4-0.2,0.8-0.4,1c-0.2,0.3-0.4,0.4-0.8,0.5c-0.4,0.1-0.6,0.1-0.8,0.2c-0.2,0-0.5,0-1,0
		c-1.6,0-4.1,0-7.5,0.1c-3.3,0.1-5.9,0.1-7.5,0.1c-1.3-0.8-2-3.8-2-9c0-1.3,0-3,0.1-5.1c0.1-2.1,0.1-3.7,0.1-4.7v-3.4
		c0-0.2,0-0.5,0-0.9c0-0.4,0-0.7,0-0.9c0-0.9,0.1-2.3,0.2-4.3v3c-0.4,1.5-1.1,3.9-2.1,7c-1,3.2-1.7,5.5-2.1,7l-2.3,10
		c-0.4,0.7-1.7,1.1-3.9,1.1c-1.1,0-2.5,0-4.2-0.1c-1.7-0.1-3-0.1-3.9-0.1c-0.3,0-0.7,0-1.3,0c-0.6,0-1,0-1.2,0
		c-0.8,0-1.4-0.1-1.8-0.3c-0.4-0.2-0.6-0.6-0.8-1.3c-2.4-10.9-4.1-18.5-5.1-23l-1.4-6.7c-0.4,7.6-0.5,15.6-0.5,24.1v6.9h-18.4
		c0-0.2,0-0.5,0.1-1c0.1-0.5,0.1-0.8,0.1-0.9c-0.2-5-0.3-11.2-0.3-18.5c0-2.2,0-5.2,0-8.8c0-3.7,0-6.2,0-7.6v-13.8
		c0-0.3,0.1-0.6,0.2-0.8c0.1-0.2,0.4-0.4,0.8-0.7h3.6c1.3,0,2.2,0,2.8-0.1c2.6,0,5.8,0.1,9.6,0.4c3.8,0.2,6.1,0.4,7.1,0.4H197.3z"/>
	<path id="XMLID_110_" d="M245.1,176v-51.3c0-0.2,0.2-0.4,0.6-0.6c0.4-0.2,0.6-0.3,0.7-0.4h21v50.9c-0.1,0.5-0.3,0.9-0.4,1.1
		s-0.3,0.3-0.6,0.3H245.1z"/>
	<path id="XMLID_112_" d="M274.6,127c0-1.6,0.1-2.5,0.2-2.7c0.2-0.4,0.6-0.5,1.1-0.5h0.9c0.4,0,0.7,0,0.9,0.1h2
		c2.6,0,6.6-0.1,11.9-0.2c5.3-0.1,9.3-0.2,12-0.2H314c0.7,0.1,1,0.4,1,1v13c0,0.2-0.1,0.3-0.1,0.4c-0.1,0.1-0.1,0.2-0.2,0.2
		s-0.2,0.1-0.4,0.3c-0.2,0.1-0.4,0.3-0.4,0.3h-18.1v4.8h1.7c1.5,0,3.8-0.1,6.9-0.2c3.1-0.1,5.5-0.2,7.1-0.2c0.7,0,1.2,0.1,1.5,0.4
		c0.3,0.3,0.4,0.7,0.4,1.2c0,0.1,0,0.4-0.1,0.7c-0.1,0.3-0.1,0.5-0.1,0.7v1.5c0,0.1,0,0.3,0,0.6c0,0.3,0,0.6,0,0.8v1.1
		c0,0.6,0,1.1,0.1,1.7c0.1,0.6,0.1,1.1,0.1,1.5v1c-0.1,0.3-0.2,0.5-0.3,0.6c-0.1,0.1-0.2,0.2-0.4,0.2v-0.1c-1,0-2.6,0.1-5,0.2
		c-2.4,0.1-4.2,0.2-5.6,0.2H296v5c0.2,0,0.5,0,0.9,0c0.4,0,0.7,0,0.9,0c1.2,0,2.9,0,5.2-0.1c2.3-0.1,3.9-0.1,5-0.1h5
		c1.4,0,2.2,0.2,2.6,0.5c0.1,0.2,0.2,0.3,0.3,0.5v12.5c0,0.5-0.1,1-0.3,1.3c-0.2,0.3-0.6,0.4-1.2,0.5h-38.7l-1.2-1V127z"/>
	<path id="XMLID_117_" d="M320.5,123.7h7.3c2.2,0,5.8-0.1,10.7-0.2c4.9-0.1,8.6-0.2,11.1-0.2c2.1,0,4.1,0.1,5.9,0.4s3.6,0.7,5.4,1.3
		c1.8,0.6,3.3,1.4,4.6,2.4c1.3,1,2.3,2.2,3.1,3.8c0.8,1.6,1.2,3.4,1.2,5.4c0,2.8-0.7,5.3-2,7.3c-1.3,2-3.4,3.7-6.1,5.1
		c1.1,0.5,2,1.1,2.9,1.8c0.8,0.8,1.4,1.4,1.9,2s0.8,1.5,1.3,2.8c0.4,1.3,0.6,2.1,0.7,2.5c0.1,0.4,0.2,1.4,0.5,3
		c0.1,0.4,0.1,0.6,0.2,0.8c0.1,1,0.5,2.9,1.3,5.7s1.2,4.9,1.2,6.4c0,0.9-0.3,1.4-0.9,1.4c-1.6,0-3.9,0-7.1,0c-3.2,0-5.5,0-7.1,0
		c-0.6-0.1-1.6-0.1-2.8-0.1h-2.7c-0.5-0.2-1-1-1.5-2.4c-0.5-1.5-0.8-3.1-1.1-4.9l-0.9-7c-0.2-0.6-0.3-1-0.4-1.2
		c-0.1-0.2-0.3-0.5-0.5-0.9s-0.6-0.6-1-0.7c-0.4-0.1-0.9-0.2-1.5-0.2h-1.8v15.6c0,0.1,0,0.2,0,0.4c0,0.2,0,0.3,0,0.4
		c0,0.1,0,0.2,0,0.3c0,0.1,0,0.2,0,0.3c0,0.1-0.1,0.2-0.1,0.3c0,0.1-0.1,0.2-0.1,0.2s-0.1,0.1-0.2,0.2c-0.1,0.1-0.1,0.1-0.2,0.1
		c-0.1,0-0.2,0.1-0.3,0.1c-0.1,0-0.3,0-0.4,0h-20.5V123.7z M342.6,144.3c0.1,0.1,0.1,0.2,0.2,0.3c0.1,0.2,0.2,0.3,0.3,0.4
		c0.1,0.1,0.2,0.2,0.3,0.2c0.8,0,1.6-0.1,2.3-0.3c0.8-0.2,1.6-0.4,2.4-0.8s1.5-1,2-1.8c0.5-0.8,0.8-1.8,0.8-2.9
		c0-2.7-2.6-4.1-7.8-4.1c-0.5,0.1-0.8,0.3-0.8,0.6v1.5c0,0.8,0,1.9,0.1,3.4C342.5,142.4,342.6,143.6,342.6,144.3z"/>
	<path id="XMLID_120_" d="M374.9,127c0-1.6,0.1-2.5,0.2-2.7c0.2-0.4,0.6-0.5,1.1-0.5h0.9c0.4,0,0.7,0,0.9,0.1h2
		c2.6,0,6.6-0.1,11.9-0.2c5.3-0.1,9.3-0.2,12-0.2h10.4c0.7,0.1,1,0.4,1,1v13c0,0.2-0.1,0.3-0.1,0.4c-0.1,0.1-0.1,0.2-0.2,0.2
		s-0.2,0.1-0.4,0.3c-0.2,0.1-0.4,0.3-0.4,0.3h-18.1v4.8h1.7c1.5,0,3.8-0.1,6.9-0.2c3.1-0.1,5.5-0.2,7.1-0.2c0.7,0,1.2,0.1,1.5,0.4
		c0.3,0.3,0.4,0.7,0.4,1.2c0,0.1,0,0.4-0.1,0.7c-0.1,0.3-0.1,0.5-0.1,0.7v1.5c0,0.1,0,0.3,0,0.6c0,0.3,0,0.6,0,0.8v1.1
		c0,0.6,0,1.1,0.1,1.7c0.1,0.6,0.1,1.1,0.1,1.5v1c-0.1,0.3-0.2,0.5-0.3,0.6c-0.1,0.1-0.2,0.2-0.4,0.2v-0.1c-1,0-2.6,0.1-5,0.2
		c-2.4,0.1-4.2,0.2-5.6,0.2h-6.3v5c0.2,0,0.5,0,0.9,0c0.4,0,0.7,0,0.9,0c1.2,0,2.9,0,5.2-0.1c2.3-0.1,3.9-0.1,5-0.1h5
		c1.4,0,2.2,0.2,2.6,0.5c0.1,0.2,0.2,0.3,0.3,0.5v12.5c0,0.5-0.1,1-0.3,1.3c-0.2,0.3-0.6,0.4-1.2,0.5h-38.7l-1.2-1V127z"/>
	<path id="XMLID_122_" d="M87.6,258.8c0,0.5,0,1.2,0.1,2.2c0.1,1,0.1,1.9,0.1,2.8c0,0.9,0,1.9,0.1,2.9c0,1.1,0,2.1-0.1,2.9
		c-0.1,0.9-0.2,1.7-0.4,2.5c-0.2,0.8-0.5,1.4-0.8,1.8c-0.4,0.4-0.8,0.6-1.4,0.6H67.3c-1.3-1-1.9-4.6-1.9-10.8c0-2.3,0-5,0-8.2
		c0-3.2,0-5.5,0-6.8V246c0-0.2,0-0.7-0.1-1.3s0-1.2,0-1.5c-1,3.8-2.3,9.2-3.8,16.2c-1.5,7-2.6,11.7-3.1,14.1
		c-0.3,0.7-1.5,1.1-3.6,1.1H41.1c-1.7,0-2.7-0.4-3-1.3l-3.8-16.3c-0.3-1.7-0.7-3.4-1.1-5.2c-0.4-1.8-0.9-3.8-1.4-6.1
		c-0.5-2.3-1-4-1.2-5.1c-0.3,8.3-0.5,14.7-0.5,19.1v6.9c0,3.1,0,5.4,0.1,7c-0.2,0.6-0.4,0.9-0.9,0.9h-3.7c-1.5,0-3.8,0-6.8,0
		c-3,0-5.2,0-6.8,0c-1.4,0-2.1-0.2-2.1-0.7v-58c0-0.2,0.1-0.4,0.2-0.6c0.1-0.2,0.3-0.3,0.5-0.4c0.2-0.1,0.5-0.2,0.7-0.2
		c0.2-0.1,0.5-0.1,0.9-0.1c0.4,0,0.7,0,0.9,0c0.2,0,0.5,0,0.9,0c0.4,0,0.6,0,0.7,0h4.6c7.4,0,12.6,0.1,15.7,0.3c3,0.2,5.4,0.3,7,0.3
		c0.6,3.5,1.6,8.7,3,15.5l3,15.5l6.3-31.6c0.4,0.1,0.7,0.2,0.8,0.2c2.8,0,6.9,0,12.3-0.1c5.4-0.1,9.6-0.1,12.3-0.1h5.8
		c0.7,0.1,1.1,0.8,1.1,2.2C87.3,241.8,87.6,255.9,87.6,258.8z"/>
	<path id="XMLID_124_" d="M112.5,263.8c-0.2,0.6-0.4,1.4-0.5,2.4c-0.2,1-0.3,1.7-0.5,2.3c-0.1,0.6-0.4,1.1-0.7,1.8
		c-0.3,0.6-0.9,1.1-1.5,1.3c-0.7,0.3-1.6,0.4-2.7,0.4H89.7v-1.3c1.4-4.1,3.4-10.5,6-19.1c2.6-8.6,4.7-15.1,6.2-19.5v0.1
		c0.9-2.5,2.2-6.5,3.9-11.9c0-0.1,0.1-0.1,0.1-0.2c0.2-0.4,0.5-0.7,0.7-0.9l21.1,0.2c3.6,0,5.6,0.3,5.9,0.9v1
		c0.1,0.2,0.3,0.8,0.9,1.8c2.5,7.7,4.4,13.4,5.5,16.9v0.5c0.1,0.8,0.3,1.6,0.7,2.6c0.4,1,0.8,2,1.3,3.1c0.5,1.1,0.9,2,1.1,2.6
		l1.6,5.6c0.9,3,2.3,7.1,4,12.1v-0.1v0.8c0.1,0.4,0.3,0.9,0.6,1.5s0.5,1.1,0.6,1.3c0,0.7-0.2,1.2-0.4,1.4c-0.3,0.2-0.9,0.3-1.7,0.3
		h-18.1c-0.4-0.1-0.7-0.1-0.9-0.1c-0.1,0-0.3-0.1-0.6-0.2c-0.3-0.1-0.5-0.2-0.6-0.3c-0.1-0.1-0.2-0.3-0.2-0.5l-1.5-5.9
		c-0.1-0.5-0.2-0.8-0.3-0.8c-0.1-0.1-0.4-0.1-0.9-0.1H112.5z M123,245.2c-0.2-0.7-0.4-1.9-0.7-3.5c-0.3-1.6-0.6-3-0.9-4.3
		c-0.3-1.2-0.6-2.3-0.9-3.4v-1.9c-0.2-0.5-0.6-0.9-1.1-1.2v0.1c-0.6,0.1-1.3,1.9-1.9,5.2v1.9c-0.1,0.2-0.2,0.4-0.4,0.5
		c-0.2,0.2-0.3,0.2-0.3,0.3c-0.9,3.8-1.6,6.9-2.1,9.2c0,0.3-0.1,0.7-0.2,1.4c-0.1,0.7-0.2,1-0.2,1.1h9.7c0-0.7-0.2-1.9-0.7-3.7v-0.9
		c0-0.1-0.1-0.2-0.2-0.4C123,245.4,123,245.3,123,245.2z"/>
	<path id="XMLID_127_" d="M151.6,272v-51.3c0-0.2,0.2-0.4,0.6-0.6c0.4-0.2,0.6-0.3,0.7-0.4h21v50.9c-0.1,0.5-0.3,0.9-0.4,1.1
		s-0.3,0.3-0.6,0.3H151.6z"/>
	<path id="XMLID_129_" d="M233.2,219.7c0.3,0.1,0.6,0.6,0.7,1.3c0.2,0.8,0.3,1.8,0.3,3c0,1.2,0,2.3,0,3.4c0,1.1-0.1,2.2-0.1,3.4
		c0,1.1-0.1,1.9-0.1,2.1c-0.1,1-0.1,2.5-0.1,4.4v4.1c0,1.8,0,4.3,0.1,7.5c0.1,3.2,0.1,5.5,0.1,7v14.2c-0.1,0.9-0.8,1.3-2.2,1.3
		h-21.9c-0.5-0.1-1.1-1.2-1.8-3.3c-0.5-1.4-1.3-3.6-2.5-6.8c-1.2-3.2-2.2-5.9-3-8.3c-0.8-2.4-1.6-4.7-2.3-6.9V246v0.2
		c-0.1,1.7-0.2,4.3-0.2,7.7c-0.1,3.4-0.2,5.9-0.2,7.6v8c0,0.8-0.1,1.3-0.3,1.6c-0.2,0.3-0.7,0.5-1.4,0.7h-16.1l-1.7-1.7
		c0.1-4.3,0.2-11.1,0.3-20.3c0.1-9.2,0.2-16,0.3-20.5V221c0.3-0.9,0.6-1.4,0.9-1.4v0.2c1.8,0,4.6-0.1,8.3-0.2
		c3.8-0.1,6.6-0.2,8.5-0.2h6.6c0,0,0.1,0,0.1,0c0.5,0.2,0.7,0.4,0.8,0.6l0,0.3c0.9,2.5,1.9,5.1,2.9,7.9c1,2.7,2.1,6,3.4,9.8
		c1.3,3.8,2.3,6.5,2.8,7.9v-5.8c0.5-9.2,0.8-15.7,0.8-19.5c0-0.4,0.3-0.7,0.9-0.8c0.6-0.1,1.5-0.2,2.7-0.2H233.2z"/>
	<path id="XMLID_131_" d="M290.8,275.8c-3.1-0.1-5.8-0.4-8.3-0.8c-2.4-0.4-4.8-1.1-7.1-2c-2.3-0.9-4.2-2-5.7-3.4
		c-1.6-1.4-2.8-3.1-3.9-5.3c-1-2.1-1.7-4.6-1.9-7.4c0-0.5,0.3-0.8,0.8-0.9c0.2,0.1,0.4,0.1,0.8,0.1c2.2,0,5.4-0.1,9.8-0.2
		c4.4-0.1,7.7-0.2,9.8-0.2c0.5,0,1,0.2,1.3,0.5s0.6,0.8,0.8,1.3s0.4,1,0.7,1.5s0.7,0.9,1.4,1.3s1.5,0.5,2.6,0.5
		c1.3,0,2.4-0.4,3.4-1.1c1-0.7,1.5-1.7,1.5-2.9c0-0.8-0.4-1.5-1.3-2.2c-0.8-0.7-1.9-1.2-3.3-1.7s-2.7-0.8-3.9-1.1
		c-1.2-0.3-2.5-0.6-3.8-0.8c-1.3-0.2-2.1-0.4-2.3-0.4c-6.3-1.7-10.9-3.9-13.7-6.4c-2.8-2.6-4.2-6-4.2-10.5c0-3.1,0.6-5.9,1.7-8.4
		c1.1-2.5,2.6-4.5,4.5-6.1c1.8-1.6,4-2.9,6.6-3.9c2.5-1.1,5.1-1.8,7.7-2.2s5.2-0.6,8-0.6c7.3,0,13.2,1.4,17.5,4.1
		c1.6,1.6,2.8,2.8,3.5,3.6s1.5,1.8,2.1,2.9c0.7,1.1,1.2,2.2,1.4,3.2s0.5,2.4,0.6,3.9l-1.4,1.4c-5.3,0.2-11.3,0.3-18,0.3
		c-0.8,0-1.5-0.1-2-0.3c-0.5-0.2-0.8-0.4-1-0.7c-0.2-0.3-0.3-0.6-0.5-0.9c-0.2-0.3-0.3-0.6-0.5-0.9c-0.1-0.3-0.4-0.5-0.9-0.7
		c-0.5-0.2-1.1-0.3-1.8-0.3c-0.2,0-0.5,0-1,0.1c-0.5,0.1-1,0.2-1.6,0.4c-0.6,0.2-1.1,0.4-1.6,0.8c-0.4,0.4-0.7,0.8-0.7,1.2
		c0,0.6,0.3,1.1,0.9,1.6s1.2,0.8,1.9,1c0.7,0.2,1.5,0.4,2.4,0.7c1,0.2,1.6,0.4,1.8,0.5c5.7,1.4,9.1,2.3,10.2,2.7
		c5.7,1.8,9.7,4.2,12.1,7.1c2.2,2.7,3.3,6.1,3.3,10.2c0,2.5-0.3,4.7-1,6.8c-0.6,2-1.5,3.8-2.5,5.2c-1,1.4-2.3,2.7-3.9,3.8
		c-1.6,1.1-3.1,2-4.7,2.6c-1.6,0.7-3.4,1.2-5.4,1.6c-2,0.4-3.9,0.8-5.6,1C294.7,275.5,292.8,275.7,290.8,275.8z"/>
	<path id="XMLID_150_" d="M348.8,273.1c-4.3,0-8.3-0.7-11.7-2.2c-3.5-1.5-6.3-3.5-8.5-6.1c-2.2-2.6-3.9-5.6-5.1-9.1
		c-1.2-3.5-1.7-7.3-1.7-11.4v-0.5c0-0.2,0.1-0.6,0.1-1.3c0.1-0.7,0.1-1.2,0.1-1.4c0-0.2,0.1-0.6,0.1-1.3s0.1-1.1,0.2-1.4
		c0.1-0.3,0.1-0.7,0.2-1.3c0.1-0.5,0.2-1,0.3-1.3s0.3-0.8,0.4-1.3c0.2-0.5,0.3-1,0.5-1.4c0.2-0.4,0.4-0.9,0.6-1.4v0.1
		c1.2-2.5,2.7-4.7,4.5-6.5c1.8-1.8,3.8-3.2,6-4.2c2.2-1,4.4-1.7,6.7-2.2c2.3-0.5,4.7-0.7,7.3-0.7c3.2,0,6.1,0.3,8.8,1
		c2.6,0.6,4.8,1.5,6.5,2.6c1.7,1.1,3.2,2.4,4.4,3.9c1.2,1.5,2.1,3.1,2.8,4.7c0.6,1.6,1.1,3.4,1.3,5.2v3.4c-0.1,0.4-0.3,0.6-0.6,0.8
		s-0.7,0.3-1,0.4c-0.4,0-0.9,0.1-1.5,0.1h-16.7v-3.4c-0.1-0.9-0.5-1.7-1.1-2.4c-0.6-0.7-1.4-1.1-2.3-1.1c-0.8,0-1.5,0.2-2.1,0.5
		c-0.6,0.3-1.1,0.8-1.4,1.3c-0.4,0.6-0.6,1.2-0.9,2c-0.2,0.7-0.4,1.5-0.4,2.3c-0.1,0.8-0.1,1.7-0.2,2.5c0,0.8,0,1.6,0,2.4
		c0,0.5,0,0.9,0,1.1v4.4c0,0.7,0,1.3,0.1,1.9c0.1,0.6,0.2,1.4,0.5,2.4c0.2,1,0.7,1.7,1.3,2.3c0.6,0.6,1.4,0.9,2.3,0.9
		c1,0,1.7-0.4,2.2-1.3c0.5-0.8,0.9-1.8,1.2-3c0.3-1.2,0.7-2,1.1-2.4c1,0,2.6,0,4.7,0c2.1,0,3.6,0,4.7,0c0.7,0,1.8,0,3.2,0
		c1.4,0,2.5,0,3.2,0h2.9c0.9,0,1.3,0.5,1.4,1.6v1.5c-0.6,5.2-2.5,9.4-5.7,12.5c-3.3,3.2-7.3,5.2-12.2,6.1v0.2
		C353.6,273,351.4,273.1,348.8,273.1z"/>
	<path id="XMLID_152_" d="M378.3,219.7h7.3c2.2,0,5.8-0.1,10.7-0.2c4.9-0.1,8.6-0.2,11.1-0.2c2.1,0,4.1,0.1,5.9,0.4s3.6,0.7,5.4,1.3
		c1.8,0.6,3.3,1.4,4.6,2.4c1.3,1,2.3,2.2,3.1,3.8c0.8,1.6,1.2,3.4,1.2,5.4c0,2.8-0.7,5.3-2,7.3c-1.3,2-3.4,3.7-6.1,5.1
		c1.1,0.5,2,1.1,2.9,1.8c0.8,0.8,1.4,1.4,1.9,2s0.8,1.5,1.3,2.8c0.4,1.3,0.6,2.1,0.7,2.5c0.1,0.4,0.2,1.4,0.5,3
		c0.1,0.4,0.1,0.6,0.2,0.8c0.1,1,0.5,2.9,1.3,5.7s1.2,4.9,1.2,6.4c0,0.9-0.3,1.4-0.9,1.4c-1.6,0-3.9,0-7.1,0c-3.2,0-5.5,0-7.1,0
		c-0.6-0.1-1.6-0.1-2.8-0.1h-2.7c-0.5-0.2-1-1-1.5-2.4c-0.5-1.5-0.8-3.1-1.1-4.9l-0.9-7c-0.2-0.6-0.3-1-0.4-1.2
		c-0.1-0.2-0.3-0.5-0.5-0.9s-0.6-0.6-1-0.7c-0.4-0.1-0.9-0.2-1.5-0.2h-1.8v15.6c0,0.1,0,0.2,0,0.4c0,0.2,0,0.3,0,0.4
		c0,0.1,0,0.2,0,0.3c0,0.1,0,0.2,0,0.3c0,0.1-0.1,0.2-0.1,0.3c0,0.1-0.1,0.2-0.1,0.2s-0.1,0.1-0.2,0.2c-0.1,0.1-0.1,0.1-0.2,0.1
		c-0.1,0-0.2,0.1-0.3,0.1c-0.1,0-0.3,0-0.4,0h-20.5V219.7z M400.4,240.3c0.1,0.1,0.1,0.2,0.2,0.3c0.1,0.2,0.2,0.3,0.3,0.4
		c0.1,0.1,0.2,0.2,0.3,0.2c0.8,0,1.6-0.1,2.3-0.3c0.8-0.2,1.6-0.4,2.4-0.8s1.5-1,2-1.8c0.5-0.8,0.8-1.8,0.8-2.9
		c0-2.7-2.6-4.1-7.8-4.1c-0.5,0.1-0.8,0.3-0.8,0.6v1.5c0,0.8,0,1.9,0.1,3.4C400.3,238.4,400.4,239.6,400.4,240.3z"/>
	<path id="XMLID_155_" d="M432.7,223c0-1.6,0.1-2.5,0.2-2.7c0.2-0.4,0.6-0.5,1.1-0.5h0.9c0.4,0,0.7,0,0.9,0.1h2
		c2.6,0,6.6-0.1,11.9-0.2c5.3-0.1,9.3-0.2,12-0.2h10.4c0.7,0.1,1,0.4,1,1v13c0,0.2-0.1,0.3-0.1,0.4c-0.1,0.1-0.1,0.2-0.2,0.2
		s-0.2,0.1-0.4,0.3c-0.2,0.1-0.4,0.3-0.4,0.3H454v4.8h1.7c1.5,0,3.8-0.1,6.9-0.2c3.1-0.1,5.5-0.2,7.1-0.2c0.7,0,1.2,0.1,1.5,0.4
		c0.3,0.3,0.4,0.7,0.4,1.2c0,0.1,0,0.4-0.1,0.7c-0.1,0.3-0.1,0.5-0.1,0.7v1.5c0,0.1,0,0.3,0,0.6c0,0.3,0,0.6,0,0.8v1.1
		c0,0.6,0,1.1,0.1,1.7c0.1,0.6,0.1,1.1,0.1,1.5v1c-0.1,0.3-0.2,0.5-0.3,0.6c-0.1,0.1-0.2,0.2-0.4,0.2v-0.1c-1,0-2.6,0.1-5,0.2
		c-2.4,0.1-4.2,0.2-5.6,0.2h-6.3v5c0.2,0,0.5,0,0.9,0c0.4,0,0.7,0,0.9,0c1.2,0,2.9,0,5.2-0.1c2.3-0.1,3.9-0.1,5-0.1h5
		c1.4,0,2.2,0.2,2.6,0.5c0.1,0.2,0.2,0.3,0.3,0.5v12.5c0,0.5-0.1,1-0.3,1.3c-0.2,0.3-0.6,0.4-1.2,0.5h-38.7l-1.2-1V223z"/>
	<path id="XMLID_157_" d="M478.3,223c0-1.6,0.1-2.5,0.2-2.7c0.2-0.4,0.6-0.5,1.1-0.5h0.9c0.4,0,0.7,0,0.9,0.1h2
		c2.6,0,6.6-0.1,11.9-0.2c5.3-0.1,9.3-0.2,12-0.2h10.4c0.7,0.1,1,0.4,1,1v13c0,0.2-0.1,0.3-0.1,0.4c-0.1,0.1-0.1,0.2-0.2,0.2
		s-0.2,0.1-0.4,0.3c-0.2,0.1-0.4,0.3-0.4,0.3h-18.1v4.8h1.7c1.5,0,3.8-0.1,6.9-0.2c3.1-0.1,5.5-0.2,7.1-0.2c0.7,0,1.2,0.1,1.5,0.4
		c0.3,0.3,0.4,0.7,0.4,1.2c0,0.1,0,0.4-0.1,0.7c-0.1,0.3-0.1,0.5-0.1,0.7v1.5c0,0.1,0,0.3,0,0.6c0,0.3,0,0.6,0,0.8v1.1
		c0,0.6,0,1.1,0.1,1.7c0.1,0.6,0.1,1.1,0.1,1.5v1c-0.1,0.3-0.2,0.5-0.3,0.6c-0.1,0.1-0.2,0.2-0.4,0.2v-0.1c-1,0-2.6,0.1-5,0.2
		c-2.4,0.1-4.2,0.2-5.6,0.2h-6.3v5c0.2,0,0.5,0,0.9,0c0.4,0,0.7,0,0.9,0c1.2,0,2.9,0,5.2-0.1c2.3-0.1,3.9-0.1,5-0.1h5
		c1.4,0,2.2,0.2,2.6,0.5c0.1,0.2,0.2,0.3,0.3,0.5v12.5c0,0.5-0.1,1-0.3,1.3c-0.2,0.3-0.6,0.4-1.2,0.5h-38.7l-1.2-1V223z"/>
	<path id="XMLID_159_" d="M575.8,219.7c0.3,0.1,0.6,0.6,0.7,1.3c0.2,0.8,0.3,1.8,0.3,3c0,1.2,0,2.3,0,3.4c0,1.1-0.1,2.2-0.1,3.4
		c0,1.1-0.1,1.9-0.1,2.1c-0.1,1-0.1,2.5-0.1,4.4v4.1c0,1.8,0,4.3,0.1,7.5c0.1,3.2,0.1,5.5,0.1,7v14.2c-0.1,0.9-0.8,1.3-2.2,1.3
		h-21.9c-0.5-0.1-1.1-1.2-1.8-3.3c-0.5-1.4-1.3-3.6-2.5-6.8c-1.2-3.2-2.2-5.9-3-8.3c-0.8-2.4-1.6-4.7-2.3-6.9V246v0.2
		c-0.1,1.7-0.2,4.3-0.2,7.7c-0.1,3.4-0.2,5.9-0.2,7.6v8c0,0.8-0.1,1.3-0.3,1.6c-0.2,0.3-0.7,0.5-1.4,0.7h-16.1l-1.7-1.7
		c0.1-4.3,0.2-11.1,0.3-20.3c0.1-9.2,0.2-16,0.3-20.5V221c0.3-0.9,0.6-1.4,0.9-1.4v0.2c1.8,0,4.6-0.1,8.3-0.2
		c3.8-0.1,6.6-0.2,8.5-0.2h6.6c0,0,0.1,0,0.1,0c0.5,0.2,0.7,0.4,0.8,0.6l0,0.3c0.9,2.5,1.9,5.1,2.9,7.9c1,2.7,2.1,6,3.4,9.8
		c1.3,3.8,2.3,6.5,2.8,7.9v-5.8c0.5-9.2,0.8-15.7,0.8-19.5c0-0.4,0.3-0.7,0.9-0.8c0.6-0.1,1.5-0.2,2.7-0.2H575.8z"/>
</g>
<g id="XMLID_54_">
	<path id="XMLID_5_" d="M9.6,15.2c0.3-1,0.6-2.1,0.9-3.2s0.8-2.4,1.3-3.9s0.9-2.5,1-3.1C12.9,5,13,4.9,13,4.9h1.1c0.3,0,0.7,0,1.2,0
		s0.9,0,1.2,0h1.1c0.1,0,0.1,0,0.2,0s0.1,0,0.2,0s0.1,0,0.2,0s0.1,0,0.1,0.1s0,0.1,0,0.1l3.2,10c0,0.1,0,0.2-0.1,0.2
		s-0.2,0.1-0.4,0.1h-0.6c-0.2,0-0.5,0-0.8,0s-0.6,0-0.8,0c-0.1,0-0.2,0-0.3,0s-0.3,0-0.4,0s-0.2,0-0.4,0s-0.3,0-0.3-0.1
		s-0.1-0.1-0.2-0.2v-0.5c0-0.2-0.1-0.4-0.2-0.6s-0.2-0.3-0.4-0.3h-2.4l-0.4,1.4c-0.1,0.1-0.3,0.2-0.8,0.2h-0.5c-0.2,0-0.5,0-0.9,0
		s-0.7,0-0.9,0h-0.2c-0.1,0-0.2,0-0.3,0s-0.3,0-0.4,0C9.8,15.4,9.7,15.4,9.6,15.2z M14.3,11.1l0.2,0.3H15c0.4,0,0.7,0,1-0.1
		c0.3,0,0.5-0.1,0.5-0.2l-0.9-3.9c-0.1,0-0.2,0.2-0.3,0.5S15,8.3,14.9,8.7L14.3,11.1z"/>
	<path id="XMLID_8_" d="M21.7,7.4c0-0.1,0-0.4,0-0.8c0-0.5,0-0.8,0.1-0.9h3.7v5.7c0,0.6,0.2,0.9,0.5,0.9c0.1,0,0.3-0.1,0.4-0.2
		s0.1-0.3,0.1-0.5v-1c0-2,0-3,0-3c0-0.8,0-1.4,0-1.7c0-0.1,0.1-0.2,0.2-0.3h3.8v1.1c-0.1,1.7-0.1,2.8-0.1,3.3v0.4c0,0.1,0,0.1,0,0.2
		s0,0.2,0,0.2c0,0.2,0,0.3,0,0.3v0.5c0,0.6-0.1,1.1-0.2,1.4v0c-0.1,0.3-0.4,0.6-0.6,0.9s-0.6,0.4-0.9,0.6S28,14.9,27.6,15
		s-0.8,0.1-1.2,0.1c-0.1,0-0.2,0-0.3,0H26c0,0-0.1,0.1-0.2,0.1v0c-0.1,0-0.4,0-0.9-0.1h-0.3c-0.3,0-0.6-0.1-0.8-0.2
		s-0.5-0.2-0.8-0.4s-0.5-0.4-0.7-0.6s-0.3-0.5-0.5-0.9s-0.2-0.7-0.2-1.1c0-0.2,0-0.6,0-1s0-0.8,0-1.1s0-0.7,0-1V8.5c0,0,0-0.1,0-0.1
		s0-0.1,0-0.1c0-0.1,0-0.2,0-0.3s0-0.2,0-0.3V7.4L21.7,7.4z"/>
	<path id="XMLID_10_" d="M40.8,14.3c0,0.2-0.3,0.3-0.9,0.5s-1.2,0.2-1.7,0.3s-1,0.1-1.4,0.1c-0.4,0-0.7,0-0.9,0s-0.6-0.1-0.9-0.1
		s-0.7-0.2-1-0.3s-0.6-0.3-0.9-0.6l-0.3-0.2c-0.1-0.1-0.2-0.1-0.2-0.2l-0.2-0.3c-0.5-0.9-0.8-1.9-0.8-3c0-1.1,0.3-2.1,0.9-2.9
		l0.2-0.2V7.1v0c0.8-1,2.2-1.6,4.1-1.6c0.3,0,0.6,0,0.9,0.1s0.7,0.1,1,0.2s0.7,0.3,1,0.5S40,6.7,40.1,7c0.1,0.1,0.2,0.3,0.2,0.4
		s0.1,0.4,0.1,0.6s0.1,0.4,0.1,0.6c0,0.2-0.1,0.2-0.4,0.2h-0.6c-0.1,0-0.4,0-0.8,0s-0.7,0-0.9,0h-0.8c-0.1,0-0.1-0.1-0.2-0.2
		s-0.1-0.2-0.1-0.2v0c-0.1-0.2-0.3-0.3-0.5-0.3c-0.2,0-0.3,0-0.5,0.1s-0.2,0.2-0.3,0.3s-0.1,0.3-0.2,0.4s-0.1,0.3-0.1,0.5
		s0,0.3,0,0.5c0,0.1,0,0.2,0,0.3s0,0.2,0,0.2v0.5c0,0.2,0,0.3,0,0.4s0,0.3,0.1,0.4s0.1,0.3,0.2,0.4s0.2,0.2,0.4,0.3s0.3,0.1,0.6,0.1
		c0.4,0,0.8,0,1.1-0.1v-0.3c0,0,0-0.1,0-0.1s0-0.1,0-0.1c0,0,0,0,0-0.1s0-0.1,0-0.1h-0.3c0,0-0.1,0-0.1,0s-0.1,0-0.1,0h-0.6
		l-0.2-0.3c0,0,0-0.1,0-0.2v-0.4c0-0.1,0-0.1,0-0.3s0-0.2,0-0.3V10c0,0,0,0,0-0.1s0-0.1,0-0.1V9.8c0-0.1,0-0.1,0-0.2
		s0.1-0.1,0.2-0.2h0.6c0,0,0.1,0,0.2,0h0.6c0.5,0,0.8,0,1,0h0.7c0.7,0,1.1,0.1,1.2,0.2c0,0.4,0,1.1,0,2s0,1.6,0,2V14.3z"/>
	<path id="XMLID_12_" d="M41.9,7.4c0-0.1,0-0.4,0-0.8c0-0.5,0-0.8,0.1-0.9h3.7v5.7c0,0.6,0.2,0.9,0.5,0.9c0.1,0,0.3-0.1,0.4-0.2
		s0.1-0.3,0.1-0.5v-1c0-2,0-3,0-3c0-0.8,0-1.4,0-1.7c0-0.1,0.1-0.2,0.2-0.3h3.8v1.1c-0.1,1.7-0.1,2.8-0.1,3.3v0.4c0,0.1,0,0.1,0,0.2
		s0,0.2,0,0.2c0,0.2,0,0.3,0,0.3v0.5c0,0.6-0.1,1.1-0.2,1.4v0c-0.1,0.3-0.4,0.6-0.6,0.9s-0.6,0.4-0.9,0.6s-0.7,0.2-1.1,0.3
		s-0.8,0.1-1.2,0.1c-0.1,0-0.2,0-0.3,0h-0.2c0,0-0.1,0.1-0.2,0.1v0c-0.1,0-0.4,0-0.9-0.1h-0.3c-0.3,0-0.6-0.1-0.8-0.2
		s-0.5-0.2-0.8-0.4s-0.5-0.4-0.7-0.6s-0.3-0.5-0.5-0.9s-0.2-0.7-0.2-1.1c0-0.2,0-0.6,0-1s0-0.8,0-1.1s0-0.7,0-1V8.5c0,0,0-0.1,0-0.1
		s0-0.1,0-0.1c0-0.1,0-0.2,0-0.3s0-0.2,0-0.3V7.4L41.9,7.4z"/>
	<path id="XMLID_14_" d="M57.1,8.5c-0.1,0-0.2,0-0.3-0.1s-0.1-0.1-0.2-0.1s-0.1-0.1-0.2-0.2S56.3,8,56.2,8s-0.3-0.1-0.5-0.1
		c-0.1,0-0.1,0-0.2,0S55.4,8,55.3,8s-0.2,0.1-0.2,0.2c0,0.1,0,0.2,0.1,0.2s0.2,0.1,0.3,0.1s0.2,0.1,0.4,0.1s0.2,0.1,0.3,0.1l1,0.2
		c0.3,0.1,0.6,0.2,0.8,0.3s0.5,0.2,0.8,0.4s0.5,0.3,0.7,0.5s0.3,0.4,0.4,0.7s0.2,0.6,0.2,1c0,0.4-0.1,0.8-0.2,1.1v0
		c-0.1,0.3-0.2,0.6-0.4,0.8s-0.4,0.4-0.6,0.6s-0.5,0.3-0.7,0.4s-0.5,0.2-0.8,0.2s-0.6,0.1-0.8,0.1s-0.5,0.1-0.9,0.1
		c-1.4-0.1-2.4-0.3-2.9-0.7v-0.1c-0.4-0.3-0.7-0.6-0.9-1s-0.3-0.8-0.4-1.2c0-0.1,0.1-0.2,0.2-0.2c0,0,0.1,0,0.1,0s0.1,0,0.1,0h0.7
		c0.1,0,0.2,0,0.3,0H53c0,0,0.1,0,0.1,0c0.3,0,0.7,0,1.4,0h0.3c0.1,0,0.2,0,0.2,0.1s0.1,0.1,0.1,0.2s0.1,0.2,0.1,0.2
		s0.1,0.1,0.2,0.2s0.2,0.1,0.4,0.1c0.2,0,0.3,0,0.5-0.1s0.2-0.2,0.2-0.4c0-0.1,0-0.2-0.1-0.2s-0.2-0.1-0.3-0.2s-0.3-0.1-0.4-0.1
		s-0.3-0.1-0.5-0.1s-0.3-0.1-0.4-0.1h-0.4c-1-0.3-1.7-0.7-2.1-1.1s-0.7-1-0.7-1.7c0-0.5,0.1-0.9,0.3-1.2s0.4-0.7,0.7-0.9
		s0.6-0.4,1-0.6s0.8-0.3,1.2-0.3s0.8-0.1,1.2-0.1c0.7,0,1.4,0.1,2.1,0.4s1.1,0.6,1.4,1c0.1,0.1,0.2,0.3,0.3,0.5s0.1,0.3,0.1,0.4
		s0,0.3,0.1,0.5l-0.2,0.3h-1.2c-0.1,0-0.3,0-0.6,0S57.3,8.5,57.1,8.5z"/>
	<path id="XMLID_16_" d="M60.1,8.3V5.9h8c0.1,0,0.1,0,0.1,0.1s0,0.1,0,0.2v2.2c0,0.1-0.1,0.2-0.2,0.2h-1.9v6.3c0,0,0,0,0,0s0,0,0,0
		s0,0,0,0s0,0,0,0s0,0,0,0s0,0,0,0s0,0,0,0s0,0,0,0s0,0,0,0s0,0-0.1,0h-0.4c-0.6,0-0.9,0-0.9-0.1c0,0-0.1,0-0.2,0s-0.1,0-0.2,0h-0.5
		c-0.1,0-0.3,0-0.4,0s-0.3,0-0.5,0h-0.4l-0.3-0.2v-1.5c0-0.3,0-0.8,0.1-1.7s0.1-1.5,0.1-2.1V9.4c0,0,0-0.1,0-0.2s0-0.1,0-0.2
		c0,0,0-0.1,0-0.2s0-0.2,0-0.2h-1.7c-0.1,0-0.2,0-0.3-0.1S60.1,8.4,60.1,8.3z"/>
	<path id="XMLID_18_" d="M72.9,12.5c0-0.1,0.1-0.2,0.2-0.2s0.3,0,0.6,0h1.1c0.2,0,0.5,0,0.9,0s0.7,0,0.9,0c0.1,0,0.1,0.1,0.2,0.1
		s0.1,0.2,0.1,0.2s0.1,0.2,0.1,0.2s0.1,0.1,0.3,0.1c0.5,0,0.7-0.4,0.7-1.1c0-0.2,0-0.3,0-0.4s0-0.2-0.1-0.4s-0.1-0.2-0.2-0.3
		s-0.2-0.1-0.4-0.1c-0.2,0-0.3,0-0.4,0.1s-0.1,0.2-0.1,0.3s0,0.2-0.1,0.3s-0.1,0.1-0.2,0.1h-3c-0.1-0.2-0.2-0.5-0.2-0.8V5.5
		c0-0.1,0-0.2,0-0.3s0-0.1,0-0.2s0.1-0.1,0.1-0.2h7.5c0.1,0,0.2,0,0.3,0.1s0.1,0.1,0.2,0.2v1.3c0,0,0,0.1,0,0.1c0,0.5,0,0.8,0,0.9
		s-0.1,0.1-0.2,0.1c-1,0-2.4,0-4.3,0c0,0.1,0,0.3,0,0.6s0,0.5,0,0.6c0.2-0.2,0.5-0.3,0.9-0.4s0.7-0.1,1.1-0.1c1,0,1.8,0.3,2.4,0.9
		s0.9,1.4,0.9,2.4c0,0.6-0.1,1.1-0.3,1.6s-0.4,0.8-0.7,1.1s-0.6,0.5-1,0.7s-0.8,0.3-1.2,0.4s-0.9,0.1-1.3,0.1c-0.3,0-0.6,0-0.9,0
		s-0.5-0.1-0.8-0.1s-0.6-0.1-0.8-0.2s-0.5-0.2-0.7-0.4s-0.4-0.3-0.6-0.6s-0.3-0.5-0.4-0.8S72.9,12.9,72.9,12.5z"/>
	<path id="XMLID_20_" d="M82.4,8.3V5.9h8c0.1,0,0.1,0,0.1,0.1s0,0.1,0,0.2v2.2c0,0.1-0.1,0.2-0.2,0.2h-1.9v6.3c0,0,0,0,0,0s0,0,0,0
		s0,0,0,0s0,0,0,0s0,0,0,0s0,0,0,0s0,0,0,0s0,0,0,0s0,0,0,0s0,0-0.1,0h-0.4c-0.6,0-0.9,0-0.9-0.1c0,0-0.1,0-0.2,0s-0.1,0-0.2,0h-0.5
		c-0.1,0-0.3,0-0.4,0s-0.3,0-0.5,0h-0.4l-0.3-0.2v-1.5c0-0.3,0-0.8,0.1-1.7s0.1-1.5,0.1-2.1V9.4c0,0,0-0.1,0-0.2s0-0.1,0-0.2
		c0,0,0-0.1,0-0.2s0-0.2,0-0.2h-1.7c-0.1,0-0.2,0-0.3-0.1S82.4,8.4,82.4,8.3z"/>
	<path id="XMLID_22_" d="M99.9,6.1v8.4c0,0.1,0,0.2,0,0.2s0,0.1-0.1,0.2S99.7,15,99.6,15h-3.5v-0.2c0,0,0,0-0.1-0.1
		s-0.1-0.1-0.1-0.1v-2.8c0-0.1,0-0.2,0-0.2s-0.1,0-0.2,0h-0.5c-0.1,0-0.2,0-0.4,0v3c0,0.1-0.1,0.1-0.1,0.2s-0.1,0-0.2,0h-0.3
		c-0.2,0-0.6,0-1,0s-0.8,0-1,0h-0.9c-0.2,0-0.3-0.1-0.3-0.3L91,6c0,0,0,0,0-0.1s0,0,0.1-0.1s0.1,0,0.1-0.1h3.7v2.9h1.2v-3h3.5
		c0.1,0,0.2,0,0.2,0.1S99.9,6,99.9,6.1z"/>
	<path id="XMLID_24_" d="M108.5,13.5c0,0.1-0.1,0.2-0.1,0.4s-0.1,0.3-0.1,0.4s-0.1,0.2-0.1,0.3s-0.1,0.2-0.3,0.2s-0.3,0.1-0.5,0.1
		h-3v-0.2c0.2-0.7,0.6-1.8,1.1-3.3s0.8-2.6,1.1-3.4v0c0.2-0.4,0.4-1.1,0.7-2.1c0,0,0,0,0,0c0-0.1,0.1-0.1,0.1-0.2l3.7,0
		c0.6,0,1,0.1,1,0.2v0.2c0,0,0.1,0.1,0.2,0.3c0.4,1.4,0.8,2.3,1,3v0.1c0,0.1,0.1,0.3,0.1,0.5s0.1,0.3,0.2,0.5s0.2,0.3,0.2,0.5l0.3,1
		c0.2,0.5,0.4,1.2,0.7,2.1v0v0.1c0,0.1,0,0.2,0.1,0.3s0.1,0.2,0.1,0.2c0,0.1,0,0.2-0.1,0.2s-0.2,0.1-0.3,0.1h-3.2
		c-0.1,0-0.1,0-0.2,0s-0.1,0-0.1,0s-0.1,0-0.1-0.1s0-0.1,0-0.1l-0.3-1c0-0.1,0-0.1-0.1-0.1s-0.1,0-0.2,0H108.5z M110.4,10.3
		c0-0.1-0.1-0.3-0.1-0.6s-0.1-0.5-0.2-0.7s-0.1-0.4-0.2-0.6V8c0-0.1-0.1-0.2-0.2-0.2v0c-0.1,0-0.2,0.3-0.3,0.9v0.3
		c0,0,0,0.1-0.1,0.1s0,0,0,0c-0.2,0.7-0.3,1.2-0.4,1.6c0,0,0,0.1,0,0.2s0,0.2,0,0.2h1.7c0-0.1,0-0.3-0.1-0.6v-0.2
		C110.4,10.4,110.4,10.4,110.4,10.3C110.4,10.3,110.4,10.3,110.4,10.3z"/>
	<path id="XMLID_27_" d="M114.8,8.3V5.9h8c0.1,0,0.1,0,0.1,0.1s0,0.1,0,0.2v2.2c0,0.1-0.1,0.2-0.2,0.2h-1.9v6.3c0,0,0,0,0,0s0,0,0,0
		s0,0,0,0s0,0,0,0s0,0,0,0s0,0,0,0s0,0,0,0s0,0,0,0s0,0,0,0s0,0-0.1,0h-0.4c-0.6,0-0.9,0-0.9-0.1c0,0-0.1,0-0.2,0s-0.1,0-0.2,0h-0.5
		c-0.1,0-0.3,0-0.4,0s-0.3,0-0.5,0h-0.4l-0.3-0.2v-1.5c0-0.3,0-0.8,0.1-1.7S117,10,117,9.5V9.4c0,0,0-0.1,0-0.2s0-0.1,0-0.2
		c0,0,0-0.1,0-0.2s0-0.2,0-0.2h-1.7c-0.1,0-0.2,0-0.3-0.1S114.8,8.4,114.8,8.3z"/>
	<path id="XMLID_29_" d="M132.5,15.6c-1.7,0-3-0.5-3.8-1.4c-0.8-0.9-1.3-2.3-1.3-4.1c0-1.1,0.2-2,0.6-2.9c0.4-0.8,1-1.5,1.7-1.9
		s1.6-0.7,2.7-0.7c0.6,0,1.2,0.1,1.6,0.2s0.8,0.3,1.1,0.4s0.5,0.4,0.7,0.7s0.3,0.5,0.4,0.8s0.1,0.6,0.1,0.9c0,0.1-0.2,0.1-0.5,0.2
		s-0.7,0.1-1.2,0.1s-0.8,0-1.1,0s-0.4,0-0.6,0c-0.2,0-0.3,0-0.3-0.1V7.4c0-0.1-0.2-0.1-0.3-0.1c-0.7,0-1.1,0.6-1.1,1.8v0.1
		c0.4-0.5,1.1-0.7,2-0.7c1,0,1.8,0.3,2.5,0.9s1,1.4,1,2.3c0,0.5-0.1,1-0.3,1.5s-0.4,0.8-0.7,1.1s-0.6,0.5-1,0.7s-0.8,0.3-1.1,0.4
		S132.9,15.6,132.5,15.6z M131.2,12c0,0.4,0.1,0.7,0.3,1s0.5,0.4,0.8,0.4c0.2,0,0.4,0,0.6-0.1s0.3-0.2,0.4-0.4s0.1-0.3,0.2-0.5
		s0.1-0.3,0.1-0.5c0-0.4-0.1-0.8-0.3-1s-0.4-0.4-0.8-0.4c-0.2,0-0.4,0-0.6,0.1s-0.3,0.2-0.4,0.4s-0.1,0.3-0.2,0.5
		S131.2,11.8,131.2,12z"/>
	<path id="XMLID_32_" d="M137.8,14.9c0-0.7,0-1.6,0.1-2.5c0-0.1,0.5-0.2,1.4-0.2h0.6c0.1,0,0.1,0,0.2,0h0.5c0.5,0,0.8,0.1,0.8,0.2
		v2.8c-0.1,0.2-0.8,0.2-2.3,0.2H138l-0.2-0.3c0,0,0-0.1,0-0.1S137.8,14.9,137.8,14.9z M137.8,10.6v-0.2c0-0.1,0-0.1,0-0.3
		s0-0.2,0-0.3V9.4c0-1,0.1-1.5,0.2-1.5h2.6c0.5,0,0.8,0.1,0.8,0.2v2.6c0,0,0,0,0,0c0,0.1,0,0.1,0,0.2s0,0.1,0,0.1s-0.1,0.1-0.1,0.1
		H138l-0.2-0.2C137.8,10.7,137.8,10.6,137.8,10.6z"/>
	<path id="XMLID_35_" d="M147.2,15.6c-0.5,0-1,0-1.4-0.1s-0.8-0.2-1.1-0.4s-0.6-0.4-0.8-0.6s-0.4-0.5-0.6-0.8s-0.3-0.6-0.4-1
		s-0.2-0.8-0.2-1.1s-0.1-0.8-0.1-1.3c0-3.5,1.6-5.3,4.8-5.6c0.6,0,1.1,0.1,1.5,0.2s0.8,0.3,1.2,0.5s0.6,0.5,0.9,0.8s0.5,0.6,0.6,0.9
		s0.3,0.7,0.4,1.1s0.2,0.8,0.2,1.1s0.1,0.7,0.1,1.1c0,0.9-0.1,1.6-0.4,2.3s-0.6,1.2-1,1.7s-1,0.8-1.5,1S147.9,15.6,147.2,15.6z
		 M146.1,10.5c0,0.2,0,0.3,0,0.5s0,0.3,0,0.5s0,0.4,0.1,0.5s0.1,0.3,0.1,0.5s0.1,0.3,0.2,0.4s0.2,0.2,0.3,0.3s0.2,0.1,0.4,0.1
		c0.2,0,0.3,0,0.4-0.1s0.2-0.2,0.3-0.2s0.1-0.2,0.2-0.4s0.1-0.3,0.1-0.4s0-0.3,0.1-0.5s0-0.4,0-0.5s0-0.3,0-0.5c0,0,0-0.1,0-0.1
		c0-0.2,0-0.4,0-0.7c0,0,0-0.1,0-0.3s0-0.3,0-0.4s0-0.2,0-0.4s0-0.3-0.1-0.5s-0.1-0.3-0.1-0.4s-0.1-0.3-0.2-0.4s-0.2-0.2-0.3-0.2
		s-0.2-0.1-0.4-0.1c-0.1,0-0.2,0-0.3,0s-0.2,0.1-0.3,0.2s-0.1,0.2-0.2,0.2s-0.1,0.2-0.2,0.3s-0.1,0.2-0.1,0.4s-0.1,0.2-0.1,0.4
		s0,0.3,0,0.4s0,0.3,0,0.5s0,0.3,0,0.4s0,0.2,0,0.4C146.1,10.4,146.1,10.4,146.1,10.5z"/>
	<path id="XMLID_38_" d="M157.2,15.6c-0.5,0-1,0-1.4-0.1s-0.8-0.2-1.1-0.4s-0.6-0.4-0.8-0.6s-0.4-0.5-0.6-0.8s-0.3-0.6-0.4-1
		s-0.2-0.8-0.2-1.1s-0.1-0.8-0.1-1.3c0-3.5,1.6-5.3,4.8-5.6c0.6,0,1.1,0.1,1.5,0.2s0.8,0.3,1.2,0.5s0.6,0.5,0.9,0.8s0.5,0.6,0.6,0.9
		s0.3,0.7,0.4,1.1s0.2,0.8,0.2,1.1s0.1,0.7,0.1,1.1c0,0.9-0.1,1.6-0.4,2.3s-0.6,1.2-1,1.7s-1,0.8-1.5,1S157.8,15.6,157.2,15.6z
		 M156.1,10.5c0,0.2,0,0.3,0,0.5s0,0.3,0,0.5s0,0.4,0.1,0.5s0.1,0.3,0.1,0.5s0.1,0.3,0.2,0.4s0.2,0.2,0.3,0.3s0.2,0.1,0.4,0.1
		c0.2,0,0.3,0,0.4-0.1s0.2-0.2,0.3-0.2s0.1-0.2,0.2-0.4s0.1-0.3,0.1-0.4s0-0.3,0.1-0.5s0-0.4,0-0.5s0-0.3,0-0.5c0,0,0-0.1,0-0.1
		c0-0.2,0-0.4,0-0.7c0,0,0-0.1,0-0.3s0-0.3,0-0.4s0-0.2,0-0.4s0-0.3-0.1-0.5s-0.1-0.3-0.1-0.4s-0.1-0.3-0.2-0.4s-0.2-0.2-0.3-0.2
		s-0.2-0.1-0.4-0.1c-0.1,0-0.2,0-0.3,0s-0.2,0.1-0.3,0.2s-0.1,0.2-0.2,0.2s-0.1,0.2-0.2,0.3s-0.1,0.2-0.1,0.4s-0.1,0.2-0.1,0.4
		s0,0.3,0,0.4s0,0.3,0,0.5s0,0.3,0,0.4s0,0.2,0,0.4C156.1,10.4,156.1,10.4,156.1,10.5z"/>
	<path id="XMLID_41_" d="M167.2,15l-0.1-4.6c0-0.3,0-0.7,0-1.1s0-0.8,0-1.1s0-0.7,0-1.1s0-0.8,0-1.1c0-0.1,0-0.1,0.1-0.2
		s0.1,0,0.2,0s0.2,0,0.3,0h4.9c0.3,0,0.6,0,0.8,0.1s0.6,0.2,0.8,0.3s0.5,0.3,0.7,0.6s0.4,0.5,0.5,0.8s0.2,0.7,0.2,1.1
		c0,0.5-0.1,1-0.3,1.4s-0.6,0.8-1,1.2c-0.6,0.3-1.2,0.5-2,0.5h-0.2c-0.2,0-0.4,0.1-0.5,0.1h-0.5c0,0-0.1,0-0.1,0
		c0,1.2,0,2.1,0.1,2.7c0,0.1-0.1,0.2-0.1,0.2s-0.2,0-0.4,0H167.2z M170.6,9.7v0.1c0,0,0,0,0.1,0s0.1,0,0.1,0.1v0c0,0,0,0,0,0
		c0,0,0,0,0.1,0c0.4,0,0.7-0.1,1-0.3s0.4-0.5,0.4-0.8c0-0.2,0-0.3-0.1-0.4s-0.1-0.2-0.2-0.3S171.8,8,171.7,8s-0.3-0.1-0.4-0.1
		s-0.3,0-0.5,0c0,0,0,0-0.1,0s-0.1,0-0.1,0.1v0.7C170.7,9.1,170.6,9.5,170.6,9.7z"/>
	<path id="XMLID_44_" d="M181.5,5.9c0,0,0.1,0,0.2,0s0.1,0,0.1,0l0.8,4.2l1.1-4.2h4.8c0.1,0,0.2,0.3,0.2,0.8v8.1
		c0,0.1,0,0.1-0.1,0.2s-0.1,0.1-0.1,0.1s-0.1,0-0.1,0s-0.1,0-0.2,0c-0.3,0-0.7,0-1.3,0s-1,0-1.3,0c-0.2-0.1-0.3-0.7-0.3-1.6
		c0-0.2,0-0.5,0-0.9s0-0.6,0-0.8v-0.6c0,0,0-0.1,0-0.2s0-0.1,0-0.2c0-0.2,0-0.4,0-0.8v0.5c-0.1,0.3-0.2,0.7-0.4,1.2s-0.3,1-0.4,1.2
		l-0.4,1.8c-0.1,0.1-0.3,0.2-0.7,0.2c-0.2,0-0.4,0-0.7,0s-0.5,0-0.7,0c0,0-0.1,0-0.2,0s-0.2,0-0.2,0c-0.1,0-0.3,0-0.3-0.1
		s-0.1-0.1-0.1-0.2c-0.4-1.9-0.7-3.2-0.9-4l-0.2-1.2c-0.1,1.3-0.1,2.7-0.1,4.2v1.2h-3.2c0,0,0-0.1,0-0.2s0-0.1,0-0.2
		c0-0.9-0.1-2-0.1-3.2c0-0.4,0-0.9,0-1.5s0-1.1,0-1.3V6c0-0.1,0-0.1,0-0.1s0.1-0.1,0.1-0.1h0.6c0.2,0,0.4,0,0.5,0c0.5,0,1,0,1.7,0.1
		s1.1,0.1,1.2,0.1H181.5z"/>
	<path id="XMLID_46_" d="M193.8,12.8v-1.9c0-0.5,0.1-0.7,0.2-0.7c1.7,0,3,0,3.9,0c0.2,0,0.4,0,0.5,0h0.5c0.1,0,0.2,0.3,0.2,0.9v1.5
		c0,0.2-0.1,0.2-0.2,0.2c-0.6,0-1.4,0-2.4,0.1s-1.9,0.1-2.4,0.1v-0.1H193.8z"/>
	<path id="XMLID_48_" d="M204.3,5.2c0-0.1,0-0.1,0.1-0.1s0.1-0.1,0.2-0.1s0.2,0,0.3-0.1s0.2,0,0.4,0s0.3,0,0.4,0s0.2,0,0.3,0
		s0.2,0,0.2,0h0.8c0.2,0,0.4,0,0.6,0s0.5,0,0.6,0c2.2,0,3.7,0.4,4.7,1.1l0.2,0.2c0.1,0.1,0.2,0.2,0.3,0.3s0.2,0.3,0.4,0.5
		s0.3,0.5,0.4,0.8s0.2,0.6,0.3,1s0.1,0.8,0.1,1.2c0,0.7-0.1,1.3-0.3,1.9s-0.4,1.1-0.7,1.5s-0.7,0.8-1.1,1.1s-0.9,0.5-1.4,0.7
		s-1,0.2-1.5,0.2h-0.2c-0.2,0-0.5,0-0.9,0s-0.7,0-0.9,0c-1.1,0-2.2,0-3.1,0.1c-0.1-0.2-0.2-0.4-0.2-0.6V5.2z M208.4,13
		c0.3,0,0.5,0,0.7-0.1s0.4-0.1,0.6-0.2s0.3-0.2,0.4-0.4s0.2-0.3,0.3-0.5s0.1-0.4,0.2-0.6s0.1-0.4,0.1-0.6s0-0.4,0-0.6V9.6
		c0-0.8-0.2-1.5-0.5-1.9s-0.9-0.6-1.7-0.6c0,0.1-0.1,0.1-0.1,0.2s-0.1,0.2-0.1,0.2v0.3c0,0.1,0,0.2,0,0.5
		C208.1,11.5,208.1,13,208.4,13z"/>
	<path id="XMLID_51_" d="M215,10.3l0-0.2c0.1-0.7,0.2-1.3,0.2-1.6c0.2-0.7,0.5-1.3,1-1.7l0.2-0.2c0.2-0.3,0.6-0.5,1-0.7h0.3
		c0.4-0.2,1.2-0.4,2.2-0.5c0.3,0,0.5,0,0.8,0.1s0.6,0.1,0.9,0.2s0.7,0.2,1,0.4s0.6,0.4,0.8,0.7v0.2c0.7,0.9,1.1,2,1.1,3.1
		c0,1.3-0.3,2.4-0.9,3.2l-0.3,0.3c-0.2,0.3-0.5,0.5-0.8,0.7s-0.6,0.3-1,0.4s-0.7,0.2-1,0.2s-0.6,0.1-1,0.1c-0.5,0-0.9-0.1-1.3-0.2
		s-0.8-0.3-1.2-0.5s-0.7-0.5-1-0.9s-0.5-0.8-0.7-1.3s-0.3-1-0.3-1.6V10.3z M218.8,10.3c0,1.6,0.3,2.4,0.9,2.4c0.2,0,0.3,0,0.4-0.1
		s0.2-0.2,0.3-0.3s0.1-0.3,0.2-0.4s0.1-0.3,0.1-0.5s0-0.4,0-0.5s0-0.3,0-0.6v-0.2c0-0.2,0-0.5,0-0.7s-0.1-0.4-0.1-0.7
		s-0.2-0.4-0.3-0.5S220,8,219.8,8c-0.7,0-1,0.7-1,2V10.3z"/>
	<path id="XMLID_55_" d="M234.5,5.8c0.1,0,0.1,0.1,0.1,0.2s0,0.3,0.1,0.5s0,0.4,0,0.6s0,0.4,0,0.6s0,0.3,0,0.4c0,0.2,0,0.4,0,0.8
		v0.7c0,0.3,0,0.8,0,1.3s0,1,0,1.2v2.5c0,0.2-0.1,0.2-0.4,0.2h-3.8c-0.1,0-0.2-0.2-0.3-0.6c-0.1-0.2-0.2-0.6-0.4-1.2s-0.4-1-0.5-1.5
		s-0.3-0.8-0.4-1.2v0v0c0,0.3,0,0.7,0,1.3s0,1,0,1.3v1.4c0,0.1,0,0.2,0,0.3s-0.1,0.1-0.3,0.1h-2.8l-0.3-0.3c0-0.8,0-1.9,0.1-3.6
		s0-2.8,0.1-3.6V6c0-0.2,0.1-0.2,0.2-0.2v0c0.3,0,0.8,0,1.5,0s1.2,0,1.5,0h1.1c0,0,0,0,0,0c0.1,0,0.1,0.1,0.1,0.1l0,0
		c0.2,0.4,0.3,0.9,0.5,1.4s0.4,1,0.6,1.7s0.4,1.1,0.5,1.4v-1c0.1-1.6,0.1-2.7,0.1-3.4c0-0.1,0.1-0.1,0.2-0.1s0.3,0,0.5,0H234.5z"/>
	<path id="XMLID_57_" d="M235.5,9.4l0.7-2.9c0-0.1,0-0.1,0.1-0.2c0-0.2,0.1-0.3,0.1-0.4s0.1-0.2,0.1-0.3s0.1-0.2,0.1-0.3
		s0.1-0.1,0.1-0.2s0.1-0.1,0.2-0.1s0.1,0,0.2,0h2c0.8,0,1.1,0.1,1.1,0.2v0.1c0,0,0,0,0,0c-0.6,1.7-1,2.7-1.1,3.1l-0.4,1
		c-0.1,0.1-0.5,0.2-1.4,0.2h-0.6c0,0-0.1,0-0.2,0s-0.1,0-0.2,0c-0.1,0-0.2,0-0.3,0h-0.3V9.4H235.5z"/>
	<path id="XMLID_59_" d="M240,8.3V5.9h8c0.1,0,0.1,0,0.1,0.1s0,0.1,0,0.2v2.2c0,0.1-0.1,0.2-0.2,0.2H246v6.3c0,0,0,0,0,0s0,0,0,0
		s0,0,0,0s0,0,0,0s0,0,0,0s0,0,0,0s0,0,0,0s0,0,0,0s0,0,0,0s0,0-0.1,0h-0.4c-0.6,0-0.9,0-0.9-0.1c0,0-0.1,0-0.2,0s-0.1,0-0.2,0h-0.5
		c-0.1,0-0.3,0-0.4,0s-0.3,0-0.5,0h-0.4l-0.3-0.2v-1.5c0-0.3,0-0.8,0.1-1.7s0.1-1.5,0.1-2.1V9.4c0,0,0-0.1,0-0.2s0-0.1,0-0.2
		c0,0,0-0.1,0-0.2s0-0.2,0-0.2h-1.7c-0.1,0-0.2,0-0.3-0.1S240,8.4,240,8.3z"/>
	<path id="XMLID_61_" d="M257.9,5.9c0,0,0.1,0,0.2,0s0.1,0,0.1,0L259,10l1.1-4.2h4.8c0.1,0,0.2,0.3,0.2,0.8v8.1c0,0.1,0,0.1-0.1,0.2
		s-0.1,0.1-0.1,0.1s-0.1,0-0.1,0s-0.1,0-0.2,0c-0.3,0-0.7,0-1.3,0s-1,0-1.3,0c-0.2-0.1-0.3-0.7-0.3-1.6c0-0.2,0-0.5,0-0.9
		s0-0.6,0-0.8v-0.6c0,0,0-0.1,0-0.2s0-0.1,0-0.2c0-0.2,0-0.4,0-0.8v0.5c-0.1,0.3-0.2,0.7-0.4,1.2s-0.3,1-0.4,1.2l-0.4,1.8
		c-0.1,0.1-0.3,0.2-0.7,0.2c-0.2,0-0.4,0-0.7,0s-0.5,0-0.7,0c0,0-0.1,0-0.2,0s-0.2,0-0.2,0c-0.1,0-0.3,0-0.3-0.1s-0.1-0.1-0.1-0.2
		c-0.4-1.9-0.7-3.2-0.9-4l-0.2-1.2c-0.1,1.3-0.1,2.7-0.1,4.2v1.2H253c0,0,0-0.1,0-0.2s0-0.1,0-0.2c0-0.9-0.1-2-0.1-3.2
		c0-0.4,0-0.9,0-1.5s0-1.1,0-1.3V6c0-0.1,0-0.1,0-0.1s0.1-0.1,0.1-0.1h0.6c0.2,0,0.4,0,0.5,0c0.5,0,1,0,1.7,0.1s1.1,0.1,1.2,0.1
		H257.9z"/>
	<path id="XMLID_63_" d="M266.3,15V6c0,0,0-0.1,0.1-0.1s0.1-0.1,0.1-0.1h3.7v8.9c0,0.1,0,0.2-0.1,0.2S270.1,15,270,15H266.3z"/>
	<path id="XMLID_65_" d="M276.8,8.5c-0.1,0-0.2,0-0.3-0.1s-0.1-0.1-0.2-0.1s-0.1-0.1-0.2-0.2S276,8,275.9,8s-0.3-0.1-0.5-0.1
		c-0.1,0-0.1,0-0.2,0S275,8,274.9,8s-0.2,0.1-0.2,0.2c0,0.1,0,0.2,0.1,0.2s0.2,0.1,0.3,0.1s0.2,0.1,0.4,0.1s0.2,0.1,0.3,0.1l1,0.2
		c0.3,0.1,0.6,0.2,0.8,0.3s0.5,0.2,0.8,0.4s0.5,0.3,0.7,0.5s0.3,0.4,0.4,0.7s0.2,0.6,0.2,1c0,0.4-0.1,0.8-0.2,1.1v0
		c-0.1,0.3-0.2,0.6-0.4,0.8s-0.4,0.4-0.6,0.6s-0.5,0.3-0.7,0.4s-0.5,0.2-0.8,0.2s-0.6,0.1-0.8,0.1s-0.5,0.1-0.9,0.1
		c-1.4-0.1-2.4-0.3-2.9-0.7v-0.1c-0.4-0.3-0.7-0.6-0.9-1s-0.3-0.8-0.4-1.2c0-0.1,0.1-0.2,0.2-0.2c0,0,0.1,0,0.1,0s0.1,0,0.1,0h0.7
		c0.1,0,0.2,0,0.3,0h0.2c0,0,0.1,0,0.1,0c0.3,0,0.7,0,1.4,0h0.3c0.1,0,0.2,0,0.2,0.1s0.1,0.1,0.1,0.2s0.1,0.2,0.1,0.2
		s0.1,0.1,0.2,0.2s0.2,0.1,0.4,0.1c0.2,0,0.3,0,0.5-0.1s0.2-0.2,0.2-0.4c0-0.1,0-0.2-0.1-0.2s-0.2-0.1-0.3-0.2s-0.3-0.1-0.4-0.1
		s-0.3-0.1-0.5-0.1s-0.3-0.1-0.4-0.1h-0.4c-1-0.3-1.7-0.7-2.1-1.1s-0.7-1-0.7-1.7c0-0.5,0.1-0.9,0.3-1.2s0.4-0.7,0.7-0.9
		s0.6-0.4,1-0.6s0.8-0.3,1.2-0.3s0.8-0.1,1.2-0.1c0.7,0,1.4,0.1,2.1,0.4s1.1,0.6,1.4,1c0.1,0.1,0.2,0.3,0.3,0.5s0.1,0.3,0.1,0.4
		s0,0.3,0.1,0.5l-0.2,0.3h-1.2c-0.1,0-0.3,0-0.6,0S276.9,8.5,276.8,8.5z"/>
	<path id="XMLID_67_" d="M285.8,8.5c-0.1,0-0.2,0-0.3-0.1s-0.1-0.1-0.2-0.1s-0.1-0.1-0.2-0.2S285,8,284.9,8s-0.3-0.1-0.5-0.1
		c-0.1,0-0.1,0-0.2,0S284,8,283.9,8s-0.2,0.1-0.2,0.2c0,0.1,0,0.2,0.1,0.2s0.2,0.1,0.3,0.1s0.2,0.1,0.4,0.1s0.2,0.1,0.3,0.1l1,0.2
		c0.3,0.1,0.6,0.2,0.8,0.3s0.5,0.2,0.8,0.4s0.5,0.3,0.7,0.5s0.3,0.4,0.4,0.7s0.2,0.6,0.2,1c0,0.4-0.1,0.8-0.2,1.1v0
		c-0.1,0.3-0.2,0.6-0.4,0.8s-0.4,0.4-0.6,0.6s-0.5,0.3-0.7,0.4s-0.5,0.2-0.8,0.2s-0.6,0.1-0.8,0.1s-0.5,0.1-0.9,0.1
		c-1.4-0.1-2.4-0.3-2.9-0.7v-0.1c-0.4-0.3-0.7-0.6-0.9-1s-0.3-0.8-0.4-1.2c0-0.1,0.1-0.2,0.2-0.2c0,0,0.1,0,0.1,0s0.1,0,0.1,0h0.7
		c0.1,0,0.2,0,0.3,0h0.2c0,0,0.1,0,0.1,0c0.3,0,0.7,0,1.4,0h0.3c0.1,0,0.2,0,0.2,0.1s0.1,0.1,0.1,0.2s0.1,0.2,0.1,0.2
		s0.1,0.1,0.2,0.2s0.2,0.1,0.4,0.1c0.2,0,0.3,0,0.5-0.1s0.2-0.2,0.2-0.4c0-0.1,0-0.2-0.1-0.2s-0.2-0.1-0.3-0.2s-0.3-0.1-0.4-0.1
		s-0.3-0.1-0.5-0.1s-0.3-0.1-0.4-0.1h-0.4c-1-0.3-1.7-0.7-2.1-1.1s-0.7-1-0.7-1.7c0-0.5,0.1-0.9,0.3-1.2s0.4-0.7,0.7-0.9
		s0.6-0.4,1-0.6s0.8-0.3,1.2-0.3s0.8-0.1,1.2-0.1c0.7,0,1.4,0.1,2.1,0.4s1.1,0.6,1.4,1c0.1,0.1,0.2,0.3,0.3,0.5s0.1,0.3,0.1,0.4
		s0,0.3,0.1,0.5l-0.2,0.3h-1.2c-0.1,0-0.3,0-0.6,0S285.9,8.5,285.8,8.5z"/>
	<path id="XMLID_69_" d="M293.5,15V6c0,0,0-0.1,0.1-0.1s0.1-0.1,0.1-0.1h3.7v8.9c0,0.1,0,0.2-0.1,0.2s-0.1,0.1-0.1,0.1H293.5z"/>
	<path id="XMLID_71_" d="M298.1,8.3V5.9h8c0.1,0,0.1,0,0.1,0.1c0,0,0,0.1,0,0.2v2.2c0,0.1-0.1,0.2-0.2,0.2H304v6.3c0,0,0,0,0,0
		s0,0,0,0s0,0,0,0s0,0,0,0s0,0,0,0s0,0,0,0s0,0,0,0s0,0,0,0s0,0,0,0s0,0-0.1,0h-0.4c-0.6,0-0.9,0-0.9-0.1c0,0-0.1,0-0.2,0
		s-0.1,0-0.2,0h-0.5c-0.1,0-0.3,0-0.4,0s-0.3,0-0.5,0h-0.4l-0.3-0.2v-1.5c0-0.3,0-0.8,0.1-1.7s0.1-1.5,0.1-2.1V9.4c0,0,0-0.1,0-0.2
		s0-0.1,0-0.2c0,0,0-0.1,0-0.2s0-0.2,0-0.2h-1.7c-0.1,0-0.2,0-0.3-0.1S298.1,8.4,298.1,8.3z"/>
	<path id="XMLID_73_" d="M306.7,5.2c0-0.2,0.4-0.2,1.2-0.2h0.8c0.7-0.1,1.2-0.1,1.6-0.1c0.4,0,0.6,0.1,0.6,0.3l-0.5,6.2
		c0,0,0,0.1-0.1,0.1s-0.1,0.1-0.2,0.1c-0.1,0-0.2,0-0.2,0s-0.2,0-0.3,0c-0.1,0-0.1,0-0.3,0s-0.2,0-0.3,0c-0.1,0-0.3,0-0.5,0
		s-0.4,0-0.5,0h-0.6c0,0-0.1,0-0.1-0.1c0,0-0.1-0.1-0.1-0.1s0-0.1-0.1-0.2s0-0.1,0-0.2s0-0.1,0-0.2c0-0.1,0-0.1,0-0.2L306.7,5.2z
		 M306.9,15.2l-0.1-1c0-0.4,0-0.7,0.1-1s0.1-0.4,0.2-0.4h1.3c0.5,0,0.9,0,1.1,0s0.5,0,0.6,0c0.1,0,0.2,0,0.3,0.1
		c0,0,0.1,0.1,0.1,0.1v2.2c0,0-0.1,0.1-0.2,0.1c-0.1,0-0.3,0.1-0.5,0.1c-0.2,0-0.4,0-0.6,0s-0.4,0-0.7,0c-0.3,0-0.5,0-0.7,0
		s-0.4,0-0.5,0c-0.2,0-0.3,0-0.3,0v-0.1C307.1,15.3,307.1,15.3,306.9,15.2C307,15.3,307,15.2,306.9,15.2z"/>
	<path id="XMLID_76_" d="M312.2,5.2c0-0.2,0.4-0.2,1.2-0.2h0.8c0.7-0.1,1.2-0.1,1.6-0.1c0.4,0,0.6,0.1,0.6,0.3l-0.5,6.2
		c0,0,0,0.1-0.1,0.1s-0.1,0.1-0.2,0.1c-0.1,0-0.2,0-0.2,0s-0.2,0-0.3,0c-0.1,0-0.1,0-0.3,0s-0.2,0-0.3,0c-0.1,0-0.3,0-0.5,0
		s-0.4,0-0.5,0h-0.6c0,0-0.1,0-0.1-0.1c0,0-0.1-0.1-0.1-0.1s0-0.1-0.1-0.2s0-0.1,0-0.2s0-0.1,0-0.2c0-0.1,0-0.1,0-0.2L312.2,5.2z
		 M312.4,15.2l-0.1-1c0-0.4,0-0.7,0.1-1s0.1-0.4,0.2-0.4h1.3c0.5,0,0.9,0,1.1,0s0.5,0,0.6,0c0.1,0,0.2,0,0.3,0.1
		c0,0,0.1,0.1,0.1,0.1v2.2c0,0-0.1,0.1-0.2,0.1c-0.1,0-0.3,0.1-0.5,0.1c-0.2,0-0.4,0-0.6,0s-0.4,0-0.7,0c-0.3,0-0.5,0-0.7,0
		s-0.4,0-0.5,0c-0.2,0-0.3,0-0.3,0v-0.1C312.5,15.3,312.5,15.3,312.4,15.2C312.4,15.3,312.4,15.2,312.4,15.2z"/>
</g>
<g id="XMLID_2_">
</g>
<g id="XMLID_3_">
</g>
</svg>
