
<svg version="1.1" id="Layer_1" xmlns="http://www.w3.org/2000/svg" xmlns:xlink="http://www.w3.org/1999/xlink" x="0px" y="0px"
	 viewBox="0 0 396.6 226.9" style="enable-background:new 0 0 396.6 226.9;" xml:space="preserve">
<g id="XMLID_2_">
	<path class="path"id="XMLID_3_" d="M5.1,2.1h16.8c10,0,14.9,4.1,14.9,12.2c0,4-1.7,7.4-5.1,10c4.9,2.2,7.4,6.2,7.4,11.9c0,4.4-1.5,7.9-4.4,10.5
		c-1.4,1.2-2.9,2.1-4.6,2.6c-1.6,0.5-3.8,0.7-6.6,0.7H21V37.7h2.3c1.4,0,2.3-0.2,2.9-0.5c0.6-0.4,0.8-1,0.8-1.9
		c0-1.5-1.2-2.3-3.5-2.3H21V20.1c2.5,0,3.8-0.9,3.8-2.7c0-1.7-1.1-2.5-3.4-2.5h-2.5V50H5.1V2.1z"/>
	<path id="XMLID_5_" d="M62.3,14.6v14c-0.9-0.5-1.7-0.8-2.4-0.8c-2.3,0-3.5,1.8-3.5,5.5V50H43.7V30.9c0-5.1,1.3-9.1,4-12.1
		c2.7-3,6.2-4.5,10.7-4.5C59.4,14.3,60.7,14.4,62.3,14.6z"/>
	<path id="XMLID_7_" d="M82,14.3c4.8,0,8.9,1.8,12.3,5.4c3.4,3.6,5.1,7.8,5.1,12.8c0,5.1-1.7,9.4-5.2,12.9s-7.7,5.3-12.6,5.3
		c-4.9,0-9.1-1.8-12.6-5.4c-3.5-3.6-5.2-7.9-5.2-12.9c0-5.1,1.7-9.4,5.2-12.9C72.6,16,76.9,14.3,82,14.3z M81.7,27.2
		c-1.4,0-2.5,0.5-3.5,1.5s-1.4,2.3-1.4,3.7c0,1.5,0.5,2.7,1.4,3.7c1,1,2.1,1.5,3.4,1.5c1.4,0,2.5-0.5,3.5-1.5c1-1,1.4-2.3,1.4-3.7
		c0-1.5-0.5-2.7-1.4-3.7C84.2,27.7,83.1,27.2,81.7,27.2z"/>
	<path id="XMLID_10_" d="M120.8,14.3c4.8,0,8.9,1.8,12.3,5.4c3.4,3.6,5.1,7.8,5.1,12.8c0,5.1-1.7,9.4-5.2,12.9s-7.7,5.3-12.6,5.3
		c-4.9,0-9.1-1.8-12.6-5.4c-3.5-3.6-5.2-7.9-5.2-12.9c0-5.1,1.7-9.4,5.2-12.9C111.4,16,115.7,14.3,120.8,14.3z M120.4,27.2
		c-1.4,0-2.5,0.5-3.5,1.5s-1.4,2.3-1.4,3.7c0,1.5,0.5,2.7,1.4,3.7c1,1,2.1,1.5,3.4,1.5c1.4,0,2.5-0.5,3.5-1.5c1-1,1.4-2.3,1.4-3.7
		c0-1.5-0.5-2.7-1.4-3.7C123,27.7,121.8,27.2,120.4,27.2z"/>
	<path id="XMLID_13_" d="M156.2,2.1V50h-12.7V2.1H156.2z M175.6,15l-6.2,12.7l9.2,22.3h-14l-7.9-22.9l5.8-12.1H175.6z"/>
	<path id="XMLID_16_" d="M193.6,2.1V50h-12.7V2.1H193.6z"/>
	<path id="XMLID_18_" d="M205.4,65.3V53.9c1.7,0.7,3.2,1.1,4.5,1.1c4.1,0,6.8-2.4,8-7.2c-2.2,1.4-4.4,2-6.5,2
		c-3.1,0-5.7-1.2-7.8-3.6s-3-5.5-3-9.3V15h12.7v18.8c0,2.1,0.8,3.1,2.5,3.1c1.6,0,2.4-1.1,2.4-3.4V15h12.7v31.2
		c0,5.8-1.6,10.5-4.7,14.1c-3.8,4.3-8.3,6.4-13.7,6.4C210.1,66.7,207.7,66.3,205.4,65.3z"/>
	<path id="XMLID_20_" d="M268.4,50h-12.7V30.2c0-2-0.8-3-2.4-3c-1.6,0-2.4,1-2.4,3V50h-12.7V30.5c0-4.6,1.5-8.4,4.4-11.5
		c2.9-3.1,6.5-4.7,10.7-4.7c4.8,0,8.7,1.8,11.6,5.4c2.3,2.8,3.4,6.8,3.4,11.8V50z"/>
	<path id="XMLID_22_" d="M27,87.2c6.6,0,12.2,2.5,16.9,7.4c4.7,4.9,7,10.8,7,17.7c0,7-2.4,12.9-7.1,17.8c-4.7,4.9-10.5,7.3-17.2,7.3
		c-6.7,0-12.4-2.5-17.2-7.4s-7.1-10.8-7.1-17.8c0-7,2.4-13,7.2-17.8C14.2,89.6,20.1,87.2,27,87.2z M26.6,101.3
		c-2.8,0-5.2,1.1-7.2,3.2c-2,2.2-3,4.8-3,7.8c0,3,1,5.6,3,7.8s4.4,3.2,7.2,3.2c2.8,0,5.3-1.1,7.2-3.2c2-2.1,3-4.7,3-7.8
		c0-3.1-1-5.7-3-7.8C31.8,102.3,29.4,101.3,26.6,101.3z"/>
	<path id="XMLID_25_" d="M56.4,101.8h12.7v19.8c0,2,0.8,3,2.4,3c1.6,0,2.4-1,2.4-3v-19.8h12.7v19.5c0,4.5-1.5,8.4-4.4,11.5
		c-2.9,3.1-6.5,4.7-10.7,4.7c-4.8,0-8.7-1.8-11.6-5.4c-2.3-2.8-3.4-6.8-3.4-11.8V101.8z"/>
	<path id="XMLID_27_" d="M105.2,88.4v13.4h5.7v13.9h-5.7c0,2.8,0.4,4.7,1.3,5.8s2.4,1.6,4.7,1.6v13.8c-0.7,0-1.1,0-1.5,0
		c-2.9,0-5.6-0.7-8.1-2.1s-4.6-3.3-6.1-5.6c-1.9-3-2.9-7-2.9-12V88.4H105.2z"/>
	<path id="XMLID_29_" d="M137.9,88.4h12.7v29.2c0,5.4-1.4,9.7-4.1,13.1c-1.6,1.9-3.5,3.5-5.9,4.6c-2.4,1.1-4.9,1.7-7.4,1.7
		c-5,0-9.3-1.8-12.7-5.3c-3.5-3.5-5.2-7.8-5.2-12.9c0-4.9,1.7-9.2,5.2-12.8c3.4-3.6,7.5-5.4,12.2-5.4c0.7,0,1.9,0.1,3.4,0.2v14.5
		c-1-0.8-2.1-1.3-3.1-1.3c-1.3,0-2.4,0.5-3.4,1.5c-0.9,1-1.4,2.2-1.4,3.6c0,1.4,0.5,2.5,1.5,3.5c1,1,2.1,1.5,3.5,1.5
		c3.3,0,4.9-2.3,4.9-7V88.4z"/>
	<path id="XMLID_31_" d="M173.3,100.5c4.8,0,8.9,1.8,12.3,5.4c3.4,3.6,5.1,7.8,5.1,12.8c0,5.1-1.7,9.4-5.2,12.9s-7.7,5.3-12.6,5.3
		c-4.9,0-9.1-1.8-12.6-5.4c-3.5-3.6-5.2-7.9-5.2-12.9c0-5.1,1.7-9.4,5.2-12.9C163.9,102.3,168.2,100.5,173.3,100.5z M173,113.5
		c-1.4,0-2.5,0.5-3.5,1.5s-1.4,2.3-1.4,3.7c0,1.5,0.5,2.7,1.4,3.7c1,1,2.1,1.5,3.4,1.5c1.4,0,2.5-0.5,3.5-1.5c1-1,1.4-2.3,1.4-3.7
		c0-1.5-0.5-2.7-1.4-3.7C175.5,114,174.3,113.5,173,113.5z"/>
	<path id="XMLID_34_" d="M212.1,100.5c4.8,0,8.9,1.8,12.3,5.4c3.4,3.6,5.1,7.8,5.1,12.8c0,5.1-1.7,9.4-5.2,12.9s-7.7,5.3-12.6,5.3
		c-4.9,0-9.1-1.8-12.6-5.4c-3.5-3.6-5.2-7.9-5.2-12.9c0-5.1,1.7-9.4,5.2-12.9C202.7,102.3,207,100.5,212.1,100.5z M211.7,113.5
		c-1.4,0-2.5,0.5-3.5,1.5c-0.9,1-1.4,2.3-1.4,3.7c0,1.5,0.5,2.7,1.4,3.7c1,1,2.1,1.5,3.4,1.5c1.4,0,2.5-0.5,3.5-1.5
		c1-1,1.4-2.3,1.4-3.7c0-1.5-0.5-2.7-1.4-3.7C214.3,114,213.1,113.5,211.7,113.5z"/>
	<path id="XMLID_37_" d="M253.3,100.9v14c-0.9-0.5-1.7-0.8-2.4-0.8c-2.3,0-3.5,1.8-3.5,5.5v16.6h-12.7v-19.1c0-5.1,1.3-9.1,4-12.1
		c2.7-3,6.2-4.5,10.7-4.5C250.5,100.5,251.8,100.7,253.3,100.9z"/>
	<path id="XMLID_39_" d="M292.8,110.9v12.8h-4.6v12.5h-13.8v-29.7c0-5.6,1.7-10.2,5-13.9c3.3-3.7,7.5-5.5,12.6-5.5
		c5.6,0,10.2,2.5,14,7.5l-11.3,8.5c-0.6-1.8-1.8-2.7-3.4-2.7c-2.1,0-3.2,1.5-3.2,4.6v5.9H292.8z"/>
	<path id="XMLID_41_" d="M320.5,101.3v35h-12.7v-35H320.5z M314.2,85.7c1.7,0,3.2,0.6,4.5,1.9s1.9,2.7,1.9,4.4
		c0,1.8-0.6,3.3-1.8,4.5c-1.2,1.2-2.7,1.8-4.6,1.8c-1.9,0-3.4-0.6-4.6-1.8c-1.2-1.2-1.8-2.7-1.8-4.5c0-1.7,0.6-3.2,1.9-4.4
		S312.5,85.7,314.2,85.7z"/>
	<path id="XMLID_44_" d="M340.6,88.4v47.9H328V88.4H340.6z"/>
	<path id="XMLID_46_" d="M394.4,136.3h-12.7v-18.9c0-1.5-0.1-2.5-0.4-3c-0.3-0.6-0.8-0.8-1.6-0.8c-1.4,0-2.1,1.3-2.1,3.9v18.9h-12.7
		v-18.9c0-1.5-0.2-2.5-0.5-3c-0.3-0.6-0.8-0.8-1.6-0.8c-1.4,0-2.1,1.3-2.1,3.9v18.9h-12.7v-21.6c0-3.9,1.3-7.3,3.8-10
		c2.6-2.7,5.6-4.1,9.3-4.1c3.8,0,7.1,1.6,10.1,4.9c3.3-3.3,6.6-4.9,10-4.9c4.2,0,7.6,1.6,10.2,4.8c2,2.5,3,6.1,3,10.8V136.3z"/>
	<path id="XMLID_48_" d="M22.4,197.2v12.8h-4.6v12.5H4.1v-29.7c0-5.6,1.7-10.2,5-13.9c3.3-3.7,7.5-5.5,12.6-5.5
		c5.6,0,10.2,2.5,14,7.5l-11.3,8.5c-0.6-1.8-1.8-2.7-3.4-2.7c-2.1,0-3.2,1.5-3.2,4.6v5.9H22.4z"/>
	<path id="XMLID_50_" d="M70.7,207.2H51.5c-0.3-1-0.4-1.9-0.4-2.8c0-1.2,0.2-2.3,0.6-3.4h6.4c-0.5-2.6-1.9-3.9-4.2-3.9
		c-1.6,0-2.9,0.7-3.9,2.1c-1,1.4-1.5,3.2-1.5,5.4c0,2.3,0.5,4.1,1.4,5.5c1,1.4,2.2,2.1,3.8,2.1c1.3,0,2.5-0.7,3.7-2l7.2,9
		c-3.4,2.7-7.1,4.1-11.2,4.1c-5,0-9.2-1.7-12.6-5.2c-3.4-3.5-5.1-7.8-5.1-13c0-5.1,1.7-9.5,5.2-13c3.4-3.5,7.7-5.3,12.7-5.3
		c4.9,0,9,1.7,12.4,5.2c3.3,3.5,5,7.7,5,12.8C70.9,205.2,70.8,206.1,70.7,207.2z"/>
	<path id="XMLID_52_" d="M97.2,188v13.8c-1.8,0-3,0.3-3.7,1c-0.7,0.7-1.1,2.1-1.3,4.1c-0.6,6.8-3.1,11.5-7.6,14.3
		c-2.4,1.5-5.7,2.2-10.1,2.2h-1.8v-13.9h0.6c2,0,3.5-0.4,4.4-1.3s1.4-2.4,1.5-4.6c0.2-3.6,0.5-6.1,1-7.5s1.4-2.9,2.8-4.3
		c2.5-2.5,5.9-3.8,10.3-3.8H97.2z"/>
	<path id="XMLID_54_" d="M112.6,174.6V188h5.7v13.9h-5.7c0,2.8,0.4,4.7,1.3,5.8c0.8,1.1,2.4,1.6,4.7,1.6V223c-0.7,0-1.1,0-1.5,0
		c-2.9,0-5.6-0.7-8.1-2.1c-2.5-1.4-4.6-3.3-6.1-5.6c-1.9-3-2.9-7-2.9-12v-28.8H112.6z"/>
	<path id="XMLID_56_" d="M137.2,187.6v35h-12.7v-35H137.2z M130.9,171.9c1.7,0,3.2,0.6,4.5,1.9c1.3,1.3,1.9,2.7,1.9,4.4
		c0,1.8-0.6,3.3-1.8,4.5c-1.2,1.2-2.7,1.8-4.6,1.8c-1.9,0-3.4-0.6-4.6-1.8c-1.2-1.2-1.8-2.7-1.8-4.5c0-1.7,0.6-3.2,1.9-4.4
		C127.7,172.6,129.2,171.9,130.9,171.9z"/>
	<path id="XMLID_59_" d="M170,187.6l-15.8,36.4l-15.6-36.4h12.1l3.6,9.4l3.9-9.4H170z"/>
	<path id="XMLID_61_" d="M190.1,209.4V223c-1,0.2-2,0.3-2.8,0.3c-5.1,0-9.3-1.7-12.7-5.2c-3.4-3.5-5.1-7.8-5.1-13
		c0-5.1,1.7-9.4,5.1-12.9c3.4-3.5,7.6-5.3,12.5-5.3c5.5,0,9.8,1.7,12.9,5c3.2,3.3,4.7,7.8,4.7,13.6v17.2h-12.7v-16.2
		c0-1.8-0.4-3.3-1.3-4.4c-0.9-1.1-2-1.6-3.5-1.6c-1.3,0-2.5,0.5-3.5,1.5c-1,1-1.5,2.2-1.5,3.6c0,1.5,0.4,2.6,1.3,3.6
		c0.9,0.9,2,1.4,3.4,1.4C188.2,210.3,189.2,210,190.1,209.4z"/>
	<path id="XMLID_63_" d="M224.8,174.6v47.9h-12.7v-47.9H224.8z"/>
</g>
</svg>
