<svg version="1.1" id="Layer_1" xmlns="http://www.w3.org/2000/svg" xmlns:xlink="http://www.w3.org/1999/xlink" x="0px" y="0px"
	 viewBox="0 0 465.7 268.6" style="enable-background:new 0 0 465.7 268.6;" xml:space="preserve">
<g id="XMLID_14_">
	<path id="XMLID_55_" d="M39.2,37.6c2.1,2.4,3.1,5.6,3.1,9.5c0,5.3-2,9.5-5.9,12.6c-3.9,3.1-9.6,4.6-17.1,4.6
		c-3.9,0-9.2-0.3-16.1-0.8l-0.7-1.8c0.7-1.7,1.2-3.5,1.5-5.5c0.3-2,0.4-4.9,0.4-8.7V20c0-3.8-0.1-6.7-0.4-8.7
		c-0.3-2-0.7-3.8-1.5-5.5l0.7-1.8C8.8,3.5,13.7,3.2,18,3.2c6.9,0,12.2,1.5,15.9,4.5c3.7,3,5.5,7.1,5.5,12.2c0,3.1-0.7,5.6-2.1,7.7
		c-1.4,2-3.7,3.7-6.7,5C34.3,33.5,37.1,35.2,39.2,37.6z M10.4,9.9c0.6,1.3,0.9,2.8,1.1,4.4c0.2,1.6,0.3,3.5,0.3,5.8V30h11.1
		c2.9,0,5.2-0.9,6.7-2.6c1.6-1.7,2.4-4.2,2.4-7.3c0-3.5-1-6.1-3-7.9c-2-1.8-5.2-2.7-9.5-2.7C16.8,9.5,13.9,9.6,10.4,9.9z M31,55.1
		c2.5-2,3.7-4.8,3.7-8.5c0-3.4-1-6-3-7.8c-2-1.8-4.8-2.8-8.5-2.8H11.7v11.4c0,2.2-0.1,4.1-0.3,5.7c-0.2,1.6-0.5,3.1-1.1,4.5
		c3.6,0.3,6.9,0.4,9.7,0.4C24.9,58,28.6,57,31,55.1z"/>
	<path id="XMLID_59_" d="M52,63.4V25c0-1.6,0.4-2.8,1.2-3.7c0.8-0.9,1.9-1.4,3.4-1.4c0.8,0,1.6,0.1,2.4,0.3v11.5
		c1.2-4,2.9-7.1,5-9.1c2.2-2,4.7-3,7.6-3c3.1,0,4.7,1.4,4.7,4.2c0,1.6-0.6,2.9-1.7,3.7c-0.6-0.3-1.4-0.4-2.5-0.4
		c-4.3,0-7.5,1.9-9.7,5.6c-2.2,3.7-3.4,9.8-3.4,18.1v7.8c0,1.6-0.4,2.8-1.2,3.7c-0.8,0.9-1.9,1.4-3.4,1.4
		C53.6,63.7,52.8,63.6,52,63.4z"/>
	<path id="XMLID_61_" d="M87.3,61.5c-2.9-1.8-5.1-4.4-6.7-7.8c-1.6-3.4-2.4-7.3-2.4-11.9s0.8-8.5,2.4-11.9c1.6-3.4,3.8-6,6.7-7.8
		c2.9-1.8,6.3-2.7,10.1-2.7c3.9,0,7.2,0.9,10.1,2.7c2.9,1.8,5.1,4.4,6.7,7.8c1.6,3.4,2.4,7.4,2.4,11.9s-0.8,8.5-2.4,11.9
		c-1.6,3.4-3.8,6-6.7,7.8c-2.9,1.8-6.3,2.7-10.1,2.7C93.5,64.2,90.2,63.3,87.3,61.5z M106.2,53.7c2.2-3,3.3-6.9,3.3-11.9
		c0-5-1.1-9-3.3-11.9c-2.2-3-5.1-4.5-8.8-4.5c-3.7,0-6.6,1.5-8.8,4.5c-2.2,3-3.3,6.9-3.3,11.9c0,5,1.1,9,3.3,11.9
		c2.2,3,5.1,4.5,8.8,4.5C101.1,58.2,104,56.7,106.2,53.7z"/>
	<path id="XMLID_64_" d="M131.6,61.5c-2.9-1.8-5.1-4.4-6.7-7.8c-1.6-3.4-2.4-7.3-2.4-11.9s0.8-8.5,2.4-11.9c1.6-3.4,3.8-6,6.7-7.8
		c2.9-1.8,6.3-2.7,10.1-2.7c3.9,0,7.2,0.9,10.1,2.7c2.9,1.8,5.1,4.4,6.7,7.8c1.6,3.4,2.4,7.4,2.4,11.9s-0.8,8.5-2.4,11.9
		c-1.6,3.4-3.8,6-6.7,7.8c-2.9,1.8-6.3,2.7-10.1,2.7C137.9,64.2,134.5,63.3,131.6,61.5z M150.6,53.7c2.2-3,3.3-6.9,3.3-11.9
		c0-5-1.1-9-3.3-11.9c-2.2-3-5.1-4.5-8.8-4.5c-3.7,0-6.6,1.5-8.8,4.5c-2.2,3-3.3,6.9-3.3,11.9c0,5,1.1,9,3.3,11.9
		c2.2,3,5.1,4.5,8.8,4.5C145.4,58.2,148.4,56.7,150.6,53.7z"/>
	<path id="XMLID_67_" d="M201.7,62.3v0.8c-1.4,0.4-2.9,0.6-4.5,0.6c-1.2,0-2.3-0.2-3.4-0.7c-1.1-0.5-1.9-1.2-2.4-2.1l-11.3-16.8
		l-3.1,3.7v10.8c0,1.6-0.4,2.8-1.2,3.7c-0.8,0.9-1.9,1.4-3.4,1.4c-0.8,0-1.6-0.1-2.4-0.3v-56c0-1.6,0.4-2.8,1.2-3.7
		c0.8-0.9,1.9-1.4,3.4-1.4c0.8,0,1.6,0.1,2.4,0.3v36l13.2-16c0.8-1,1.6-1.7,2.4-2.1s1.8-0.6,2.9-0.6c0.9,0,1.7,0.1,2.3,0.4
		c0.6,0.3,1.3,0.6,1.9,1.1l-15.2,17.9l12,17.6C198.8,60,200.5,61.9,201.7,62.3z"/>
	<path id="XMLID_69_" d="M208.8,63.4v-56c0-1.6,0.4-2.8,1.2-3.7c0.8-0.9,1.9-1.4,3.4-1.4c0.8,0,1.6,0.1,2.4,0.3v56
		c0,1.6-0.4,2.8-1.2,3.7c-0.8,0.9-1.9,1.4-3.4,1.4C210.3,63.7,209.5,63.6,208.8,63.4z"/>
	<path id="XMLID_71_" d="M223.4,79.5c-1.2-0.7-1.8-1.6-1.8-2.9c0-1.3,0.6-2.2,1.9-2.6c1.3,0.6,2.7,0.9,3.9,0.9
		c1.3,0,2.4-0.5,3.3-1.4c0.9-0.9,1.8-2.5,2.8-4.8l3.8-9.4l-14.7-35.8c-0.2-0.4-0.3-1-0.3-1.5c0-0.7,0.3-1.3,0.8-1.7
		c0.6-0.4,1.4-0.6,2.6-0.6c1.1,0,2,0.3,2.7,0.8L240.7,51l11-27.2c0.6-1.4,1.2-2.4,2-3.1c0.8-0.6,1.7-1,2.9-1c1.3,0,2.3,0.4,3.1,1.3
		L240,70.8c-1.2,3.1-2.8,5.5-4.9,7.2c-2.1,1.7-4.5,2.6-7.2,2.6C226.1,80.5,224.6,80.2,223.4,79.5z"/>
	<path id="XMLID_73_" d="M267.1,63.4V25c0-1.6,0.4-2.8,1.2-3.7s1.9-1.4,3.4-1.4c0.8,0,1.6,0.1,2.4,0.3V29c0.9-3.2,2.3-5.7,4.3-7.3
		c2-1.6,4.6-2.4,7.8-2.4c4.3,0,7.8,1.4,10.4,4.1c2.6,2.7,3.9,6.7,3.9,11.8v23.4c0,1.6-0.4,2.8-1.2,3.7c-0.8,0.9-1.9,1.4-3.4,1.4
		c-0.8,0-1.6-0.1-2.4-0.3V34.7c0-3-0.8-5.4-2.4-7.1c-1.6-1.7-3.8-2.6-6.7-2.6c-3.3,0-5.9,1.6-7.7,4.8c-1.8,3.2-2.7,7.7-2.7,13.5
		v15.2c0,1.6-0.4,2.8-1.2,3.7c-0.8,0.9-1.9,1.4-3.4,1.4C268.6,63.7,267.8,63.6,267.1,63.4z"/>
	<path id="XMLID_75_" d="M13.7,161.3c-4.1-2.5-7.2-6-9.4-10.6c-2.2-4.6-3.3-10-3.3-16.1c0-6.2,1.1-11.5,3.3-16.1
		c2.2-4.6,5.4-8.1,9.4-10.6c4.1-2.5,8.9-3.7,14.4-3.7c5.5,0,10.3,1.2,14.4,3.7c4.1,2.5,7.3,6,9.6,10.6c2.2,4.6,3.4,10,3.4,16.1
		c0,6.2-1.1,11.5-3.4,16.1c-2.2,4.6-5.4,8.1-9.6,10.6c-4.1,2.5-9,3.7-14.4,3.7C22.6,165,17.8,163.8,13.7,161.3z M38.6,155.9
		c2.9-2,5.2-4.8,6.8-8.4c1.6-3.7,2.4-8,2.4-12.9c0-4.9-0.8-9.2-2.4-12.9c-1.6-3.7-3.9-6.5-6.8-8.4c-2.9-2-6.4-2.9-10.4-2.9
		c-4,0-7.4,1-10.4,3c-2.9,2-5.2,4.8-6.8,8.5c-1.6,3.7-2.4,7.9-2.4,12.8s0.8,9.1,2.4,12.8c1.6,3.7,3.8,6.5,6.8,8.5
		c2.9,2,6.4,3,10.4,3C32.2,158.8,35.6,157.8,38.6,155.9z"/>
	<path id="XMLID_78_" d="M68.3,160.9c-2.6-2.7-3.9-6.7-3.9-11.8v-23.4c0-1.6,0.4-2.8,1.2-3.7c0.8-0.9,1.9-1.4,3.4-1.4
		c0.8,0,1.6,0.1,2.4,0.3v28.6c0,3,0.8,5.3,2.4,7.1c1.6,1.7,3.8,2.6,6.5,2.6c3.2,0,5.7-1.6,7.5-4.8c1.8-3.2,2.7-7.7,2.7-13.5v-15.2
		c0-1.6,0.4-2.8,1.2-3.7c0.8-0.9,1.9-1.4,3.4-1.4c0.8,0,1.6,0.1,2.4,0.3v38.4c0,1.6-0.4,2.8-1.2,3.7c-0.8,0.9-1.9,1.4-3.4,1.4
		c-0.8,0-1.6-0.1-2.4-0.3v-8.8c-1.8,6.4-5.8,9.7-11.9,9.7C74.3,165,70.9,163.7,68.3,160.9z"/>
	<path id="XMLID_80_" d="M129.8,158.7c0.3,0.5,0.5,1.1,0.5,1.8c0,1.3-0.6,2.3-1.9,3.1c-1.3,0.8-2.9,1.1-4.8,1.1c-3.4,0-6-1.2-8-3.5
		c-2-2.4-2.9-5.5-2.9-9.6v-25h-6.3c-0.3-0.6-0.4-1.2-0.4-1.8c0-1.1,0.4-2,1.1-2.6c0.7-0.6,1.7-0.9,2.9-0.9h2.8v-6.1
		c0-1.6,0.4-2.8,1.2-3.7c0.8-0.9,1.9-1.4,3.4-1.4c0.8,0,1.6,0.1,2.4,0.3v10.9h9.7c0.3,0.6,0.4,1.2,0.4,1.8c0,1.1-0.4,2-1.1,2.6
		c-0.7,0.6-1.7,0.9-2.9,0.9h-6.1v25c0,2.2,0.4,3.9,1.2,5.1c0.8,1.1,2.1,1.7,3.8,1.7c1.2,0,2.5-0.3,3.8-0.8
		C129,157.8,129.5,158.2,129.8,158.7z"/>
	<path id="XMLID_82_" d="M142.2,162.5c-2.6-1.8-4.6-4.3-5.9-7.6c-1.4-3.3-2.1-7.1-2.1-11.5c0-4.6,0.8-8.7,2.3-12.2
		c1.5-3.5,3.7-6.2,6.6-8.1c2.9-1.9,6.2-2.9,10-2.9c2.4,0,4.5,0.4,6.3,1.1c1.8,0.8,3.4,1.8,4.9,3.1v-16.4c0-1.6,0.4-2.8,1.2-3.7
		c0.8-0.9,1.9-1.4,3.4-1.4c0.8,0,1.5,0.1,2.3,0.3v56c0,1.6-0.4,2.8-1.2,3.7c-0.8,0.9-1.9,1.4-3.4,1.4c-0.7,0-1.4-0.1-2.3-0.3v-6.6
		c-1.6,2.5-3.5,4.3-5.6,5.6c-2.1,1.3-4.6,1.9-7.5,1.9C147.7,165.1,144.7,164.2,142.2,162.5z M161,155c2.3-3,3.4-7.1,3.4-12.3v-4.4
		c0-3.9-0.9-7-2.7-9.2c-1.8-2.2-4.4-3.3-7.9-3.3c-4,0-7.1,1.6-9.3,4.7c-2.2,3.1-3.3,7.5-3.3,13.1c0,5.2,0.9,9.1,2.8,11.8
		c1.8,2.7,4.5,4.1,8,4.1C155.7,159.6,158.7,158.1,161,155z"/>
	<path id="XMLID_85_" d="M189.4,162.3c-2.9-1.8-5.1-4.4-6.7-7.8c-1.6-3.4-2.4-7.3-2.4-11.9s0.8-8.5,2.4-11.9c1.6-3.4,3.8-6,6.7-7.8
		c2.9-1.8,6.3-2.7,10.1-2.7c3.9,0,7.2,0.9,10.1,2.7c2.9,1.8,5.1,4.4,6.7,7.8c1.6,3.4,2.4,7.3,2.4,11.9s-0.8,8.5-2.4,11.9
		c-1.6,3.4-3.8,6-6.7,7.8c-2.9,1.8-6.3,2.7-10.1,2.7C195.7,165,192.3,164.1,189.4,162.3z M208.4,154.5c2.2-3,3.3-6.9,3.3-11.9
		c0-5-1.1-9-3.3-11.9c-2.2-3-5.1-4.5-8.8-4.5c-3.7,0-6.6,1.5-8.8,4.5c-2.2,3-3.3,6.9-3.3,11.9c0,5,1.1,9,3.3,11.9
		c2.2,3,5.1,4.5,8.8,4.5C203.2,159,206.2,157.5,208.4,154.5z"/>
	<path id="XMLID_88_" d="M233.8,162.3c-2.9-1.8-5.1-4.4-6.7-7.8c-1.6-3.4-2.4-7.3-2.4-11.9s0.8-8.5,2.4-11.9c1.6-3.4,3.8-6,6.7-7.8
		c2.9-1.8,6.3-2.7,10.1-2.7s7.2,0.9,10.1,2.7c2.9,1.8,5.1,4.4,6.7,7.8c1.6,3.4,2.4,7.3,2.4,11.9s-0.8,8.5-2.4,11.9
		c-1.6,3.4-3.8,6-6.7,7.8c-2.9,1.8-6.3,2.7-10.1,2.7S236.7,164.1,233.8,162.3z M252.7,154.5c2.2-3,3.3-6.9,3.3-11.9
		c0-5-1.1-9-3.3-11.9c-2.2-3-5.1-4.5-8.8-4.5c-3.7,0-6.6,1.5-8.8,4.5c-2.2,3-3.3,6.9-3.3,11.9c0,5,1.1,9,3.3,11.9
		c2.2,3,5.1,4.5,8.8,4.5C247.6,159,250.5,157.5,252.7,154.5z"/>
	<path id="XMLID_91_" d="M272.3,164.2v-38.4c0-1.6,0.4-2.8,1.2-3.7s1.9-1.4,3.4-1.4c0.8,0,1.6,0.1,2.4,0.3v11.5c1.2-4,2.9-7.1,5-9.1
		c2.2-2,4.7-3,7.6-3c3.1,0,4.7,1.4,4.7,4.2c0,1.6-0.6,2.9-1.7,3.7c-0.6-0.3-1.4-0.4-2.5-0.4c-4.3,0-7.5,1.9-9.7,5.6
		c-2.2,3.7-3.4,9.8-3.4,18.1v7.8c0,1.6-0.4,2.8-1.2,3.7s-1.9,1.4-3.4,1.4C273.8,164.5,273,164.4,272.3,164.2z"/>
	<path id="XMLID_93_" d="M357.8,110.5c-0.9,0.7-2,1.1-3.5,1.1h-21.4c0.4,1.2,0.7,2.5,0.8,3.8c0.1,1.3,0.2,2.9,0.2,4.7v11.5h20.8
		c0.2,0.7,0.3,1.4,0.3,2.2c0,1.3-0.4,2.4-1.3,3.1c-0.9,0.7-2,1.1-3.5,1.1h-16.4v21.1c0,1.7-0.4,3-1.3,4c-0.9,1-2.1,1.5-3.7,1.5
		c-0.8,0-1.6-0.1-2.4-0.3v-44.1c0-3.6-0.1-6.3-0.3-8c-0.2-1.8-0.7-3.5-1.5-5.1l0.7-1.8h33.4c0.2,0.7,0.3,1.4,0.3,2.2
		C359.1,108.8,358.7,109.8,357.8,110.5z"/>
	<path id="XMLID_95_" d="M367.5,113.2c-1-1-1.5-2.2-1.5-3.7c0-1.5,0.5-2.7,1.5-3.7c1-1,2.2-1.5,3.7-1.5c1.5,0,2.7,0.5,3.7,1.5
		c1,1,1.5,2.2,1.5,3.7c0,1.5-0.5,2.7-1.5,3.7c-1,1-2.2,1.5-3.7,1.5C369.7,114.6,368.5,114.1,367.5,113.2z M367.7,164.2v-38.4
		c0-1.6,0.4-2.8,1.2-3.7s1.9-1.4,3.4-1.4c0.8,0,1.6,0.1,2.4,0.3v38.4c0,1.6-0.4,2.8-1.2,3.7s-1.9,1.4-3.4,1.4
		C369.2,164.5,368.4,164.4,367.7,164.2z"/>
	<path id="XMLID_98_" d="M387.4,164.2v-56c0-1.6,0.4-2.8,1.2-3.7c0.8-0.9,1.9-1.4,3.4-1.4c0.8,0,1.6,0.1,2.4,0.3v56
		c0,1.6-0.4,2.8-1.2,3.7s-1.9,1.4-3.4,1.4C388.9,164.5,388.1,164.4,387.4,164.2z"/>
	<path id="XMLID_100_" d="M460.2,124.3c2.4,2.7,3.7,6.7,3.7,11.8v23.4c0,1.6-0.4,2.8-1.2,3.7c-0.8,0.9-1.9,1.4-3.4,1.4
		c-0.8,0-1.6-0.1-2.4-0.3v-28.6c0-3-0.7-5.4-2.2-7.1c-1.5-1.7-3.5-2.6-6.2-2.6c-3,0-5.4,1.7-7.1,5c-1.7,3.3-2.6,7.8-2.6,13.3v15.2
		c0,1.6-0.4,2.8-1.2,3.7c-0.8,0.9-1.9,1.4-3.4,1.4c-0.8,0-1.6-0.1-2.4-0.3v-28.6c0-3-0.7-5.4-2.2-7.1c-1.5-1.7-3.5-2.6-6.2-2.6
		c-3,0-5.4,1.7-7.1,5c-1.7,3.3-2.6,7.8-2.6,13.3v15.2c0,1.6-0.4,2.8-1.2,3.7s-1.9,1.4-3.4,1.4c-0.8,0-1.6-0.1-2.4-0.3v-38.4
		c0-1.6,0.4-2.8,1.2-3.7s1.9-1.4,3.4-1.4c0.8,0,1.6,0.1,2.4,0.3v8.8c1.8-6.4,5.7-9.7,11.7-9.7c3.1,0,5.8,0.8,8,2.5
		c2.2,1.7,3.7,4.1,4.6,7.3c2.3-6.5,6.5-9.7,12.5-9.7C454.5,120.2,457.7,121.5,460.2,124.3z"/>
	<path id="XMLID_102_" d="M35.5,211.3c-0.9,0.7-2,1.1-3.5,1.1H10.5c0.4,1.2,0.7,2.5,0.8,3.8c0.1,1.3,0.2,2.9,0.2,4.7v11.5h20.8
		c0.2,0.7,0.3,1.4,0.3,2.2c0,1.3-0.4,2.4-1.3,3.1c-0.9,0.7-2,1.1-3.5,1.1H11.6v21.1c0,1.7-0.4,3-1.3,4c-0.9,1-2.1,1.5-3.7,1.5
		c-0.8,0-1.6-0.1-2.4-0.3v-44.1c0-3.6-0.1-6.3-0.3-8c-0.2-1.8-0.7-3.5-1.5-5.1L3,206h33.4c0.2,0.7,0.3,1.4,0.3,2.2
		C36.8,209.6,36.3,210.6,35.5,211.3z"/>
	<path id="XMLID_104_" d="M51.3,263.1c-3-1.8-5.3-4.4-6.9-7.7c-1.6-3.4-2.4-7.3-2.4-11.8c0-4.5,0.8-8.5,2.5-11.9
		c1.7-3.4,3.9-6.1,6.9-7.9c2.9-1.9,6.3-2.8,10.2-2.8c5.5,0,9.8,1.9,12.9,5.6c3.1,3.7,4.7,8.8,4.7,15.2c0,1.6-0.2,2.6-0.6,3.2
		c-0.4,0.6-1.3,0.8-2.6,0.8h-27c0,4.4,1.1,8,3.4,10.6c2.3,2.6,5.3,3.9,9.1,3.9c2.8,0,5.3-0.6,7.6-1.8c2.3-1.2,4.1-2.9,5.4-4.9
		c1.7,0.6,2.5,1.9,2.5,3.8c0,1.5-0.8,2.9-2.3,4.2c-1.5,1.3-3.5,2.3-5.8,3.1c-2.4,0.8-4.8,1.2-7.3,1.2
		C57.7,265.8,54.3,264.9,51.3,263.1z M72.2,240.1c-0.1-4.5-1-8-2.7-10.3c-1.7-2.3-4.2-3.5-7.6-3.5c-3.6,0-6.5,1.2-8.7,3.7
		c-2.2,2.5-3.6,6-4.2,10.8L72.2,240.1z"/>
	<path id="XMLID_107_" d="M93.5,264.7c-2.3-0.8-4.1-1.8-5.4-3.1c-1.3-1.3-2-2.7-2-4.1c0-1.7,0.8-2.7,2.4-3.1
		c1.6,1.7,3.5,3.1,5.7,4.2c2.2,1.1,4.6,1.7,7.1,1.7c2.5,0,4.4-0.6,5.8-1.8c1.4-1.2,2.1-2.8,2.1-4.9c0-1.8-0.7-3.4-2-4.6
		c-1.3-1.2-3.7-2.4-7.1-3.4c-4.9-1.6-8.3-3.4-10.3-5.4c-2-2-3-4.7-3-8.1c0-4,1.3-6.8,3.9-8.5c2.6-1.7,5.9-2.6,9.9-2.6
		c4.2,0,7.6,0.8,10.1,2.4c2.5,1.6,3.8,3.6,3.8,6c0,1.7-0.8,2.7-2.4,3.1c-1.6-1.8-3.3-3.3-5.1-4.5c-1.8-1.1-3.9-1.7-6.3-1.7
		c-2.2,0-4.1,0.5-5.5,1.6c-1.4,1-2.1,2.4-2.1,4.1c0,1.9,0.7,3.5,2.2,4.7c1.5,1.2,4,2.5,7.6,3.7c4.8,1.6,8.1,3.3,10,5.3
		c1.9,2,2.9,4.5,2.9,7.6c0,4.2-1.4,7.3-4.1,9.4c-2.7,2.1-6.3,3.1-10.7,3.1C98.4,265.8,95.8,265.4,93.5,264.7z"/>
	<path id="XMLID_109_" d="M144.8,259.5c0.3,0.5,0.5,1.1,0.5,1.8c0,1.3-0.6,2.3-1.9,3.1c-1.3,0.8-2.9,1.1-4.8,1.1c-3.4,0-6-1.2-8-3.5
		c-2-2.4-2.9-5.5-2.9-9.6v-25h-6.3c-0.3-0.6-0.4-1.2-0.4-1.8c0-1.1,0.4-2,1.1-2.6c0.7-0.6,1.7-0.9,2.9-0.9h2.8v-6.1
		c0-1.6,0.4-2.8,1.2-3.7c0.8-0.9,1.9-1.4,3.4-1.4c0.8,0,1.6,0.1,2.4,0.3V222h9.7c0.3,0.6,0.4,1.2,0.4,1.8c0,1.1-0.4,2-1.1,2.6
		c-0.7,0.6-1.7,0.9-2.9,0.9h-6.1v25c0,2.2,0.4,3.9,1.2,5.1c0.8,1.1,2.1,1.7,3.8,1.7c1.2,0,2.5-0.3,3.8-0.8
		C144,258.6,144.4,259,144.8,259.5z"/>
	<path id="XMLID_111_" d="M153.1,214c-1-1-1.5-2.2-1.5-3.7s0.5-2.7,1.5-3.7c1-1,2.2-1.5,3.7-1.5c1.5,0,2.7,0.5,3.7,1.5
		c1,1,1.5,2.2,1.5,3.7s-0.5,2.7-1.5,3.7c-1,1-2.2,1.5-3.7,1.5C155.3,215.4,154.1,214.9,153.1,214z M153.3,265v-38.4
		c0-1.6,0.4-2.8,1.2-3.7c0.8-0.9,1.9-1.4,3.4-1.4c0.8,0,1.6,0.1,2.4,0.3v38.4c0,1.6-0.4,2.8-1.2,3.7c-0.8,0.9-1.9,1.4-3.4,1.4
		C154.9,265.3,154.1,265.2,153.3,265z"/>
	<path id="XMLID_114_" d="M167.5,225.2c-0.2-0.5-0.3-1-0.3-1.5c0-1.6,1.1-2.4,3.4-2.4c1.1,0,2,0.3,2.7,0.8l12.3,30.4l11-27.2
		c0.6-1.4,1.2-2.4,2-3.1c0.8-0.6,1.7-1,2.9-1c1.3,0,2.3,0.4,3.1,1.3l-16.9,42.2h-4.2L167.5,225.2z"/>
	<path id="XMLID_116_" d="M210.1,262.3c-2.6-2.4-3.9-5.6-3.9-9.6c0-4.3,1.5-7.7,4.4-10.2c2.9-2.6,6.9-3.9,12-3.9
		c2.2,0,4.1,0.2,5.6,0.7c1.5,0.4,2.9,1.1,4.2,1.9v-4c0-3.4-0.9-6-2.7-7.8c-1.8-1.8-4.4-2.7-7.8-2.7c-2.6,0-4.8,0.5-6.8,1.6
		c-1.9,1-3.7,2.6-5.2,4.7c-1.8-0.7-2.8-2-2.8-3.9c0-2.5,1.5-4.4,4.5-5.8c3-1.4,6.5-2.1,10.5-2.1c5.5,0,9.7,1.4,12.6,4.2
		c2.9,2.8,4.3,6.8,4.3,11.8v23.1c0,1.6-0.4,2.8-1.2,3.7c-0.8,0.9-1.9,1.4-3.4,1.4c-0.7,0-1.4-0.1-2.3-0.3v-4.4
		c-1.2,1.8-2.7,3.1-4.5,3.9c-1.8,0.8-4.1,1.3-6.8,1.3C216.3,265.8,212.7,264.6,210.1,262.3z M229.6,258.2c1.9-1.5,2.8-3.6,2.8-6.1
		V250c0-2-0.8-3.5-2.3-4.6c-1.5-1.1-3.7-1.6-6.6-1.6c-3.4,0-5.9,0.8-7.7,2.3c-1.8,1.5-2.7,3.7-2.7,6.6c0,2.6,0.8,4.5,2.3,5.9
		c1.5,1.3,3.7,2,6.6,2C225.2,260.5,227.7,259.7,229.6,258.2z"/>
	<path id="XMLID_119_" d="M250.5,265v-56c0-1.6,0.4-2.8,1.2-3.7c0.8-0.9,1.9-1.4,3.4-1.4c0.8,0,1.6,0.1,2.4,0.3v56
		c0,1.6-0.4,2.8-1.2,3.7s-1.9,1.4-3.4,1.4C252,265.3,251.3,265.2,250.5,265z"/>
</g>
</svg>
