 <svg version="1.1" id="svg-logo" xmlns="http://www.w3.org/2000/svg" xmlns:xlink="http://www.w3.org/1999/xlink" x="0px" y="0px"
   viewBox="0 0 619.9 278.1" style="enable-background:new 0 0 619.9 278.1;" xml:space="preserve">

<g id="XMLID_1_">
  <path class='path' id="XMLID_124_" d="M8.9,76.1V23.6l33.8-1.2c2.1,0,4,0.1,5.9,0.4c1.8,0.3,3.7,0.7,5.5,1.5c1.9,0.7,3.5,1.6,4.8,2.8
    c1.3,1.1,2.4,2.6,3.2,4.5c0.8,1.9,1.3,4,1.3,6.5c0,3.3-0.7,5.9-2.1,7.9c-1.4,2-3.6,3.8-6.4,5.4c3.4,0.9,5.9,2.6,7.7,4.9
    c1.8,2.3,2.6,5.2,2.6,8.7c0,2.6-0.5,4.9-1.5,7c-1,2.1-2.3,3.8-3.8,5.1c-1.6,1.3-3.4,2.4-5.5,3.2S50,81.7,47.9,82s-4.2,0.5-6.3,0.5
    c-1.3,0-3.1,0-5.6-0.1c-2.5-0.1-4.4-0.1-5.7-0.1c-7.2,0-13.9,0.1-19.9,0.3C9.4,81.3,9,79.1,8.9,76.1z M31.3,36.6
    c0,1.2,0,2.9,0.1,5.2c0.1,2.3,0.1,4.1,0.1,5.2c0,0.5,0.3,0.8,0.9,0.9c0.4-0.1,1-0.1,1.9-0.3s1.6-0.2,2.1-0.3
    c0.5-0.1,1.2-0.3,1.9-0.6c0.7-0.3,1.3-0.7,1.7-1.1c0.4-0.4,0.8-1,1.1-1.8c0.3-0.8,0.5-1.7,0.5-2.8c0-4-2.7-5.9-8.2-5.9
    c-1.1,0.2-1.7,0.4-1.9,0.5C31.4,36,31.3,36.2,31.3,36.6z M32,66.4c0,1.9,0.1,2.9,0.3,2.9h1.3c1,0,1.9,0,2.6-0.1
    c0.7-0.1,1.5-0.2,2.4-0.5c0.9-0.3,1.5-0.6,2.1-1.1c0.5-0.5,1-1.1,1.3-1.9c0.4-0.8,0.5-1.8,0.5-3c0-0.7-0.1-1.3-0.2-1.8
    c-0.1-0.5-0.3-1-0.6-1.4c-0.3-0.4-0.6-0.7-0.8-1c-0.3-0.3-0.7-0.5-1.2-0.7s-0.9-0.4-1.3-0.5c-0.3-0.1-0.8-0.2-1.5-0.3
    c-0.7-0.1-1.1-0.1-1.4-0.2c-0.3,0-0.8-0.1-1.5-0.1s-1.1-0.1-1.3-0.1v1.5c0,0.3-0.2,1.3-0.4,2.9C32.1,62.7,32,64,32,65V66.4z"/>
  <path class='path' id="XMLID_128_" d="M70.2,27.7h7.3c2.2,0,5.8-0.1,10.7-0.2c4.9-0.1,8.6-0.2,11.1-0.2c2.1,0,4.1,0.1,5.9,0.4s3.6,0.7,5.4,1.3
    c1.8,0.6,3.3,1.4,4.6,2.4c1.3,1,2.3,2.2,3.1,3.8c0.8,1.6,1.2,3.4,1.2,5.4c0,2.8-0.7,5.3-2,7.3c-1.3,2-3.4,3.7-6.1,5.1
    c1.1,0.5,2,1.1,2.9,1.8c0.8,0.8,1.4,1.4,1.9,2s0.8,1.5,1.3,2.8c0.4,1.3,0.6,2.1,0.7,2.5c0.1,0.4,0.2,1.4,0.5,3
    c0.1,0.4,0.1,0.6,0.2,0.8c0.1,1,0.5,2.9,1.3,5.7s1.2,4.9,1.2,6.4c0,0.9-0.3,1.4-0.9,1.4c-1.6,0-3.9,0-7.1,0c-3.2,0-5.5,0-7.1,0
    c-0.6-0.1-1.6-0.1-2.8-0.1h-2.7c-0.5-0.2-1-1-1.5-2.4c-0.5-1.5-0.8-3.1-1.1-4.9l-0.9-7c-0.2-0.6-0.3-1-0.4-1.2
    c-0.1-0.2-0.3-0.5-0.5-0.9s-0.6-0.6-1-0.7c-0.4-0.1-0.9-0.2-1.5-0.2h-1.8v15.6c0,0.1,0,0.2,0,0.4c0,0.2,0,0.3,0,0.4
    c0,0.1,0,0.2,0,0.3c0,0.1,0,0.2,0,0.3c0,0.1-0.1,0.2-0.1,0.3c0,0.1-0.1,0.2-0.1,0.2s-0.1,0.1-0.2,0.2c-0.1,0.1-0.1,0.1-0.2,0.1
    c-0.1,0-0.2,0.1-0.3,0.1c-0.1,0-0.3,0-0.4,0H70.2V27.7z M92.3,48.3c0.1,0.1,0.1,0.2,0.2,0.3c0.1,0.2,0.2,0.3,0.3,0.4
    c0.1,0.1,0.2,0.2,0.3,0.2c0.8,0,1.6-0.1,2.3-0.3c0.8-0.2,1.6-0.4,2.4-0.8s1.5-1,2-1.8c0.5-0.8,0.8-1.8,0.8-2.9
    c0-2.7-2.6-4.1-7.8-4.1c-0.5,0.1-0.8,0.3-0.8,0.6v1.5c0,0.8,0,1.9,0.1,3.4C92.3,46.4,92.3,47.6,92.3,48.3z"/>
  <path class='path' id="XMLID_131_" d="M122.2,53.2l-0.1-0.9c0.5-4.2,1-7.2,1.4-8.9c1-3.9,2.8-7.2,5.5-9.8l0.9-0.9c1.3-1.5,3.2-2.7,5.7-3.8h1.5
    c2.6-1.1,6.7-2.1,12.6-3c1.5,0,3,0.1,4.6,0.3c1.6,0.2,3.4,0.6,5.3,1.1s3.8,1.3,5.6,2.4c1.8,1.1,3.3,2.4,4.5,4v1.1
    c4.3,5.3,6.4,11.3,6.4,18c0,7.5-1.7,13.6-5.2,18.3l-1.6,2c-1.2,1.5-2.7,2.8-4.5,3.8c-1.8,1.1-3.7,1.9-5.7,2.4c-2,0.6-3.9,1-5.8,1.2
    s-3.7,0.4-5.5,0.4c-2.7,0-5.2-0.3-7.7-1c-2.4-0.6-4.7-1.6-6.8-3c-2.1-1.4-4-3-5.6-5c-1.6-2-2.9-4.4-3.9-7.2c-1-2.8-1.6-5.9-1.8-9.3
    V53.2z M143.7,53.5c0,9.2,1.7,13.8,5.2,13.8c1,0,1.8-0.2,2.5-0.5c0.7-0.4,1.3-0.9,1.7-1.7c0.4-0.8,0.8-1.5,1.1-2.3
    c0.3-0.8,0.5-1.8,0.6-2.9s0.2-2.2,0.2-3.1c0-0.9,0.1-2,0.1-3.2v-1.4c0-1.4-0.1-2.7-0.2-3.9s-0.4-2.5-0.8-3.8c-0.4-1.3-1-2.3-1.7-3
    c-0.8-0.8-1.7-1.2-2.9-1.2c-3.9,0-5.9,3.9-5.9,11.6V53.5z"/>
  <path class='path' id="XMLID_134_" d="M179,53.2l-0.1-0.9c0.5-4.2,1-7.2,1.4-8.9c1-3.9,2.8-7.2,5.5-9.8l0.9-0.9c1.3-1.5,3.2-2.7,5.7-3.8h1.5
    c2.6-1.1,6.7-2.1,12.6-3c1.5,0,3,0.1,4.6,0.3c1.6,0.2,3.4,0.6,5.3,1.1s3.8,1.3,5.6,2.4c1.8,1.1,3.3,2.4,4.5,4v1.1
    c4.3,5.3,6.4,11.3,6.4,18c0,7.5-1.7,13.6-5.2,18.3l-1.6,2c-1.2,1.5-2.7,2.8-4.5,3.8c-1.8,1.1-3.7,1.9-5.7,2.4c-2,0.6-3.9,1-5.8,1.2
    s-3.7,0.4-5.5,0.4c-2.7,0-5.2-0.3-7.7-1c-2.4-0.6-4.7-1.6-6.8-3c-2.1-1.4-4-3-5.6-5c-1.6-2-2.9-4.4-3.9-7.2c-1-2.8-1.6-5.9-1.8-9.3
    V53.2z M200.5,53.5c0,9.2,1.7,13.8,5.2,13.8c1,0,1.8-0.2,2.5-0.5c0.7-0.4,1.3-0.9,1.7-1.7c0.4-0.8,0.8-1.5,1.1-2.3
    c0.3-0.8,0.5-1.8,0.6-2.9s0.2-2.2,0.2-3.1c0-0.9,0.1-2,0.1-3.2v-1.4c0-1.4-0.1-2.7-0.2-3.9s-0.4-2.5-0.8-3.8c-0.4-1.3-1-2.3-1.7-3
    c-0.8-0.8-1.7-1.2-2.9-1.2c-3.9,0-5.9,3.9-5.9,11.6V53.5z"/>
  <path class='path' id="XMLID_137_" d="M239.4,80.1c-0.5-0.8-0.8-1.3-0.9-1.6V27.1h17.3c0.1,0,0.3,0,0.6,0c0.3,0,0.6,0,0.8,0c0.2,0,0.4,0,0.8,0.1
    c0.3,0,0.6,0.1,0.8,0.1c0.2,0.1,0.4,0.2,0.6,0.3c0.2,0.1,0.4,0.3,0.5,0.5c0.1,0.2,0.2,0.4,0.3,0.7v17.3c0.9-1.7,2.1-4.2,3.6-7.4
    c1.5-3.2,2.7-5.6,3.4-7l1.9-4.1l3.7-0.1c0.5,0,1.3,0,2.4,0.1c1.1,0.1,1.8,0.1,2.3,0.1h3c0.2,0,0.5,0,0.9,0c0.4,0,0.7,0,0.9,0h2.3
    c0.1,0,0.3,0,0.5-0.1c4.2,0,6.3,0.3,6.3,0.9c0,0.4-0.2,0.9-0.7,1.5c-1.2,1.9-3.2,5.4-6.1,10.4c-2.8,5-5.1,8.8-6.9,11.4L293,77.9
    c0,0,0,0.1,0,0.3s0,0.3,0,0.3c0,0.1,0,0.1,0,0.3c0,0.1,0,0.2-0.1,0.3c0,0.1-0.1,0.1-0.1,0.2c0,0.1-0.1,0.2-0.2,0.2
    c-0.1,0.1-0.1,0.1-0.2,0.2c-2.4-0.2-6.1-0.2-10.9-0.2c-0.7,0-1.7,0-3,0c-1.4,0-2.4,0-3,0h-5.3v-1.1c-0.4-0.7-1.3-2.1-2.7-4.1
    c-1.4-2.1-2.4-3.7-3-4.8l-4.4-8.4v17.3c-0.4,1-1.8,1.6-4.3,1.6H239.4z"/>
  <path class='path' id="XMLID_139_" d="M296.5,79.9c-0.1-0.1-0.2-0.2-0.4-0.4c-0.2-0.1-0.4-0.4-0.6-0.7V61.9c0-2.2,0.1-5.6,0.3-10.2
    c0.2-4.6,0.3-8.1,0.3-10.4c0-0.5-0.1-1.6-0.2-3.3c-0.1-1.7-0.2-3-0.2-4c0-3.7,0.4-5.9,1.3-6.7c5.4,0.1,9.5,0.2,12.1,0.2h3.8
    c0.9,0,1.6,0,2,0.1c0.1-0.1,0.2-0.1,0.4-0.1c0.1,0,0.3,0,0.7,0.1c0.4,0.1,0.7,0.1,1,0.1c0.7,0.1,1.2,0.6,1.6,1.6v0.5
    c0,0.3,0,0.7,0,1.3c0,0.5,0,1,0,1.3V34c0,0.1-0.2,0.4-0.5,0.7c-0.3,0.3-0.4,0.6-0.4,0.8V64h16.6c0.4,0,0.7,0,0.9,0
    c0.2,0,0.4,0.1,0.6,0.4c0.2,0.2,0.3,0.5,0.3,0.9v13c-0.2,1-1.5,1.6-3.8,1.6H296.5z"/>
  <path class='path' id="XMLID_141_" d="M357.7,27.6l6.1,19.3c2-5.3,3.8-10.6,5.5-15.9c0.1-0.2,0.2-0.6,0.5-1.2c0.3-0.6,0.4-1,0.5-1.4
    c0.2-0.6,1.6-0.9,4.2-0.9c0.2,0,0.4,0,0.8,0c0.3,0,0.6,0,0.8,0c4.2-0.1,8.8-0.1,13.8-0.2c0.6,0.1,1.1,0.7,1.3,1.9l-17.7,32.1
    L374,64c0,1.5,0,3.8,0.1,6.9c0.1,3.1,0.1,5.2,0.1,6.4v1.2c-0.1,0.4-0.3,0.7-0.6,0.9c-0.3,0.2-0.7,0.4-1.3,0.4
    c-0.5,0.1-1,0.1-1.4,0.1c-0.4,0-1,0-1.7,0c-0.7,0-1.2,0-1.5,0h-14.9l-1.3-1.6V62l-9-19.3l-4.2-5.9c-2.1-4.3-3.2-7-3.2-8.2
    c0-0.7,0.6-1.1,1.9-1.1H357.7z"/>
  <path class='path' id="XMLID_143_" d="M445.1,27.7c0.3,0.1,0.6,0.6,0.7,1.3c0.2,0.8,0.3,1.8,0.3,3c0,1.2,0,2.3,0,3.4c0,1.1-0.1,2.2-0.1,3.4
    c0,1.1-0.1,1.9-0.1,2.1c-0.1,1-0.1,2.5-0.1,4.4v4.1c0,1.8,0,4.3,0.1,7.5c0.1,3.2,0.1,5.5,0.1,7v14.2c-0.1,0.9-0.8,1.3-2.2,1.3
    h-21.9c-0.5-0.1-1.1-1.2-1.8-3.3c-0.5-1.4-1.3-3.6-2.5-6.8c-1.2-3.2-2.2-5.9-3-8.3c-0.8-2.4-1.6-4.7-2.3-6.9V54v0.2
    c-0.1,1.7-0.2,4.3-0.2,7.7c-0.1,3.4-0.2,5.9-0.2,7.6v8c0,0.8-0.1,1.3-0.3,1.6c-0.2,0.3-0.7,0.5-1.4,0.7h-16.1l-1.7-1.7
    c0.1-4.3,0.2-11.1,0.3-20.3s0.2-16,0.3-20.5V29c0.3-0.9,0.6-1.4,0.9-1.4v0.2c1.8,0,4.6-0.1,8.3-0.2c3.8-0.1,6.6-0.2,8.5-0.2h6.6
    c0,0,0.1,0,0.1,0c0.5,0.2,0.7,0.4,0.8,0.6l0,0.3c0.9,2.5,1.9,5.1,2.9,7.9c1,2.7,2.1,6,3.4,9.8c1.3,3.8,2.3,6.5,2.8,7.9v-5.8
    c0.5-9.2,0.8-15.7,0.8-19.5c0-0.4,0.3-0.7,0.9-0.8c0.6-0.1,1.5-0.2,2.7-0.2H445.1z"/>
  <path class='path' id="XMLID_145_" d="M6.2,148.1v-4.3c0.3-3.6,1.1-7,2.4-10s3-5.5,5.1-7.6c2-2.1,4.4-3.8,7.1-5.2c2.7-1.4,5.5-2.5,8.4-3.1
    c2.9-0.7,6-1,9.1-1c1.7,0,3.5,0.1,5.4,0.4c1.9,0.3,3.8,0.7,5.9,1.4c2.1,0.6,4.1,1.5,6,2.8s3.5,2.6,4.7,4.3c2.6,3.2,4.4,6.5,5.6,9.9
    c1.2,3.5,1.7,7.3,1.7,11.5c0.1,8.8-1.8,15.9-5.8,21.2l-1.7,2.3c-1.5,2.1-3.7,3.8-6.5,5.2c-2.8,1.4-5.6,2.4-8.4,2.9
    c-2.8,0.5-5.7,0.8-8.5,0.8c-3.4,0-6.5-0.3-9.3-1c-2.8-0.7-5.3-1.6-7.3-2.7c-2.1-1.1-3.9-2.5-5.5-4.2c-1.6-1.6-2.9-3.4-4-5.2
    c-1-1.8-1.9-3.8-2.5-5.9c-0.7-2.1-1.1-4.2-1.4-6.2S6.2,150.2,6.2,148.1z M37.3,132.6c-1.1,0-2,0.2-2.9,0.7
    c-0.8,0.5-1.5,1.1-2.1,1.8c-0.5,0.7-1,1.6-1.4,2.8c-0.4,1.2-0.7,2.3-0.9,3.2c-0.2,1-0.3,2.1-0.4,3.6c-0.1,1.4-0.2,2.6-0.2,3.4
    c0,0.8,0,1.8,0,3.1c0,1.2,0,2.3,0.1,3.4c0.1,1.1,0.3,2.2,0.6,3.4c0.3,1.2,0.7,2.3,1.2,3.2c0.5,0.9,1.1,1.7,2,2.3
    c0.8,0.6,1.8,0.9,2.9,1c1.1,0,2.2-0.2,3-0.6c0.9-0.4,1.6-0.9,2.2-1.4c0.6-0.6,1.1-1.4,1.5-2.4c0.4-1,0.7-1.9,1-2.9
    c0.2-0.9,0.4-2,0.5-3.4c0.1-1.4,0.2-2.5,0.2-3.5c0-1,0-2.2,0-3.7c0-1.1,0-2.1-0.1-3c-0.1-0.9-0.2-2-0.3-3.1c-0.2-1.1-0.4-2.2-0.8-3
    c-0.4-0.9-0.8-1.7-1.3-2.5c-0.5-0.8-1.2-1.4-2.1-1.8C39.4,132.8,38.4,132.6,37.3,132.6z"/>
  <path class='path' id="XMLID_148_" d="M72.8,132.8c-0.1-0.5-0.2-2-0.2-4.5c0-2.8,0.3-4.5,0.8-5h21.3v32.8c0,3.4,1,5.1,3,5.1
    c0.8,0,1.5-0.4,2.1-1.1s0.8-1.6,0.8-2.6v-5.8c0.2-11.4,0.2-17.2,0.2-17.3c0-4.5-0.1-7.8-0.2-9.8c0-0.7,0.4-1.3,1.1-1.6h21.7v6.1
    c-0.3,9.9-0.5,16.2-0.6,19.1v2.4c0,0.3,0,0.7,0,1.3c0,0.5,0,0.9,0,1.1c0,0.9,0,1.5,0.1,1.9v3c0,3.6-0.4,6.2-1.1,7.8v0.2
    c-0.8,2-2,3.6-3.6,5.1c-1.6,1.4-3.3,2.5-5.4,3.3c-2,0.8-4.1,1.4-6.2,1.7s-4.3,0.5-6.7,0.5c-0.7,0-1.3-0.1-1.6-0.2h-0.9
    c0,0.3-0.4,0.4-1.2,0.4v0.1c-0.6,0-2.2-0.1-5-0.4h-1.8c-1.6-0.2-3.2-0.5-4.7-1.1s-3-1.3-4.4-2.3c-1.4-1-2.7-2.2-3.8-3.6
    c-1.1-1.4-2-3.1-2.6-5c-0.7-2-1.1-4.1-1.1-6.5c0-1.4,0-3.2,0-5.6c0-2.4,0-4.6,0-6.5c0-2,0.1-3.9,0.2-5.7v-1.1c0-0.1,0-0.3,0-0.6
    c0-0.3,0-0.5,0-0.6c0-0.4,0-1-0.1-1.8c-0.1-0.8-0.1-1.4-0.1-1.8V132.8L72.8,132.8z"/>
  <path class='path' id="XMLID_150_" d="M125.7,137.9v-14.1h45.5c0.4,0.1,0.7,0.2,0.8,0.5c0.1,0.2,0.2,0.6,0.2,1.1v12.5c-0.1,0.6-0.4,0.9-1.1,0.9
    h-11.1v35.9c0,0,0,0.1,0,0.2c0,0.1,0,0.2,0,0.2c0,0,0,0.1,0,0.2c0,0.1-0.1,0.1-0.1,0.2c0,0-0.1,0.1-0.1,0.1c0,0.1-0.1,0.1-0.1,0.1
    c0,0-0.1,0-0.2,0.1c-0.1,0-0.1,0.1-0.2,0.1c-0.1,0-0.1,0-0.2,0.1c-0.1,0-0.2,0-0.3,0.1h-2.5c-3.3,0-5-0.1-5-0.3c-0.2,0-0.5,0-0.9,0
    c-0.4,0-0.7,0-0.9,0h-3.1c-0.6,0-1.5,0-2.6,0c-1.1,0-2,0-2.6,0h-2.2l-1.6-1.1v-8.4c0-1.5,0.1-4.7,0.3-9.7c0.2-4.9,0.3-8.9,0.3-11.7
    v-1c0-0.2,0-0.5,0-1c0-0.4,0-0.8,0-1c0-0.2,0-0.7,0-1.4c0-0.7,0-1.2,0-1.4h-9.8c-0.6,0-1.1-0.1-1.6-0.3S125.7,138.4,125.7,137.9z"
    />
  <path class='path' id="XMLID_152_" d="M196.9,123.2c3.6,0,6.8,0.2,9.6,0.7s5.6,1.3,8.2,2.5c2.6,1.2,4.8,2.8,6.5,4.7c1.7,1.9,3.1,4.4,4.2,7.5
    c1,3.1,1.5,6.6,1.5,10.7c0,3-0.4,5.7-1.1,8.3c-0.7,2.6-1.7,4.8-2.9,6.6c-1.2,1.8-2.6,3.5-4.2,4.9c-1.6,1.4-3.3,2.6-5.1,3.5
    c-1.8,0.9-3.7,1.6-5.5,2.1c-1.8,0.5-3.7,0.8-5.5,0.9h-26.8v-51.9c0.1,0,0.2,0,0.4,0c0.2,0,0.4,0,0.4,0c1.1,0,2.8-0.1,5.1-0.4
    c2.3-0.2,4-0.4,5.1-0.4H196.9z M197.3,163.6c1.3,0,2.5-0.2,3.5-0.6s1.8-1,2.4-1.9c0.6-0.8,1.1-1.7,1.5-2.5c0.4-0.9,0.7-1.9,0.9-3.1
    c0.2-1.2,0.3-2.2,0.4-3.1c0.1-0.9,0.1-1.9,0.1-3.1v-2.8c0-0.2-0.1-1.1-0.2-2.7c-0.1-1.6-0.4-2.9-0.9-4.1c-0.4-0.8-0.9-1.5-1.4-2.1
    s-1-1-1.5-1.4c-0.5-0.3-1.1-0.6-1.7-0.7c-0.7-0.2-1.3-0.3-1.8-0.3c-0.5-0.1-1.2-0.1-2-0.1v0.9h-1.2v27.7H197.3z"/>
  <path class='path' id="XMLID_155_" d="M229.4,149.2l-0.1-0.9c0.5-4.2,1-7.2,1.4-8.9c1-3.9,2.8-7.2,5.5-9.8l0.9-0.9c1.3-1.5,3.2-2.7,5.7-3.7h1.5
    c2.6-1.1,6.7-2.1,12.6-3c1.5,0,3,0.1,4.6,0.3c1.6,0.2,3.4,0.6,5.3,1.1c2,0.5,3.8,1.3,5.6,2.4c1.8,1.1,3.3,2.4,4.5,4v1.1
    c4.3,5.3,6.4,11.3,6.4,18c0,7.5-1.7,13.6-5.2,18.3l-1.6,2c-1.2,1.5-2.7,2.8-4.5,3.8c-1.8,1.1-3.7,1.9-5.7,2.4c-2,0.6-3.9,1-5.8,1.2
    s-3.7,0.4-5.5,0.4c-2.7,0-5.2-0.3-7.7-1c-2.4-0.6-4.7-1.6-6.8-3c-2.1-1.4-4-3-5.6-5c-1.6-2-2.9-4.4-3.9-7.2c-1-2.8-1.6-5.9-1.8-9.3
    V149.2z M250.9,149.5c0,9.2,1.7,13.7,5.2,13.7c1,0,1.8-0.2,2.5-0.5c0.7-0.4,1.3-0.9,1.7-1.7c0.4-0.8,0.8-1.5,1.1-2.3
    c0.3-0.8,0.5-1.8,0.6-2.9s0.2-2.2,0.2-3.1c0-0.9,0.1-2,0.1-3.2v-1.4c0-1.4-0.1-2.7-0.2-3.9s-0.4-2.5-0.8-3.8c-0.4-1.3-1-2.3-1.7-3
    c-0.8-0.8-1.7-1.2-2.9-1.2c-3.9,0-5.9,3.9-5.9,11.6V149.5z"/>
  <path class='path' id="XMLID_158_" d="M286.2,149.2l-0.1-0.9c0.5-4.2,1-7.2,1.4-8.9c1-3.9,2.8-7.2,5.5-9.8l0.9-0.9c1.3-1.5,3.2-2.7,5.7-3.7h1.5
    c2.6-1.1,6.7-2.1,12.6-3c1.5,0,3,0.1,4.6,0.3c1.6,0.2,3.4,0.6,5.3,1.1s3.8,1.3,5.6,2.4c1.8,1.1,3.3,2.4,4.5,4v1.1
    c4.3,5.3,6.4,11.3,6.4,18c0,7.5-1.7,13.6-5.2,18.3l-1.6,2c-1.2,1.5-2.7,2.8-4.5,3.8c-1.8,1.1-3.7,1.9-5.7,2.4c-2,0.6-3.9,1-5.8,1.2
    s-3.7,0.4-5.5,0.4c-2.7,0-5.2-0.3-7.7-1c-2.4-0.6-4.7-1.6-6.8-3c-2.1-1.4-4-3-5.6-5c-1.6-2-2.9-4.4-3.9-7.2c-1-2.8-1.6-5.9-1.8-9.3
    V149.2z M307.7,149.5c0,9.2,1.7,13.7,5.2,13.7c1,0,1.8-0.2,2.5-0.5c0.7-0.4,1.3-0.9,1.7-1.7c0.4-0.8,0.8-1.5,1.1-2.3
    c0.3-0.8,0.5-1.8,0.6-2.9s0.2-2.2,0.2-3.1c0-0.9,0.1-2,0.1-3.2v-1.4c0-1.4-0.1-2.7-0.2-3.9s-0.4-2.5-0.8-3.8c-0.4-1.3-1-2.3-1.7-3
    c-0.8-0.8-1.7-1.2-2.9-1.2c-3.9,0-5.9,3.9-5.9,11.6V149.5z"/>
  <path class='path' id="XMLID_161_" d="M345.8,123.7h7.3c2.2,0,5.8-0.1,10.7-0.2c4.9-0.1,8.6-0.2,11.1-0.2c2.1,0,4.1,0.1,5.9,0.4s3.6,0.7,5.4,1.3
    c1.8,0.6,3.3,1.4,4.6,2.4c1.3,1,2.3,2.2,3.1,3.8c0.8,1.6,1.2,3.4,1.2,5.4c0,2.8-0.7,5.3-2,7.3c-1.3,2-3.4,3.7-6.1,5.1
    c1.1,0.5,2,1.1,2.9,1.8c0.8,0.8,1.4,1.4,1.9,2s0.8,1.5,1.3,2.8c0.4,1.3,0.6,2.1,0.7,2.5c0.1,0.4,0.2,1.4,0.5,3
    c0.1,0.4,0.1,0.6,0.2,0.8c0.1,1,0.5,2.9,1.3,5.7s1.2,4.9,1.2,6.4c0,0.9-0.3,1.4-0.9,1.4c-1.6,0-3.9,0-7.1,0c-3.2,0-5.5,0-7.1,0
    c-0.6-0.1-1.6-0.1-2.8-0.1h-2.7c-0.5-0.2-1-1-1.5-2.4c-0.5-1.5-0.8-3.1-1.1-4.9l-0.9-7c-0.2-0.6-0.3-1-0.4-1.2
    c-0.1-0.2-0.3-0.5-0.5-0.9s-0.6-0.6-1-0.7c-0.4-0.1-0.9-0.2-1.5-0.2h-1.8v15.6c0,0.1,0,0.2,0,0.4c0,0.2,0,0.3,0,0.4
    c0,0.1,0,0.2,0,0.3c0,0.1,0,0.2,0,0.3c0,0.1-0.1,0.2-0.1,0.3c0,0.1-0.1,0.2-0.1,0.2s-0.1,0.1-0.2,0.2c-0.1,0.1-0.1,0.1-0.2,0.1
    c-0.1,0-0.2,0.1-0.3,0.1c-0.1,0-0.3,0-0.4,0h-20.5V123.7z M368,144.3c0.1,0.1,0.1,0.2,0.2,0.3c0.1,0.2,0.2,0.3,0.3,0.4
    c0.1,0.1,0.2,0.2,0.3,0.2c0.8,0,1.6-0.1,2.3-0.3c0.8-0.2,1.6-0.4,2.4-0.8s1.5-1,2-1.8c0.5-0.8,0.8-1.8,0.8-2.9
    c0-2.7-2.6-4.1-7.8-4.1c-0.5,0.1-0.8,0.3-0.8,0.6v1.5c0,0.8,0,1.9,0.1,3.4C367.9,142.4,368,143.6,368,144.3z"/>
  <path class='path' id="XMLID_164_" d="M425,172v-52.2c0-0.9,2-1.3,6.1-1.3c0.4,0,1.1,0,1.9,0c0.8,0,1.4,0,1.7,0c2.1,0,5.1,0,9.2-0.1
    c4.1-0.1,7.2-0.1,9.2-0.1c1.4,0,3.6,0,6.4,0.1c2.8,0.1,5,0.1,6.6,0.1c0.2,0,0.5,0,0.9,0c0.4,0,0.7,0,0.9,0c0.9,0,1.6,0.2,2,0.5
    c0.4,0.4,0.5,1,0.5,2.1v13.7c-1.5,0.1-3.1,0.2-4.7,0.3s-3.7,0.1-6.3,0.1c-2.5,0-4.1,0-4.7,0h-5.4c0,0.5,0,1.2,0,2.1
    c0,0.9,0,1.7,0,2.1v0.5c0.1,0.1,0.1,0.3,0.1,0.5c5.9-0.4,10.9-0.6,15-0.6c1.2,0,2.3,0.1,3.3,0.3c1,0.2,1.4,0.5,1.4,0.8v13
    c0,1.1-0.2,1.9-0.7,2.3c-0.4,0.4-1.1,0.6-2.1,0.6c-0.2,0-0.6,0-1.1-0.1c-0.5-0.1-1-0.1-1.3-0.1c-5.3,0.3-10.1,0.5-14.5,0.6
    c0,1.6,0,4,0.1,7.2s0.1,5.6,0.1,7.2v4.8c0,0.8-0.1,1.3-0.2,1.5c-0.2,0.2-0.5,0.4-1.2,0.5c-2.5,0-6.2,0-11.1,0.1
    c-4.9,0.1-8.6,0.1-11.1,0.1c-0.2-0.3-0.4-0.7-0.5-1c-0.1-0.4-0.3-0.7-0.3-1c-0.1-0.3-0.1-0.7-0.2-1.2s-0.1-0.9-0.1-1.1
    c0-0.2,0-0.6,0-1.3C425,172.5,425,172.1,425,172z"/>
  <path class='path' id="XMLID_166_" d="M473.3,176v-51.3c0-0.2,0.2-0.4,0.6-0.6c0.4-0.2,0.6-0.3,0.7-0.4h21v50.9c-0.1,0.5-0.3,0.9-0.4,1.1
    s-0.3,0.3-0.6,0.3H473.3z"/>
  <path class='path' id="XMLID_168_" d="M503.7,175.9c-0.1-0.1-0.2-0.2-0.4-0.4c-0.2-0.1-0.4-0.4-0.6-0.7v-16.9c0-2.2,0.1-5.6,0.3-10.2
    c0.2-4.6,0.3-8.1,0.3-10.4c0-0.5-0.1-1.6-0.2-3.3c-0.1-1.7-0.2-3-0.2-4c0-3.7,0.4-5.9,1.3-6.7c5.4,0.1,9.5,0.2,12.1,0.2h3.8
    c0.9,0,1.6,0,2,0.1c0.1-0.1,0.2-0.1,0.4-0.1c0.1,0,0.3,0,0.7,0.1c0.4,0.1,0.7,0.1,1,0.1c0.7,0.1,1.2,0.6,1.6,1.6v0.5
    c0,0.3,0,0.7,0,1.3c0,0.5,0,1,0,1.2v1.7c0,0.1-0.2,0.4-0.5,0.7c-0.3,0.3-0.4,0.6-0.4,0.8V160h16.6c0.4,0,0.7,0,0.9,0
    c0.2,0,0.4,0.1,0.6,0.4c0.2,0.2,0.3,0.5,0.3,0.9v13c-0.2,1-1.5,1.6-3.8,1.6H503.7z"/>
  <path class='path' id="XMLID_170_" d="M575.5,123.9c0.2-0.1,0.5-0.1,0.9-0.1c0.4,0,0.7-0.1,0.8-0.1l4.6,23.8l6.1-23.9h27.5
    c0.7,0,1.1,1.5,1.1,4.6v46c-0.1,0.4-0.2,0.8-0.4,1c-0.2,0.3-0.4,0.4-0.8,0.5c-0.4,0.1-0.6,0.1-0.8,0.2c-0.2,0-0.5,0-1,0
    c-1.6,0-4.1,0-7.5,0.1c-3.3,0.1-5.9,0.1-7.5,0.1c-1.3-0.8-2-3.8-2-9c0-1.3,0-3,0.1-5.1c0.1-2.1,0.1-3.7,0.1-4.7v-3.4
    c0-0.2,0-0.5,0-0.9c0-0.4,0-0.7,0-0.9c0-0.9,0.1-2.3,0.2-4.3v3c-0.4,1.5-1.1,3.9-2.1,7c-1,3.2-1.7,5.5-2.1,7l-2.3,10
    c-0.4,0.7-1.7,1.1-3.9,1.1c-1.1,0-2.5,0-4.2-0.1c-1.7-0.1-3-0.1-3.9-0.1c-0.3,0-0.7,0-1.3,0c-0.6,0-1,0-1.2,0
    c-0.8,0-1.4-0.1-1.8-0.3c-0.4-0.2-0.6-0.6-0.8-1.3c-2.4-10.9-4.1-18.5-5.1-23l-1.4-6.7c-0.4,7.6-0.5,15.6-0.5,24.1v6.9h-18.4
    c0-0.2,0-0.5,0.1-1c0.1-0.5,0.1-0.8,0.1-0.9c-0.2-5-0.3-11.2-0.3-18.5c0-2.2,0-5.2,0-8.8c0-3.7,0-6.2,0-7.6v-13.8
    c0-0.3,0.1-0.6,0.2-0.8c0.1-0.2,0.4-0.4,0.8-0.7h3.6c1.3,0,2.2,0,2.8-0.1c2.6,0,5.8,0.1,9.6,0.4c3.8,0.2,6.1,0.4,7.1,0.4H575.5z"/>
  <path class='path' id="XMLID_172_" d="M9.2,268v-52.2c0-0.9,2-1.3,6.1-1.3c0.4,0,1.1,0,1.9,0c0.8,0,1.4,0,1.7,0c2.1,0,5.1,0,9.2-0.1
    c4.1-0.1,7.2-0.1,9.2-0.1c1.4,0,3.6,0,6.4,0.1c2.8,0.1,5,0.1,6.6,0.1c0.2,0,0.5,0,0.9,0c0.4,0,0.7,0,0.9,0c0.9,0,1.6,0.2,2,0.5
    c0.4,0.4,0.5,1,0.5,2.1v13.7c-1.5,0.1-3.1,0.2-4.7,0.3s-3.7,0.1-6.3,0.1c-2.5,0-4.1,0-4.7,0h-5.4c0,0.5,0,1.2,0,2.1
    c0,0.9,0,1.7,0,2.1v0.5c0.1,0.1,0.1,0.3,0.1,0.5c5.9-0.4,10.9-0.6,15-0.6c1.2,0,2.3,0.1,3.3,0.3c1,0.2,1.4,0.5,1.4,0.8v13
    c0,1.1-0.2,1.9-0.7,2.3c-0.4,0.4-1.1,0.6-2.1,0.6c-0.2,0-0.6,0-1.1-0.1c-0.5-0.1-1-0.1-1.3-0.1c-5.3,0.3-10.1,0.5-14.5,0.6
    c0,1.6,0,4,0.1,7.2s0.1,5.6,0.1,7.2v4.8c0,0.8-0.1,1.3-0.2,1.5c-0.2,0.2-0.5,0.4-1.2,0.5c-2.5,0-6.2,0-11.1,0.1
    c-4.9,0.1-8.6,0.1-11.1,0.1c-0.2-0.3-0.4-0.7-0.5-1c-0.1-0.4-0.3-0.7-0.3-1c-0.1-0.3-0.1-0.7-0.2-1.2s-0.1-0.9-0.1-1.1
    c0-0.2,0-0.6,0-1.3C9.2,268.5,9.2,268.1,9.2,268z"/>
  <path class='path' id="XMLID_174_" d="M58,223c0-1.6,0.1-2.5,0.2-2.7c0.2-0.4,0.6-0.5,1.1-0.5h0.9c0.4,0,0.7,0,0.9,0.1h2c2.6,0,6.6-0.1,11.9-0.2
    c5.3-0.1,9.3-0.2,12-0.2h10.4c0.7,0.1,1,0.4,1,1v13c0,0.2-0.1,0.3-0.1,0.4c-0.1,0.1-0.1,0.2-0.2,0.2s-0.2,0.1-0.4,0.3
    c-0.2,0.1-0.4,0.3-0.4,0.3H79.2v4.8h1.7c1.5,0,3.8-0.1,6.9-0.2c3.1-0.1,5.5-0.2,7.1-0.2c0.7,0,1.2,0.1,1.5,0.4
    c0.3,0.3,0.4,0.7,0.4,1.2c0,0.1,0,0.4-0.1,0.7c-0.1,0.3-0.1,0.5-0.1,0.7v1.5c0,0.1,0,0.3,0,0.6c0,0.3,0,0.6,0,0.8v1.1
    c0,0.6,0,1.1,0.1,1.7c0.1,0.6,0.1,1.1,0.1,1.5v1c-0.1,0.3-0.2,0.5-0.3,0.6c-0.1,0.1-0.2,0.2-0.4,0.2v-0.1c-1,0-2.6,0.1-5,0.2
    c-2.4,0.1-4.2,0.2-5.6,0.2h-6.3v5c0.2,0,0.5,0,0.9,0c0.4,0,0.7,0,0.9,0c1.2,0,2.9,0,5.2-0.1c2.3-0.1,3.9-0.1,5-0.1h5
    c1.4,0,2.2,0.2,2.6,0.5c0.1,0.2,0.2,0.3,0.3,0.5v12.5c0,0.5-0.1,1-0.3,1.3c-0.2,0.3-0.6,0.4-1.2,0.5H59.1l-1.2-1V223z"/>
  <path class='path' id="XMLID_176_" d="M134,234.9c-0.7,0-1.3-0.1-1.7-0.3c-0.4-0.2-0.8-0.5-1.1-0.8c-0.3-0.3-0.6-0.6-0.9-0.9
    c-0.3-0.3-0.8-0.6-1.5-0.8c-0.7-0.2-1.6-0.3-2.7-0.3c-0.3,0-0.7,0-1.2,0.1c-0.5,0.1-1,0.2-1.6,0.5c-0.6,0.3-0.9,0.7-0.9,1.1
    c0,0.5,0.2,0.9,0.7,1.3c0.5,0.4,1,0.6,1.6,0.7c0.6,0.1,1.3,0.3,2.1,0.5c0.8,0.2,1.3,0.4,1.6,0.5l5.7,1.4c1.7,0.5,3.2,1,4.6,1.5
    c1.4,0.5,2.8,1.2,4.3,2.1s2.8,1.9,3.8,3s1.9,2.5,2.5,4.1c0.7,1.7,1,3.5,1,5.4c0,2.4-0.3,4.5-0.9,6.4v-0.1c-0.5,1.7-1.3,3.2-2.3,4.5
    c-1,1.3-2.2,2.4-3.5,3.3c-1.4,0.9-2.7,1.6-4.1,2.2c-1.4,0.6-3,1.1-4.8,1.4c-1.8,0.4-3.4,0.6-4.8,0.8c-1.4,0.2-3.1,0.3-4.9,0.4
    c-8.2-0.4-13.7-1.7-16.5-3.9v-0.5c-2.4-1.8-4.1-3.7-5.3-5.8c-1.1-2.1-1.8-4.4-2-7c0-0.6,0.3-0.9,0.9-0.9c0.2,0,0.4,0,0.7,0
    c0.3,0,0.5,0,0.7,0h4c0.4-0.1,0.9-0.1,1.6-0.1h1c0.2,0,0.4,0,0.5,0.1c1.5-0.1,4.1-0.1,7.7-0.1h1.8c0.5,0,0.9,0.2,1.2,0.5
    c0.3,0.3,0.5,0.7,0.7,1.2c0.2,0.5,0.4,0.9,0.6,1.4c0.2,0.5,0.6,0.8,1.2,1.2c0.6,0.3,1.3,0.5,2.3,0.5c1,0,1.9-0.3,2.8-0.8
    c0.8-0.5,1.2-1.3,1.2-2.3c0-0.5-0.2-0.9-0.7-1.3c-0.4-0.4-1.1-0.8-2-1.1c-0.9-0.3-1.7-0.6-2.4-0.8c-0.7-0.2-1.6-0.5-2.8-0.7
    c-1.2-0.3-1.9-0.5-2.3-0.6h-2.3c-5.7-1.7-9.7-3.8-12.2-6.3c-2.5-2.6-3.7-5.8-3.7-9.7c0-2.6,0.5-4.9,1.5-7c1-2.1,2.3-3.8,3.9-5.1
    s3.5-2.4,5.6-3.3c2.2-0.9,4.4-1.5,6.6-1.9c2.2-0.4,4.6-0.6,7-0.6c4.2,0,8.2,0.7,11.8,2.1c3.6,1.4,6.4,3.3,8.3,5.5
    c0.7,0.7,1.2,1.5,1.6,2.6c0.4,1,0.7,1.9,0.8,2.5c0.1,0.6,0.3,1.6,0.4,3.1l-1.1,1.6h-6.6c-0.7,0-1.9,0-3.6-0.1
    C136.2,234.9,134.9,234.9,134,234.9z"/>
  <path class='path' id="XMLID_178_" d="M151.1,233.9v-14.1h45.5c0.4,0.1,0.7,0.2,0.8,0.5c0.1,0.2,0.2,0.6,0.2,1.1v12.5c-0.1,0.6-0.4,0.9-1.1,0.9
    h-11.1v35.9c0,0,0,0.1,0,0.2c0,0.1,0,0.2,0,0.2c0,0,0,0.1,0,0.2c0,0.1-0.1,0.1-0.1,0.2c0,0-0.1,0.1-0.1,0.1c0,0.1-0.1,0.1-0.1,0.1
    c0,0-0.1,0-0.2,0.1c-0.1,0-0.1,0.1-0.2,0.1c-0.1,0-0.1,0-0.2,0.1c-0.1,0-0.2,0-0.3,0.1h-2.5c-3.3,0-5-0.1-5-0.3c-0.2,0-0.5,0-0.9,0
    c-0.4,0-0.7,0-0.9,0h-3.1c-0.6,0-1.5,0-2.6,0c-1.1,0-2,0-2.6,0h-2.2l-1.6-1.1v-8.4c0-1.5,0.1-4.7,0.3-9.7c0.2-4.9,0.3-8.9,0.3-11.7
    v-1c0-0.2,0-0.5,0-1c0-0.4,0-0.8,0-1c0-0.2,0-0.7,0-1.4c0-0.7,0-1.2,0-1.4h-9.8c-0.6,0-1.1-0.1-1.6-0.3S151.1,234.4,151.1,233.9z"
    />
  <path class='path' id="XMLID_180_" d="M200,272v-51.3c0-0.2,0.2-0.4,0.6-0.6c0.4-0.2,0.6-0.3,0.7-0.4h21v50.9c-0.1,0.5-0.3,0.9-0.4,1.1
    s-0.3,0.3-0.6,0.3H200z"/>
  <path class='path' id="XMLID_182_" d="M256.1,239.1c0.2-1,0.7-2.9,1.5-5.7c0.8-2.8,1.3-5,1.5-6.7V224c0-0.1,0-0.3,0.1-0.7
    c0.1-0.4,0.1-0.6,0.1-0.7c0-0.1,0.1-0.3,0.1-0.6c0.1-0.3,0.1-0.5,0.2-0.6c0.1-0.1,0.2-0.3,0.3-0.5s0.2-0.4,0.4-0.5
    c0.1-0.1,0.3-0.2,0.5-0.3c0.2-0.1,0.4-0.2,0.7-0.3c0.2-0.1,0.5-0.1,0.8-0.1H280c0.1,0,0.2,0.1,0.5,0.3c0.3,0.2,0.5,0.3,0.6,0.5
    c0.2,0.1,0.3,0.2,0.3,0.3l-13.1,47.1c-0.3,1.1-0.6,2-1.1,2.8s-0.9,1.1-1.5,1.1h-26.7c-0.4-1.7-0.9-3.6-1.4-5.9s-1.1-4.5-1.6-6.8
    c-0.5-2.3-1-4.2-1.4-5.9l-9.5-32.3c0-0.6,0.4-1,1.3-1.2v-0.2c1.6,0,3.9,0,7.1-0.1c3.2-0.1,5.5-0.1,6.9-0.1h6.4c0.2,0,0.3,0,0.4,0.1
    c0.1,0.1,0.1,0.2,0.2,0.4c0.1,0.2,0.2,0.4,0.4,0.5l5.6,32.4l3.4-9.5L256.1,239.1z"/>
  <path class='path' id="XMLID_184_" d="M302.2,263.8c-0.2,0.6-0.4,1.4-0.5,2.4c-0.2,1-0.3,1.7-0.5,2.3c-0.1,0.6-0.4,1.1-0.7,1.8
    c-0.3,0.6-0.9,1.1-1.5,1.3c-0.7,0.3-1.6,0.4-2.7,0.4h-16.9v-1.3c1.4-4.1,3.4-10.5,6-19.1c2.6-8.6,4.7-15.1,6.2-19.5v0.1
    c0.9-2.5,2.2-6.5,3.9-11.9c0-0.1,0.1-0.1,0.1-0.2c0.2-0.4,0.5-0.7,0.7-0.9l21.1,0.2c3.6,0,5.6,0.3,5.9,0.9v1
    c0.1,0.2,0.3,0.8,0.9,1.8c2.5,7.7,4.4,13.4,5.5,16.9v0.5c0.1,0.8,0.3,1.6,0.7,2.6c0.4,1,0.8,2,1.3,3.1c0.5,1.1,0.9,2,1.1,2.6
    l1.6,5.6c0.9,3,2.3,7.1,4,12.1v-0.1v0.8c0.1,0.4,0.3,0.9,0.6,1.5s0.5,1.1,0.6,1.3c0,0.7-0.2,1.2-0.4,1.4c-0.3,0.2-0.9,0.3-1.7,0.3
    h-18.1c-0.4-0.1-0.7-0.1-0.9-0.1c-0.1,0-0.3-0.1-0.6-0.2s-0.5-0.2-0.6-0.3c-0.1-0.1-0.2-0.3-0.2-0.5l-1.5-5.9
    c-0.1-0.5-0.2-0.8-0.3-0.8c-0.1-0.1-0.4-0.1-0.9-0.1H302.2z M312.6,245.2c-0.2-0.7-0.4-1.9-0.7-3.5c-0.3-1.6-0.6-3-0.9-4.3
    c-0.3-1.2-0.6-2.3-0.9-3.4v-1.9c-0.2-0.5-0.6-0.9-1.1-1.2v0.1c-0.6,0.1-1.3,1.9-1.9,5.2v1.9c-0.1,0.2-0.2,0.4-0.4,0.5
    c-0.2,0.2-0.3,0.2-0.3,0.3c-0.9,3.8-1.6,6.9-2.1,9.2c0,0.3-0.1,0.7-0.2,1.4c-0.1,0.7-0.2,1-0.2,1.1h9.7c0-0.7-0.2-1.9-0.7-3.7v-0.9
    c0-0.1-0.1-0.2-0.2-0.4C312.7,245.4,312.6,245.3,312.6,245.2z"/>
  <path class='path' id="XMLID_187_" d="M342.6,271.9c-0.1-0.1-0.2-0.2-0.4-0.4c-0.2-0.1-0.4-0.4-0.6-0.7v-16.9c0-2.2,0.1-5.6,0.3-10.2
    c0.2-4.6,0.3-8.1,0.3-10.4c0-0.5-0.1-1.6-0.2-3.3c-0.1-1.7-0.2-3-0.2-4c0-3.7,0.4-5.9,1.3-6.7c5.4,0.1,9.5,0.2,12.1,0.2h3.8
    c0.9,0,1.6,0,2,0.1c0.1-0.1,0.2-0.1,0.4-0.1c0.1,0,0.3,0,0.7,0.1c0.4,0.1,0.7,0.1,1,0.1c0.7,0.1,1.2,0.6,1.6,1.6v0.5
    c0,0.3,0,0.7,0,1.3c0,0.5,0,1,0,1.3v1.7c0,0.1-0.2,0.4-0.5,0.7c-0.3,0.3-0.4,0.6-0.4,0.8V256h16.6c0.4,0,0.7,0,0.9,0
    c0.2,0,0.4,0.1,0.6,0.4c0.2,0.2,0.3,0.5,0.3,0.9v13c-0.2,1-1.5,1.6-3.8,1.6H342.6z"/>
</g>
<g id="XMLID_3_">
  <path class="path1" id="XMLID_5_" d="M394.4,267.5c0-1,0.1-1.7,0.3-2.1c0.2-0.4,0.5-0.7,1.1-0.7h8.3c2.3,0,6.2,0,11.6,0c5.4,0,9.3,0,11.6,0
    c4.3,0,6.9,0.1,7.5,0.2c1.1,0.2,1.7,0.6,2,1.4c0.1,0.4,0.2,1.3,0.2,2.5c0,1.1-0.4,1.7-1.1,1.7h-6.5c-10.5,0-21.6,0.3-33.4,0.9
    l-1.3-1.6C394.5,268.4,394.4,267.7,394.4,267.5z"/>
</g>
<g id="XMLID_54_">
  <path class='path2' id="XMLID_69_" d="M10.6,14.3V5.1c0-0.2,0.4-0.2,1.1-0.2c0.1,0,0.2,0,0.3,0s0.2,0,0.3,0c0.4,0,0.9,0,1.6,0s1.3,0,1.6,0
    c0.3,0,0.6,0,1.1,0s0.9,0,1.2,0c0,0,0.1,0,0.2,0s0.1,0,0.2,0c0.2,0,0.3,0,0.3,0.1s0.1,0.2,0.1,0.4v2.4c-0.3,0-0.5,0-0.8,0
    s-0.7,0-1.1,0s-0.7,0-0.8,0h-0.9c0,0.1,0,0.2,0,0.4s0,0.3,0,0.4v0.1c0,0,0,0.1,0,0.1c1-0.1,1.9-0.1,2.6-0.1c0.2,0,0.4,0,0.6,0
    s0.2,0.1,0.2,0.1v2.3c0,0.2,0,0.3-0.1,0.4s-0.2,0.1-0.4,0.1c0,0-0.1,0-0.2,0s-0.2,0-0.2,0c-0.9,0.1-1.8,0.1-2.5,0.1
    c0,0.3,0,0.7,0,1.3s0,1,0,1.3v0.8c0,0.1,0,0.2,0,0.3s-0.1,0.1-0.2,0.1c-0.4,0-1.1,0-1.9,0s-1.5,0-1.9,0c0-0.1-0.1-0.1-0.1-0.2
    s0-0.1-0.1-0.2s0-0.1,0-0.2s0-0.2,0-0.2s0-0.1,0-0.2S10.6,14.3,10.6,14.3z"/>
  <path class='path2' id="XMLID_71_" d="M18.7,10.3l0-0.2c0.1-0.7,0.2-1.3,0.2-1.6c0.2-0.7,0.5-1.3,1-1.7l0.2-0.2c0.2-0.3,0.6-0.5,1-0.7h0.3
    c0.4-0.2,1.2-0.4,2.2-0.5c0.3,0,0.5,0,0.8,0.1s0.6,0.1,0.9,0.2s0.7,0.2,1,0.4s0.6,0.4,0.8,0.7v0.2c0.7,0.9,1.1,2,1.1,3.1
    c0,1.3-0.3,2.4-0.9,3.2L27,13.8c-0.2,0.3-0.5,0.5-0.8,0.7s-0.6,0.3-1,0.4s-0.7,0.2-1,0.2s-0.6,0.1-1,0.1c-0.5,0-0.9-0.1-1.3-0.2
    s-0.8-0.3-1.2-0.5s-0.7-0.5-1-0.9s-0.5-0.8-0.7-1.3s-0.3-1-0.3-1.6V10.3z M22.5,10.3c0,1.6,0.3,2.4,0.9,2.4c0.2,0,0.3,0,0.4-0.1
    s0.2-0.2,0.3-0.3s0.1-0.3,0.2-0.4s0.1-0.3,0.1-0.5s0-0.4,0-0.5s0-0.3,0-0.6v-0.2c0-0.2,0-0.5,0-0.7S24.4,9,24.3,8.7
    S24.1,8.3,24,8.2S23.7,8,23.5,8c-0.7,0-1,0.7-1,2V10.3z"/>
  <path class='path2' id="XMLID_74_" d="M29.1,5.8h1.3c0.4,0,1,0,1.9,0c0.9,0,1.5,0,1.9,0c0.4,0,0.7,0,1,0.1s0.6,0.1,1,0.2s0.6,0.2,0.8,0.4
    s0.4,0.4,0.5,0.7s0.2,0.6,0.2,1c0,0.5-0.1,0.9-0.3,1.3s-0.6,0.6-1.1,0.9c0.2,0.1,0.4,0.2,0.5,0.3s0.2,0.2,0.3,0.3s0.1,0.3,0.2,0.5
    s0.1,0.4,0.1,0.4s0,0.2,0.1,0.5c0,0.1,0,0.1,0,0.1c0,0.2,0.1,0.5,0.2,1s0.2,0.9,0.2,1.1c0,0.2-0.1,0.2-0.2,0.2c-0.3,0-0.7,0-1.2,0
    s-1,0-1.2,0c-0.1,0-0.3,0-0.5,0h-0.5c-0.1,0-0.2-0.2-0.3-0.4s-0.1-0.5-0.2-0.9l-0.2-1.2c0-0.1,0-0.2-0.1-0.2s0-0.1-0.1-0.2
    s-0.1-0.1-0.2-0.1s-0.2,0-0.3,0H33v2.7c0,0,0,0,0,0.1s0,0.1,0,0.1s0,0,0,0.1s0,0,0,0.1s0,0,0,0s0,0,0,0s0,0,0,0s0,0,0,0s0,0-0.1,0
    s0,0-0.1,0h-3.6V5.8z M33,9.4C33,9.4,33,9.5,33,9.4c0.1,0.1,0.1,0.1,0.1,0.1s0,0,0.1,0c0.1,0,0.3,0,0.4,0s0.3-0.1,0.4-0.1
    s0.3-0.2,0.3-0.3s0.1-0.3,0.1-0.5c0-0.5-0.5-0.7-1.4-0.7C33,7.9,33,7.9,33,8v0.3c0,0.1,0,0.3,0,0.6S33,9.3,33,9.4z"/>
  <path class='path2' id="XMLID_77_" d="M47.9,5.9c0,0,0.1,0,0.2,0s0.1,0,0.1,0L49,10l1.1-4.2h4.8c0.1,0,0.2,0.3,0.2,0.8v8.1c0,0.1,0,0.1-0.1,0.2
    s-0.1,0.1-0.1,0.1s-0.1,0-0.1,0s-0.1,0-0.2,0c-0.3,0-0.7,0-1.3,0s-1,0-1.3,0c-0.2-0.1-0.3-0.7-0.3-1.6c0-0.2,0-0.5,0-0.9
    s0-0.6,0-0.8v-0.6c0,0,0-0.1,0-0.2s0-0.1,0-0.2c0-0.2,0-0.4,0-0.8v0.5c-0.1,0.3-0.2,0.7-0.4,1.2s-0.3,1-0.4,1.2l-0.4,1.8
    c-0.1,0.1-0.3,0.2-0.7,0.2c-0.2,0-0.4,0-0.7,0s-0.5,0-0.7,0c0,0-0.1,0-0.2,0s-0.2,0-0.2,0c-0.1,0-0.3,0-0.3-0.1s-0.1-0.1-0.1-0.2
    c-0.4-1.9-0.7-3.2-0.9-4l-0.2-1.2c-0.1,1.3-0.1,2.7-0.1,4.2v1.2H43c0,0,0-0.1,0-0.2s0-0.1,0-0.2c0-0.9-0.1-2-0.1-3.2
    c0-0.4,0-0.9,0-1.5s0-1.1,0-1.3V6c0-0.1,0-0.1,0-0.1s0.1-0.1,0.1-0.1h0.6c0.2,0,0.4,0,0.5,0c0.5,0,1,0,1.7,0.1s1.1,0.1,1.2,0.1
    H47.9z"/>
  <path class='path2' id="XMLID_79_" d="M55.9,10.3l0-0.2c0.1-0.7,0.2-1.3,0.2-1.6c0.2-0.7,0.5-1.3,1-1.7l0.2-0.2c0.2-0.3,0.6-0.5,1-0.7h0.3
    c0.4-0.2,1.2-0.4,2.2-0.5c0.3,0,0.5,0,0.8,0.1s0.6,0.1,0.9,0.2s0.7,0.2,1,0.4s0.6,0.4,0.8,0.7v0.2c0.7,0.9,1.1,2,1.1,3.1
    c0,1.3-0.3,2.4-0.9,3.2l-0.3,0.3c-0.2,0.3-0.5,0.5-0.8,0.7s-0.6,0.3-1,0.4s-0.7,0.2-1,0.2s-0.6,0.1-1,0.1c-0.5,0-0.9-0.1-1.3-0.2
    s-0.8-0.3-1.2-0.5s-0.7-0.5-1-0.9s-0.5-0.8-0.7-1.3s-0.3-1-0.3-1.6V10.3z M59.7,10.3c0,1.6,0.3,2.4,0.9,2.4c0.2,0,0.3,0,0.4-0.1
    s0.2-0.2,0.3-0.3s0.1-0.3,0.2-0.4s0.1-0.3,0.1-0.5s0-0.4,0-0.5s0-0.3,0-0.6v-0.2c0-0.2,0-0.5,0-0.7S61.6,9,61.5,8.7
    s-0.2-0.4-0.3-0.5S60.9,8,60.7,8c-0.7,0-1,0.7-1,2V10.3z"/>
  <path class='path2' id="XMLID_82_" d="M71,9.2c0-0.2,0.1-0.5,0.3-1s0.2-0.9,0.3-1.2V6.6c0,0,0,0,0-0.1s0-0.1,0-0.1s0,0,0-0.1s0-0.1,0-0.1
    s0,0,0-0.1s0-0.1,0.1-0.1s0.1,0,0.1-0.1s0.1,0,0.1,0s0.1,0,0.1,0h3.1c0,0,0,0,0.1,0.1s0.1,0.1,0.1,0.1s0,0,0.1,0.1l-2.3,8.2
    c-0.1,0.2-0.1,0.4-0.2,0.5s-0.2,0.2-0.3,0.2H68c-0.1-0.3-0.2-0.6-0.3-1s-0.2-0.8-0.3-1.2s-0.2-0.7-0.3-1L65.5,6
    c0-0.1,0.1-0.2,0.2-0.2v0c0.3,0,0.7,0,1.2,0s1,0,1.2,0h1.1c0,0,0.1,0,0.1,0s0,0,0,0.1s0,0.1,0.1,0.1l1,5.7l0.6-1.7L71,9.2z"/>
  <path class='path2' id="XMLID_84_" d="M75.7,15V6c0,0,0-0.1,0.1-0.1S76,5.8,76,5.8h3.7v8.9c0,0.1,0,0.2-0.1,0.2S79.5,15,79.5,15H75.7z"/>
  <path class='path2' id="XMLID_86_" d="M80.9,6.4c0-0.3,0-0.4,0-0.5c0-0.1,0.1-0.1,0.2-0.1h0.2c0.1,0,0.1,0,0.2,0h0.4c0.5,0,1.2,0,2.1,0
    s1.6,0,2.1,0h1.8c0.1,0,0.2,0.1,0.2,0.2v2.3c0,0,0,0.1,0,0.1s0,0,0,0s0,0-0.1,0s-0.1,0-0.1,0.1h-3.2v0.8h0.3c0.3,0,0.7,0,1.2,0
    s1,0,1.3,0c0.1,0,0.2,0,0.3,0.1s0.1,0.1,0.1,0.2c0,0,0,0.1,0,0.1s0,0.1,0,0.1V10c0,0,0,0.1,0,0.1s0,0.1,0,0.1v0.2
    c0,0.1,0,0.2,0,0.3s0,0.2,0,0.3v0.2c0,0.1,0,0.1-0.1,0.1s0,0-0.1,0v0c-0.2,0-0.5,0-0.9,0s-0.7,0-1,0h-1.1v0.9c0,0,0.1,0,0.2,0
    s0.1,0,0.2,0c0.2,0,0.5,0,0.9,0s0.7,0,0.9,0h0.9c0.2,0,0.4,0,0.5,0.1c0,0,0,0.1,0.1,0.1v2.2c0,0.1,0,0.2-0.1,0.2s-0.1,0.1-0.2,0.1
    h-6.8l-0.2-0.2V6.4z"/>
  <path class='path2' id="XMLID_88_" d="M93.2,15C93.2,14.9,93.2,14.9,93.2,15c-0.1-0.1-0.1-0.1-0.2-0.2v-3c0-0.4,0-1,0-1.8s0-1.4,0-1.8
    c0-0.1,0-0.3,0-0.6s0-0.5,0-0.7c0-0.6,0.1-1,0.2-1.2c0.9,0,1.7,0,2.1,0h0.7c0.2,0,0.3,0,0.4,0c0,0,0,0,0.1,0c0,0,0,0,0.1,0
    s0.1,0,0.2,0c0.1,0,0.2,0.1,0.3,0.3v0.1c0,0.1,0,0.1,0,0.2s0,0.2,0,0.2v0.3c0,0,0,0.1-0.1,0.1s-0.1,0.1-0.1,0.1v5h2.9
    c0.1,0,0.1,0,0.2,0s0.1,0,0.1,0.1s0.1,0.1,0.1,0.2v2.3c0,0.2-0.3,0.3-0.7,0.3H93.2z"/>
  <path class='path2' id="XMLID_90_" d="M100.3,10.3l0-0.2c0.1-0.7,0.2-1.3,0.2-1.6c0.2-0.7,0.5-1.3,1-1.7l0.2-0.2c0.2-0.3,0.6-0.5,1-0.7h0.3
    c0.4-0.2,1.2-0.4,2.2-0.5c0.3,0,0.5,0,0.8,0.1s0.6,0.1,0.9,0.2s0.7,0.2,1,0.4s0.6,0.4,0.8,0.7v0.2c0.7,0.9,1.1,2,1.1,3.1
    c0,1.3-0.3,2.4-0.9,3.2l-0.3,0.3c-0.2,0.3-0.5,0.5-0.8,0.7s-0.6,0.3-1,0.4s-0.7,0.2-1,0.2s-0.6,0.1-1,0.1c-0.5,0-0.9-0.1-1.3-0.2
    s-0.8-0.3-1.2-0.5s-0.7-0.5-1-0.9s-0.5-0.8-0.7-1.3s-0.3-1-0.3-1.6V10.3z M104.1,10.3c0,1.6,0.3,2.4,0.9,2.4c0.2,0,0.3,0,0.4-0.1
    s0.2-0.2,0.3-0.3s0.1-0.3,0.2-0.4s0.1-0.3,0.1-0.5s0-0.4,0-0.5s0-0.3,0-0.6v-0.2c0-0.2,0-0.5,0-0.7S106,9,105.9,8.7
    s-0.2-0.4-0.3-0.5S105.3,8,105.1,8c-0.7,0-1,0.7-1,2V10.3z"/>
  <path class='path2' id="XMLID_93_" d="M115.4,9.2c0-0.2,0.1-0.5,0.3-1s0.2-0.9,0.3-1.2V6.6c0,0,0,0,0-0.1s0-0.1,0-0.1s0,0,0-0.1s0-0.1,0-0.1
    s0,0,0-0.1s0-0.1,0.1-0.1s0.1,0,0.1-0.1s0.1,0,0.1,0s0.1,0,0.1,0h3.1c0,0,0,0,0.1,0.1s0.1,0.1,0.1,0.1s0,0,0.1,0.1l-2.3,8.2
    c-0.1,0.2-0.1,0.4-0.2,0.5s-0.2,0.2-0.3,0.2h-4.7c-0.1-0.3-0.2-0.6-0.3-1s-0.2-0.8-0.3-1.2s-0.2-0.7-0.3-1L109.9,6
    c0-0.1,0.1-0.2,0.2-0.2v0c0.3,0,0.7,0,1.2,0s1,0,1.2,0h1.1c0,0,0.1,0,0.1,0s0,0,0,0.1s0,0.1,0.1,0.1l1,5.7l0.6-1.7L115.4,9.2z"/>
  <path class='path2' id="XMLID_95_" d="M120.2,6.4c0-0.3,0-0.4,0-0.5c0-0.1,0.1-0.1,0.2-0.1h0.2c0.1,0,0.1,0,0.2,0h0.4c0.5,0,1.2,0,2.1,0
    s1.6,0,2.1,0h1.8c0.1,0,0.2,0.1,0.2,0.2v2.3c0,0,0,0.1,0,0.1s0,0,0,0s0,0-0.1,0s-0.1,0-0.1,0.1H124v0.8h0.3c0.3,0,0.7,0,1.2,0
    s1,0,1.3,0c0.1,0,0.2,0,0.3,0.1s0.1,0.1,0.1,0.2c0,0,0,0.1,0,0.1s0,0.1,0,0.1V10c0,0,0,0.1,0,0.1s0,0.1,0,0.1v0.2
    c0,0.1,0,0.2,0,0.3s0,0.2,0,0.3v0.2c0,0.1,0,0.1-0.1,0.1s0,0-0.1,0v0c-0.2,0-0.5,0-0.9,0s-0.7,0-1,0H124v0.9c0,0,0.1,0,0.2,0
    s0.1,0,0.2,0c0.2,0,0.5,0,0.9,0s0.7,0,0.9,0h0.9c0.2,0,0.4,0,0.5,0.1c0,0,0,0.1,0.1,0.1v2.2c0,0.1,0,0.2-0.1,0.2s-0.1,0.1-0.2,0.1
    h-6.8l-0.2-0.2V6.4z"/>
  <path class='path2' id="XMLID_97_" d="M128.3,5.8h1.3c0.4,0,1,0,1.9,0s1.5,0,1.9,0c0.4,0,0.7,0,1,0.1s0.6,0.1,1,0.2s0.6,0.2,0.8,0.4
    s0.4,0.4,0.5,0.7s0.2,0.6,0.2,1c0,0.5-0.1,0.9-0.3,1.3s-0.6,0.6-1.1,0.9c0.2,0.1,0.4,0.2,0.5,0.3s0.2,0.2,0.3,0.3s0.1,0.3,0.2,0.5
    s0.1,0.4,0.1,0.4s0,0.2,0.1,0.5c0,0.1,0,0.1,0,0.1c0,0.2,0.1,0.5,0.2,1s0.2,0.9,0.2,1.1c0,0.2-0.1,0.2-0.2,0.2c-0.3,0-0.7,0-1.2,0
    s-1,0-1.2,0c-0.1,0-0.3,0-0.5,0h-0.5c-0.1,0-0.2-0.2-0.3-0.4s-0.1-0.5-0.2-0.9l-0.2-1.2c0-0.1,0-0.2-0.1-0.2s0-0.1-0.1-0.2
    s-0.1-0.1-0.2-0.1s-0.2,0-0.3,0h-0.3v2.7c0,0,0,0,0,0.1s0,0.1,0,0.1s0,0,0,0.1s0,0,0,0.1s0,0,0,0s0,0,0,0s0,0,0,0s0,0,0,0
    s0,0-0.1,0s0,0-0.1,0h-3.6V5.8z M132.1,9.4C132.1,9.4,132.2,9.5,132.1,9.4c0.1,0.1,0.1,0.1,0.1,0.1s0,0,0.1,0c0.1,0,0.3,0,0.4,0
    s0.3-0.1,0.4-0.1s0.3-0.2,0.3-0.3s0.1-0.3,0.1-0.5c0-0.5-0.5-0.7-1.4-0.7c-0.1,0-0.1,0.1-0.1,0.1v0.3c0,0.1,0,0.3,0,0.6
    S132.1,9.3,132.1,9.4z"/>
  <path class='path2' id="XMLID_100_" d="M143.1,8.5c-0.1,0-0.2,0-0.3-0.1s-0.1-0.1-0.2-0.1s-0.1-0.1-0.2-0.2S142.3,8,142.2,8s-0.3-0.1-0.5-0.1
    c-0.1,0-0.1,0-0.2,0s-0.2,0-0.3,0.1s-0.2,0.1-0.2,0.2c0,0.1,0,0.2,0.1,0.2s0.2,0.1,0.3,0.1s0.2,0.1,0.4,0.1s0.2,0.1,0.3,0.1l1,0.2
    c0.3,0.1,0.6,0.2,0.8,0.3s0.5,0.2,0.8,0.4s0.5,0.3,0.7,0.5s0.3,0.4,0.4,0.7s0.2,0.6,0.2,1c0,0.4-0.1,0.8-0.2,1.1v0
    c-0.1,0.3-0.2,0.6-0.4,0.8s-0.4,0.4-0.6,0.6s-0.5,0.3-0.7,0.4s-0.5,0.2-0.8,0.2s-0.6,0.1-0.8,0.1s-0.5,0.1-0.9,0.1
    c-1.4-0.1-2.4-0.3-2.9-0.7v-0.1c-0.4-0.3-0.7-0.6-0.9-1s-0.3-0.8-0.4-1.2c0-0.1,0.1-0.2,0.2-0.2c0,0,0.1,0,0.1,0s0.1,0,0.1,0h0.7
    c0.1,0,0.2,0,0.3,0h0.2c0,0,0.1,0,0.1,0c0.3,0,0.7,0,1.4,0h0.3c0.1,0,0.2,0,0.2,0.1s0.1,0.1,0.1,0.2s0.1,0.2,0.1,0.2
    s0.1,0.1,0.2,0.2s0.2,0.1,0.4,0.1c0.2,0,0.3,0,0.5-0.1s0.2-0.2,0.2-0.4c0-0.1,0-0.2-0.1-0.2s-0.2-0.1-0.3-0.2s-0.3-0.1-0.4-0.1
    s-0.3-0.1-0.5-0.1s-0.3-0.1-0.4-0.1h-0.4c-1-0.3-1.7-0.7-2.1-1.1s-0.7-1-0.7-1.7c0-0.5,0.1-0.9,0.3-1.2s0.4-0.7,0.7-0.9
    s0.6-0.4,1-0.6s0.8-0.3,1.2-0.3s0.8-0.1,1.2-0.1c0.7,0,1.4,0.1,2.1,0.4s1.1,0.6,1.4,1c0.1,0.1,0.2,0.3,0.3,0.5s0.1,0.3,0.1,0.4
    s0,0.3,0.1,0.5l-0.2,0.3h-1.2c-0.1,0-0.3,0-0.6,0S143.3,8.5,143.1,8.5z"/>
  <path class='path2' id="XMLID_102_" d="M156.3,8.5c-0.1,0-0.2,0-0.3-0.1s-0.1-0.1-0.2-0.1s-0.1-0.1-0.2-0.2S155.5,8,155.4,8s-0.3-0.1-0.5-0.1
    c-0.1,0-0.1,0-0.2,0s-0.2,0-0.3,0.1s-0.2,0.1-0.2,0.2c0,0.1,0,0.2,0.1,0.2s0.2,0.1,0.3,0.1s0.2,0.1,0.4,0.1s0.2,0.1,0.3,0.1l1,0.2
    c0.3,0.1,0.6,0.2,0.8,0.3s0.5,0.2,0.8,0.4s0.5,0.3,0.7,0.5s0.3,0.4,0.4,0.7s0.2,0.6,0.2,1c0,0.4-0.1,0.8-0.2,1.1v0
    c-0.1,0.3-0.2,0.6-0.4,0.8s-0.4,0.4-0.6,0.6s-0.5,0.3-0.7,0.4s-0.5,0.2-0.8,0.2s-0.6,0.1-0.8,0.1s-0.5,0.1-0.9,0.1
    c-1.4-0.1-2.4-0.3-2.9-0.7v-0.1c-0.4-0.3-0.7-0.6-0.9-1s-0.3-0.8-0.4-1.2c0-0.1,0.1-0.2,0.2-0.2c0,0,0.1,0,0.1,0s0.1,0,0.1,0h0.7
    c0.1,0,0.2,0,0.3,0h0.2c0,0,0.1,0,0.1,0c0.3,0,0.7,0,1.4,0h0.3c0.1,0,0.2,0,0.2,0.1s0.1,0.1,0.1,0.2s0.1,0.2,0.1,0.2
    s0.1,0.1,0.2,0.2s0.2,0.1,0.4,0.1c0.2,0,0.3,0,0.5-0.1s0.2-0.2,0.2-0.4c0-0.1,0-0.2-0.1-0.2s-0.2-0.1-0.3-0.2s-0.3-0.1-0.4-0.1
    s-0.3-0.1-0.5-0.1s-0.3-0.1-0.4-0.1h-0.4c-1-0.3-1.7-0.7-2.1-1.1s-0.7-1-0.7-1.7c0-0.5,0.1-0.9,0.3-1.2s0.4-0.7,0.7-0.9
    s0.6-0.4,1-0.6s0.8-0.3,1.2-0.3s0.8-0.1,1.2-0.1c0.7,0,1.4,0.1,2.1,0.4s1.1,0.6,1.4,1c0.1,0.1,0.2,0.3,0.3,0.5s0.1,0.3,0.1,0.4
    s0,0.3,0.1,0.5l-0.2,0.3h-1.2c-0.1,0-0.3,0-0.6,0S156.5,8.5,156.3,8.5z"/>
  <path class='path2' id="XMLID_104_" d="M159.9,15V6c0,0,0-0.1,0.1-0.1s0.1-0.1,0.1-0.1h3.7v8.9c0,0.1,0,0.2-0.1,0.2s-0.1,0.1-0.1,0.1H159.9z"/>
  <path class='path2' id="XMLID_106_" d="M174.2,5.8c0.1,0,0.1,0.1,0.1,0.2s0,0.3,0.1,0.5s0,0.4,0,0.6s0,0.4,0,0.6s0,0.3,0,0.4c0,0.2,0,0.4,0,0.8
    v0.7c0,0.3,0,0.8,0,1.3s0,1,0,1.2v2.5c0,0.2-0.1,0.2-0.4,0.2h-3.8c-0.1,0-0.2-0.2-0.3-0.6c-0.1-0.2-0.2-0.6-0.4-1.2s-0.4-1-0.5-1.5
    s-0.3-0.8-0.4-1.2v0v0c0,0.3,0,0.7,0,1.3s0,1,0,1.3v1.4c0,0.1,0,0.2,0,0.3s-0.1,0.1-0.3,0.1h-2.8l-0.3-0.3c0-0.8,0-1.9,0.1-3.6
    s0-2.8,0.1-3.6V6c0-0.2,0.1-0.2,0.2-0.2v0c0.3,0,0.8,0,1.5,0s1.2,0,1.5,0h1.1c0,0,0,0,0,0c0.1,0,0.1,0.1,0.1,0.1l0,0
    c0.2,0.4,0.3,0.9,0.5,1.4s0.4,1,0.6,1.7s0.4,1.1,0.5,1.4v-1c0.1-1.6,0.1-2.7,0.1-3.4c0-0.1,0.1-0.1,0.2-0.1s0.3,0,0.5,0H174.2z"/>
  <path class='path2' id="XMLID_108_" d="M180,15.2c-0.8,0-1.4-0.1-2.1-0.4s-1.1-0.6-1.5-1.1s-0.7-1-0.9-1.6s-0.3-1.3-0.3-2V10c0,0,0-0.1,0-0.2
    s0-0.2,0-0.2s0-0.1,0-0.2s0-0.2,0-0.2s0-0.1,0-0.2s0-0.2,0.1-0.2s0-0.1,0.1-0.2s0.1-0.2,0.1-0.2s0.1-0.2,0.1-0.2v0
    c0.2-0.4,0.5-0.8,0.8-1.1s0.7-0.6,1.1-0.7s0.8-0.3,1.2-0.4s0.8-0.1,1.3-0.1c0.6,0,1.1,0.1,1.5,0.2s0.8,0.3,1.1,0.4s0.6,0.4,0.8,0.7
    s0.4,0.5,0.5,0.8s0.2,0.6,0.2,0.9v0.6c0,0.1,0,0.1-0.1,0.1s-0.1,0.1-0.2,0.1s-0.2,0-0.3,0h-2.9V8.8c0-0.2-0.1-0.3-0.2-0.4
    s-0.2-0.2-0.4-0.2c-0.1,0-0.3,0-0.4,0.1s-0.2,0.1-0.3,0.2s-0.1,0.2-0.2,0.3s-0.1,0.3-0.1,0.4s0,0.3,0,0.4s0,0.3,0,0.4
    c0,0.1,0,0.2,0,0.2v0.8c0,0.1,0,0.2,0,0.3s0,0.2,0.1,0.4s0.1,0.3,0.2,0.4s0.2,0.2,0.4,0.2c0.2,0,0.3-0.1,0.4-0.2s0.2-0.3,0.2-0.5
    s0.1-0.3,0.2-0.4c0.2,0,0.5,0,0.8,0s0.6,0,0.8,0c0.1,0,0.3,0,0.6,0s0.4,0,0.6,0h0.5c0.2,0,0.2,0.1,0.2,0.3v0.3
    c-0.1,0.9-0.4,1.6-1,2.2s-1.3,0.9-2.1,1.1v0C180.9,15.1,180.5,15.2,180,15.2z"/>
  <path class='path2' id="XMLID_110_" d="M185.1,6.4c0-0.3,0-0.4,0-0.5c0-0.1,0.1-0.1,0.2-0.1h0.2c0.1,0,0.1,0,0.2,0h0.4c0.5,0,1.2,0,2.1,0
    s1.6,0,2.1,0h1.8c0.1,0,0.2,0.1,0.2,0.2v2.3c0,0,0,0.1,0,0.1s0,0,0,0s0,0-0.1,0s-0.1,0-0.1,0.1h-3.2v0.8h0.3c0.3,0,0.7,0,1.2,0
    s1,0,1.3,0c0.1,0,0.2,0,0.3,0.1s0.1,0.1,0.1,0.2c0,0,0,0.1,0,0.1s0,0.1,0,0.1V10c0,0,0,0.1,0,0.1s0,0.1,0,0.1v0.2
    c0,0.1,0,0.2,0,0.3s0,0.2,0,0.3v0.2c0,0.1,0,0.1-0.1,0.1s0,0-0.1,0v0c-0.2,0-0.5,0-0.9,0s-0.7,0-1,0h-1.1v0.9c0,0,0.1,0,0.2,0
    s0.1,0,0.2,0c0.2,0,0.5,0,0.9,0s0.7,0,0.9,0h0.9c0.2,0,0.4,0,0.5,0.1c0,0,0,0.1,0.1,0.1v2.2c0,0.1,0,0.2-0.1,0.2s-0.1,0.1-0.2,0.1
    h-6.8l-0.2-0.2V6.4z"/>
  <path class='path2' id="XMLID_112_" d="M198.1,8.7c0-0.1,0-0.1,0-0.2c0-0.7,0-1.2,0.1-1.4c0-0.2,0.1-0.3,0.3-0.4c0,0,0.1-0.1,0.3-0.1l0.3-0.2
    c0.2-0.1,0.4-0.2,0.6-0.3s0.5-0.3,0.8-0.5s0.6-0.4,0.7-0.7c1.1,0,1.9,0,2.5,0c0.2,0,0.4,0,0.5,0c0,0,0.1,0,0.1,0s0,0.1,0,0.1
    s0,0.1,0,0.1s0,0.1,0,0.2v3.7c0,0.7,0,1.7,0,3s0,2.4,0,3.1c0,0.2-0.4,0.2-1,0.2c-0.1,0-0.2,0-0.4,0s-0.3,0-0.3,0
    c-0.1,0-0.3,0-0.5,0s-0.4,0-0.5,0c-0.3,0-0.7,0-1.3,0l-0.2-0.2c0,0-0.1-0.1-0.1-0.3c0-0.7,0-1.7,0-3v-3c-0.7,0.4-1.3,0.8-1.9,0.9
    c-0.1,0-0.1,0-0.2,0s-0.1-0.1-0.1-0.2V8.7z"/>
  <path class='path2' id="XMLID_114_" d="M211.8,12.6c0,0.1,0,0.1,0,0.2s0,0.1,0.1,0.1s0.1,0.1,0.1,0.1s0.1,0,0.2,0c0.1,0,0.2,0,0.3-0.1
    s0.2-0.1,0.2-0.2s0.1-0.2,0.2-0.3s0.1-0.2,0.1-0.3s0-0.2,0.1-0.3s0-0.3,0-0.3s0-0.2,0-0.3c-0.5,0.3-1.1,0.4-1.7,0.4
    c-0.4,0-0.7,0-1.1-0.1s-0.7-0.2-1-0.4s-0.6-0.4-0.9-0.6s-0.4-0.5-0.6-0.9s-0.2-0.8-0.2-1.2c0-0.5,0.1-1,0.3-1.4s0.4-0.8,0.7-1.1
    s0.7-0.5,1.1-0.7s0.8-0.3,1.2-0.4s0.9-0.1,1.3-0.1c0.7,0,1.4,0.1,2,0.4s1.1,0.6,1.5,1.1s0.7,1,0.9,1.6s0.3,1.3,0.3,2.1
    c0,1.7-0.4,3.1-1.1,4c-0.2,0.4-0.5,0.7-0.9,0.9s-0.8,0.4-1.2,0.6s-0.8,0.2-1.2,0.2s-0.7,0.1-1.1,0.1c-1,0-1.9-0.3-2.5-0.8
    c-0.3-0.3-0.6-0.6-0.7-1s-0.2-0.9-0.2-1.3l0.2-0.3h3.1c0.1,0,0.1,0,0.2,0.1S211.8,12.5,211.8,12.6z M211.1,8.5c0,0.4,0.1,0.7,0.3,1
    s0.5,0.3,0.8,0.3c0.7,0,1.1-0.5,1.1-1.4c0-0.2,0-0.4,0-0.5s-0.1-0.3-0.2-0.5s-0.2-0.3-0.3-0.3s-0.3-0.1-0.6-0.1
    c-0.2,0-0.4,0-0.6,0.1s-0.3,0.2-0.4,0.4s-0.1,0.3-0.2,0.5S211.1,8.3,211.1,8.5z"/>
  <path class='path2' id="XMLID_117_" d="M222.3,4.6c0.5,0,0.9,0,1.4,0.1s0.8,0.2,1.2,0.4s0.7,0.4,1,0.6s0.5,0.6,0.7,0.9s0.2,0.8,0.2,1.2
    c0,1-0.5,1.7-1.4,2.1c0.3,0.1,0.5,0.3,0.7,0.4s0.4,0.3,0.5,0.5s0.3,0.4,0.4,0.7s0.1,0.6,0.1,0.9c0,1-0.4,1.8-1.2,2.3
    s-2,0.8-3.7,0.8c-0.5,0-1,0-1.4-0.1s-0.8-0.1-1.1-0.3s-0.6-0.2-0.8-0.4s-0.4-0.3-0.6-0.5s-0.3-0.4-0.4-0.6s-0.2-0.4-0.2-0.6
    s-0.1-0.4-0.1-0.6c0-0.6,0.2-1.1,0.4-1.5s0.6-0.7,1.2-1C218.4,9.7,218,9,218,7.9c0-0.5,0.1-0.9,0.3-1.3s0.4-0.7,0.7-0.9
    s0.6-0.4,1-0.6s0.8-0.3,1.2-0.3S221.9,4.6,222.3,4.6z M221.3,12.2c0,0.3,0.1,0.6,0.3,0.8s0.4,0.3,0.8,0.3c0.3,0,0.6-0.1,0.8-0.3
    s0.3-0.5,0.3-0.8c0-0.9-0.4-1.3-1.1-1.3c-0.3,0-0.6,0.1-0.8,0.4S221.3,11.9,221.3,12.2z M221.5,8.1c0,0.7,0.3,1.1,0.9,1.1
    c0.3,0,0.5-0.1,0.7-0.3s0.2-0.5,0.2-0.8c0-0.7-0.3-1.1-1-1.1c-0.3,0-0.5,0.1-0.7,0.4S221.5,7.8,221.5,8.1z"/>
  <path class='path2' id="XMLID_121_" d="M227.3,13.5v-2.1c0-0.1,0-0.3,0.1-0.4s0.1-0.3,0.1-0.4s0.1-0.2,0.2-0.4s0.1-0.3,0.2-0.4s0.1-0.2,0.2-0.4
    s0.2-0.3,0.2-0.3c0.3-0.4,0.7-1.1,1.3-2.1s1-1.7,1.3-2.2h5.1v0.4c0,0.4,0,1.1,0,1.9s0,1.5,0,1.9v0.3c0,0.1,0,0.3,0,0.3v0.1
    c0,0.1,0,0.2,0,0.2v0.2c0,0.3,0.1,0.5,0.3,0.5c0.1,0,0.2,0,0.3,0s0.2,0,0.3,0c0.2,0,0.2,0,0.3,0.1s0.1,0.2,0.1,0.3c0,0,0,0,0,0
    c0,0,0,0.1,0,0.3s0,0.4,0,0.6s0,0.5,0,0.7c0,0.3,0,0.5,0,0.7s-0.1,0.2-0.2,0.2h-1c0,0.6,0,1,0,1.2c0,0.1,0,0.2,0,0.2s0,0.1-0.1,0.1
    s-0.1,0.1-0.2,0.1h-1.3c-1.1,0-1.8,0-2.2,0l-0.2-0.3v-1.5h-4.2c0,0-0.1,0-0.1,0s-0.1,0-0.1,0s-0.1,0-0.1,0S227.4,13.7,227.3,13.5
    C227.4,13.6,227.4,13.6,227.3,13.5z M230.2,10.9v0.2c0,0,0,0.1,0.1,0.1s0.1,0.1,0.1,0.1c0.2,0,0.5,0,1,0s0.8,0,1,0
    c0.1,0,0.2-0.1,0.2-0.2v-0.3c0,0,0-0.1,0-0.2v-0.2c0-0.1,0-0.2,0-0.4s0-0.4,0-0.5c0-1.3-0.1-2-0.3-2v0.1c-0.2,0.4-0.5,0.9-1,1.7
    S230.4,10.5,230.2,10.9z"/>
</g>
</svg>